<svg width="190" height="55" viewBox="0 0 190 55" fill="none" xmlns="http://www.w3.org/2000/svg">
<path d="M2.26525 44.0424C2.71616 40.7837 3.56495 36.3231 5.39515 31.2481C6.93358 27.0279 9.45342 20.2435 15.3949 13.646C18.2861 10.4675 22.7157 5.5528 30.3283 2.82834C41.0442 -0.991237 50.4339 2.18729 53.4843 3.28242C57.9935 4.88504 65.8978 7.76975 69.0277 15.0083C70.0622 17.4122 71.5741 22.594 70.3539 28.2566C70.3274 28.3634 70.3009 28.4436 70.3009 28.497C70.2744 28.6572 70.2478 28.7374 70.2478 28.7641C70.2213 28.8976 70.3274 29.1647 70.9109 29.8859C71.2558 29.9928 71.6006 30.0996 71.9719 30.2064C73.086 30.527 74.1204 30.7674 75.1284 30.9543C74.7305 30.6071 74.0939 30.1263 73.1921 29.7791C72.2372 29.4051 71.3619 29.2983 70.8048 29.2983C70.8048 29.2983 71.2027 31.6755 71.1762 33.3048C71.1762 33.3048 71.2027 36.7772 69.903 40.0358C68.4176 43.7486 64.4124 48.5297 58.5505 51.2275C49.6117 55.3142 40.8055 52.4562 38.6835 51.6816C35.5536 50.5597 31.4423 48.3695 27.2514 46.1258C24.4398 44.63 22.5301 43.5082 19.4001 42.6535C17.5965 42.1727 14.944 41.4782 11.6284 41.8254C7.14578 42.2795 3.8302 44.3362 2 45.7252C2.13262 45.1909 2.2122 44.63 2.26525 44.0424Z" fill="#F8F8F8" stroke="#A2B084" stroke-width="1.5" stroke-miterlimit="10"/>
<rect x="52" y="15" width="23" height="30" fill="#F8F8F8"/>
<path d="M35.108 17.648C37.4973 17.648 39.46 18.1067 40.996 19.024C42.5533 19.92 43.684 21.1147 44.388 22.608C45.1133 24.08 45.476 25.6907 45.476 27.44C45.476 29.616 44.964 31.536 43.94 33.2C42.916 34.8427 41.5507 36.1227 39.844 37.04C38.1587 37.936 36.3347 38.384 34.372 38.384C33.476 38.384 32.4627 38.288 31.332 38.096C30.2227 37.9253 29.3587 37.7013 28.74 37.424C28.5693 37.3387 28.452 37.2533 28.388 37.168C28.3453 37.0613 28.3133 36.8907 28.292 36.656L27.876 32.496C27.876 32.432 27.9293 32.4 28.036 32.4C28.164 32.3787 28.2387 32.4 28.26 32.464C28.8573 34.064 29.8173 35.312 31.14 36.208C32.4627 37.104 33.9027 37.552 35.46 37.552C37.6147 37.552 39.236 36.7413 40.324 35.12C41.4333 33.4773 41.988 31.248 41.988 28.432V28.048H37.924C36.7293 28.048 35.78 28.3253 35.076 28.88C34.372 29.4347 34.02 30.2027 34.02 31.184C34.02 31.2267 33.956 31.248 33.828 31.248C33.7213 31.248 33.668 31.2267 33.668 31.184L33.7 27.92L33.668 26.288C33.6253 25.52 33.604 24.912 33.604 24.464C33.604 24.4213 33.668 24.4 33.796 24.4C33.924 24.4 33.988 24.4213 33.988 24.464C34.0093 25.296 34.372 25.968 35.076 26.48C35.8013 26.9707 36.772 27.216 37.988 27.216H41.956C41.8493 25.4027 41.4867 23.824 40.868 22.48C40.2707 21.1147 39.4707 20.0693 38.468 19.344C37.4867 18.5973 36.3667 18.224 35.108 18.224C33.7213 18.224 32.4413 18.672 31.268 19.568C30.116 20.4427 29.1347 21.776 28.324 23.568C28.3027 23.632 28.2387 23.6533 28.132 23.632C28.0253 23.6107 27.972 23.5787 27.972 23.536L28.452 19.44C28.4947 19.184 28.5373 19.0133 28.58 18.928C28.6227 18.8427 28.74 18.7573 28.932 18.672C30.916 17.9893 32.9747 17.648 35.108 17.648ZM62.1353 37.616C62.1993 37.616 62.2313 37.68 62.2313 37.808C62.2313 37.936 62.1993 38 62.1353 38H58.4233C58.2313 38 58.0606 37.9573 57.9113 37.872C57.7833 37.7653 57.5699 37.5093 57.2713 37.104C56.9939 36.6773 56.5566 35.952 55.9593 34.928C55.4046 34.032 54.9673 33.3813 54.6473 32.976C54.3273 32.5493 54.0073 32.2613 53.6873 32.112C53.3673 31.9413 52.9513 31.856 52.4393 31.856H52.2153V35.408C52.2153 36.048 52.2579 36.528 52.3433 36.848C52.4499 37.1467 52.6206 37.3493 52.8553 37.456C53.1113 37.5627 53.5059 37.616 54.0393 37.616C54.1033 37.616 54.1353 37.68 54.1353 37.808C54.1353 37.936 54.1033 38 54.0393 38C53.4633 38 53.0153 37.9893 52.6953 37.968L50.9673 37.936L49.1432 37.968C48.8233 37.9893 48.3646 38 47.7673 38C47.7033 38 47.6713 37.936 47.6713 37.808C47.6713 37.68 47.7033 37.616 47.7673 37.616C48.3219 37.616 48.7273 37.5627 48.9833 37.456C49.2393 37.3493 49.4099 37.1467 49.4953 36.848C49.5806 36.528 49.6233 36.048 49.6233 35.408V28.24C49.6233 27.6 49.5806 27.1307 49.4953 26.832C49.4099 26.512 49.2393 26.2987 48.9833 26.192C48.7273 26.0853 48.3326 26.032 47.7993 26.032C47.7566 26.032 47.7353 25.968 47.7353 25.84C47.7353 25.712 47.7566 25.648 47.7993 25.648C48.3753 25.648 48.8233 25.6587 49.1432 25.68L50.9673 25.712L52.9833 25.68C53.3246 25.6587 53.8046 25.648 54.4233 25.648C54.4659 25.648 54.4873 25.712 54.4873 25.84C54.4873 25.968 54.4659 26.032 54.4233 26.032C53.7833 26.032 53.3033 26.096 52.9833 26.224C52.6846 26.3307 52.4819 26.544 52.3753 26.864C52.2686 27.1627 52.2153 27.6427 52.2153 28.304V31.312L53.9113 31.248C54.1886 31.248 54.4553 31.0773 54.7113 30.736C54.9673 30.3947 55.1913 30.0107 55.3833 29.584C56.1939 27.9627 56.8873 26.8533 57.4633 26.256C58.0393 25.6373 58.6793 25.328 59.3833 25.328C59.9593 25.328 60.3859 25.4667 60.6633 25.744C60.9619 26 61.1113 26.3413 61.1113 26.768C61.1113 27.1947 60.9726 27.5467 60.6953 27.824C60.4393 28.1013 60.0659 28.24 59.5753 28.24C59.2979 28.24 58.9886 28.1547 58.6473 27.984C58.6046 27.9627 58.5086 27.92 58.3593 27.856C58.2099 27.792 58.0393 27.76 57.8473 27.76C57.5486 27.76 57.2499 27.9307 56.9513 28.272C56.6739 28.592 56.3539 29.104 55.9913 29.808C55.6499 30.4907 55.3299 30.9813 55.0312 31.28C55.5859 31.344 56.0339 31.472 56.3753 31.664C56.7379 31.856 57.0686 32.144 57.3673 32.528C57.6873 32.8907 58.1139 33.4773 58.6473 34.288C58.6899 34.352 58.9033 34.704 59.2873 35.344C59.6713 35.9413 59.9699 36.3787 60.1833 36.656C60.3966 36.9333 60.6526 37.1573 60.9513 37.328C61.2499 37.4987 61.6446 37.5947 62.1353 37.616ZM69.0513 38.416C67.7713 38.416 66.6406 38.1173 65.6593 37.52C64.6779 36.9013 63.9206 36.08 63.3873 35.056C62.8539 34.0107 62.5872 32.88 62.5872 31.664C62.5872 30.2773 62.9286 29.104 63.6113 28.144C64.3153 27.1627 65.2006 26.4373 66.2673 25.968C67.3553 25.4773 68.4646 25.232 69.5953 25.232C70.8966 25.232 72.0273 25.5413 72.9873 26.16C73.9686 26.7787 74.7153 27.6 75.2273 28.624C75.7393 29.6267 75.9953 30.704 75.9953 31.856C75.9953 33.136 75.6753 34.2773 75.0353 35.28C74.4166 36.2827 73.5739 37.0613 72.5073 37.616C71.4406 38.1493 70.2886 38.416 69.0513 38.416ZM70.0113 37.776C70.9499 37.776 71.6646 37.36 72.1553 36.528C72.6673 35.696 72.9233 34.48 72.9233 32.88C72.9233 31.4507 72.7206 30.2027 72.3153 29.136C71.9313 28.0693 71.3979 27.2587 70.7153 26.704C70.0539 26.1493 69.3286 25.872 68.5393 25.872C67.5793 25.872 66.8539 26.2667 66.3633 27.056C65.8726 27.8453 65.6273 29.008 65.6273 30.544C65.6273 31.9307 65.8086 33.1787 66.1713 34.288C66.5553 35.376 67.0779 36.2293 67.7393 36.848C68.4219 37.4667 69.1793 37.776 70.0113 37.776ZM89.2538 35.984C89.2964 35.984 89.3391 36.0267 89.3818 36.112C89.4458 36.1973 89.4564 36.2613 89.4138 36.304C88.6458 37.0293 87.8671 37.5627 87.0778 37.904C86.2884 38.224 85.4244 38.384 84.4858 38.384C83.1631 38.384 82.0218 38.1067 81.0618 37.552C80.1231 36.976 79.3978 36.2187 78.8858 35.28C78.3951 34.32 78.1497 33.296 78.1497 32.208C78.1497 30.9493 78.4591 29.7973 79.0778 28.752C79.7178 27.7067 80.5818 26.8853 81.6698 26.288C82.7791 25.6693 83.9951 25.36 85.3177 25.36C86.5764 25.36 87.5471 25.648 88.2298 26.224C88.9124 26.7787 89.2538 27.5467 89.2538 28.528C89.2538 29.104 89.1364 29.392 88.9018 29.392H87.1418L81.1258 29.456C81.0618 29.904 81.0298 30.384 81.0298 30.896C81.0298 32.752 81.4564 34.2347 82.3098 35.344C83.1844 36.432 84.3898 36.976 85.9258 36.976C86.4804 36.976 87.0458 36.9013 87.6218 36.752C88.1978 36.5813 88.7204 36.336 89.1898 36.016L89.2538 35.984ZM84.1658 26C83.4618 26 82.8538 26.256 82.3418 26.768C81.8298 27.28 81.4671 27.984 81.2538 28.88L86.2458 28.784C86.2031 27.9093 86.0111 27.2267 85.6698 26.736C85.3284 26.2453 84.8271 26 84.1658 26ZM91.399 38C91.335 38 91.303 37.936 91.303 37.808C91.303 37.68 91.335 37.616 91.399 37.616C91.911 37.616 92.295 37.552 92.551 37.424C92.807 37.296 92.9777 37.0827 93.063 36.784C93.1483 36.464 93.191 35.984 93.191 35.344V28.24C93.191 27.6 93.1483 27.1307 93.063 26.832C92.9777 26.512 92.807 26.2987 92.551 26.192C92.3163 26.0853 91.9323 26.032 91.399 26.032C91.335 26.032 91.303 25.968 91.303 25.84C91.303 25.712 91.335 25.648 91.399 25.648C91.975 25.648 92.423 25.6587 92.743 25.68L94.471 25.712L96.103 25.68C96.4017 25.6587 96.807 25.648 97.319 25.648C97.383 25.648 97.415 25.712 97.415 25.84C97.415 25.968 97.383 26.032 97.319 26.032C96.871 26.032 96.5403 26.0853 96.327 26.192C96.135 26.2987 95.9963 26.512 95.911 26.832C95.847 27.1307 95.815 27.6 95.815 28.24V35.408C95.815 36.0907 95.8257 36.5387 95.847 36.752C95.8897 36.9653 95.975 37.104 96.103 37.168C96.2523 37.232 96.5297 37.264 96.935 37.264H99.943C100.37 37.264 100.647 37.232 100.775 37.168C100.924 37.104 101.02 36.9547 101.063 36.72C101.106 36.4853 101.127 36.0373 101.127 35.376V28.24C101.127 27.6 101.084 27.1307 100.999 26.832C100.914 26.512 100.743 26.2987 100.487 26.192C100.252 26.0853 99.879 26.032 99.367 26.032C99.303 26.032 99.271 25.968 99.271 25.84C99.271 25.712 99.303 25.648 99.367 25.648C99.9217 25.648 100.359 25.6587 100.679 25.68L102.375 25.712L104.007 25.68C104.327 25.6587 104.743 25.648 105.255 25.648C105.319 25.648 105.351 25.712 105.351 25.84C105.351 25.968 105.319 26.032 105.255 26.032C104.807 26.032 104.476 26.0853 104.263 26.192C104.05 26.2987 103.9 26.512 103.815 26.832C103.751 27.1307 103.719 27.6 103.719 28.24V35.408C103.719 36.0907 103.73 36.5387 103.751 36.752C103.794 36.9653 103.879 37.104 104.007 37.168C104.156 37.232 104.434 37.264 104.839 37.264H107.879C108.306 37.264 108.583 37.232 108.711 37.168C108.86 37.104 108.946 36.9653 108.967 36.752C109.01 36.5173 109.031 36.048 109.031 35.344V28.24C109.031 27.6 108.988 27.1307 108.903 26.832C108.839 26.512 108.7 26.2987 108.487 26.192C108.295 26.0853 107.975 26.032 107.527 26.032C107.484 26.032 107.463 25.968 107.463 25.84C107.463 25.712 107.484 25.648 107.527 25.648C108.06 25.648 108.466 25.6587 108.743 25.68L110.311 25.712L112.071 25.68C112.412 25.6587 112.892 25.648 113.511 25.648C113.554 25.648 113.575 25.712 113.575 25.84C113.575 25.968 113.554 26.032 113.511 26.032C112.956 26.032 112.551 26.0853 112.295 26.192C112.039 26.2987 111.858 26.512 111.751 26.832C111.666 27.1307 111.623 27.6 111.623 28.24V35.376C111.623 36.016 111.666 36.496 111.751 36.816C111.858 37.1147 112.039 37.328 112.295 37.456C112.551 37.5627 112.946 37.616 113.479 37.616C113.522 37.616 113.543 37.68 113.543 37.808C113.543 37.936 113.522 38 113.479 38H91.399ZM129.604 37.616C129.668 37.616 129.7 37.68 129.7 37.808C129.7 37.936 129.668 38 129.604 38H125.892C125.7 38 125.529 37.9573 125.38 37.872C125.252 37.7653 125.039 37.5093 124.74 37.104C124.463 36.6773 124.025 35.952 123.428 34.928C122.873 34.032 122.436 33.3813 122.116 32.976C121.796 32.5493 121.476 32.2613 121.156 32.112C120.836 31.9413 120.42 31.856 119.908 31.856H119.684V35.408C119.684 36.048 119.727 36.528 119.812 36.848C119.919 37.1467 120.089 37.3493 120.324 37.456C120.58 37.5627 120.975 37.616 121.508 37.616C121.572 37.616 121.604 37.68 121.604 37.808C121.604 37.936 121.572 38 121.508 38C120.932 38 120.484 37.9893 120.164 37.968L118.436 37.936L116.612 37.968C116.292 37.9893 115.833 38 115.236 38C115.172 38 115.14 37.936 115.14 37.808C115.14 37.68 115.172 37.616 115.236 37.616C115.791 37.616 116.196 37.5627 116.452 37.456C116.708 37.3493 116.879 37.1467 116.964 36.848C117.049 36.528 117.092 36.048 117.092 35.408V28.24C117.092 27.6 117.049 27.1307 116.964 26.832C116.879 26.512 116.708 26.2987 116.452 26.192C116.196 26.0853 115.801 26.032 115.268 26.032C115.225 26.032 115.204 25.968 115.204 25.84C115.204 25.712 115.225 25.648 115.268 25.648C115.844 25.648 116.292 25.6587 116.612 25.68L118.436 25.712L120.452 25.68C120.793 25.6587 121.273 25.648 121.892 25.648C121.935 25.648 121.956 25.712 121.956 25.84C121.956 25.968 121.935 26.032 121.892 26.032C121.252 26.032 120.772 26.096 120.452 26.224C120.153 26.3307 119.951 26.544 119.844 26.864C119.737 27.1627 119.684 27.6427 119.684 28.304V31.312L121.38 31.248C121.657 31.248 121.924 31.0773 122.18 30.736C122.436 30.3947 122.66 30.0107 122.852 29.584C123.663 27.9627 124.356 26.8533 124.932 26.256C125.508 25.6373 126.148 25.328 126.852 25.328C127.428 25.328 127.855 25.4667 128.132 25.744C128.431 26 128.58 26.3413 128.58 26.768C128.58 27.1947 128.441 27.5467 128.164 27.824C127.908 28.1013 127.535 28.24 127.044 28.24C126.767 28.24 126.457 28.1547 126.116 27.984C126.073 27.9627 125.977 27.92 125.828 27.856C125.679 27.792 125.508 27.76 125.316 27.76C125.017 27.76 124.719 27.9307 124.42 28.272C124.143 28.592 123.823 29.104 123.46 29.808C123.119 30.4907 122.799 30.9813 122.5 31.28C123.055 31.344 123.503 31.472 123.844 31.664C124.207 31.856 124.537 32.144 124.836 32.528C125.156 32.8907 125.583 33.4773 126.116 34.288C126.159 34.352 126.372 34.704 126.756 35.344C127.14 35.9413 127.439 36.3787 127.652 36.656C127.865 36.9333 128.121 37.1573 128.42 37.328C128.719 37.4987 129.113 37.5947 129.604 37.616ZM142.939 36.272C143.024 36.272 143.077 36.3253 143.099 36.432C143.12 36.5173 143.088 36.5813 143.003 36.624L139.707 38.192C139.621 38.2347 139.525 38.256 139.419 38.256C139.12 38.256 138.832 38.0853 138.555 37.744C138.277 37.4027 138.085 36.944 137.979 36.368L136.315 37.264C135.077 37.904 134.021 38.224 133.147 38.224C132.464 38.224 131.931 38.0533 131.547 37.712C131.184 37.3493 131.003 36.8587 131.003 36.24C131.003 35.5787 131.237 35.088 131.707 34.768C132.176 34.4267 133.072 34.032 134.395 33.584L137.883 32.4V29.84C137.883 28.5387 137.733 27.5893 137.435 26.992C137.136 26.3733 136.688 26.064 136.091 26.064C134.939 26.064 134.277 26.9067 134.107 28.592C134 29.6587 133.456 30.192 132.475 30.192C131.557 30.192 131.099 29.7973 131.099 29.008C131.099 28.4533 131.44 27.8987 132.123 27.344C132.827 26.768 133.669 26.2987 134.651 25.936C135.632 25.552 136.507 25.36 137.275 25.36C138.235 25.36 139.003 25.6587 139.579 26.256C140.176 26.832 140.475 27.7067 140.475 28.88V34.544C140.475 35.2053 140.581 35.7067 140.795 36.048C141.008 36.3893 141.317 36.56 141.723 36.56C142.043 36.56 142.427 36.464 142.875 36.272H142.939ZM137.915 35.856C137.893 35.7707 137.883 35.6107 137.883 35.376V32.912L135.611 33.744C135.056 33.9573 134.661 34.192 134.427 34.448C134.192 34.6827 134.075 34.9813 134.075 35.344C134.075 35.792 134.203 36.144 134.459 36.4C134.715 36.656 135.045 36.784 135.451 36.784C135.899 36.784 136.4 36.6453 136.955 36.368L137.915 35.856Z" fill="#A2B084"/>
<path d="M146.558 14.85C147.361 14.85 148.065 15.018 148.672 15.354C149.279 15.69 149.75 16.152 150.086 16.74C150.422 17.3187 150.59 17.9673 150.59 18.686C150.59 19.4887 150.389 20.226 149.988 20.898C149.587 21.57 149.045 22.102 148.364 22.494C147.683 22.8767 146.931 23.068 146.11 23.068C145.41 23.068 144.738 22.9047 144.094 22.578C143.45 22.2513 142.927 21.7893 142.526 21.192C142.134 20.5853 141.938 19.8853 141.938 19.092C141.938 18.2613 142.148 17.524 142.568 16.88C142.997 16.2267 143.567 15.7273 144.276 15.382C144.985 15.0273 145.746 14.85 146.558 14.85ZM146.6 22.69C147.617 22.69 148.401 22.3633 148.952 21.71C149.503 21.0567 149.778 20.198 149.778 19.134C149.778 18.3407 149.619 17.6453 149.302 17.048C148.985 16.4507 148.541 15.9933 147.972 15.676C147.412 15.3493 146.768 15.186 146.04 15.186C145.303 15.186 144.687 15.3447 144.192 15.662C143.697 15.97 143.329 16.3853 143.086 16.908C142.843 17.4213 142.722 17.9953 142.722 18.63C142.722 19.4327 142.899 20.142 143.254 20.758C143.609 21.374 144.08 21.85 144.668 22.186C145.265 22.522 145.909 22.69 146.6 22.69ZM148.868 21.066C148.887 21.066 148.896 21.0847 148.896 21.122C148.896 21.1593 148.887 21.178 148.868 21.178H147.58C147.496 21.178 147.347 20.9913 147.132 20.618C146.927 20.2447 146.642 19.68 146.278 18.924C146.082 18.952 145.881 18.966 145.676 18.966V20.394C145.676 20.59 145.69 20.73 145.718 20.814C145.746 20.898 145.802 20.954 145.886 20.982C145.97 21.01 146.11 21.024 146.306 21.024C146.325 21.024 146.334 21.052 146.334 21.108C146.334 21.1547 146.325 21.178 146.306 21.178L145.284 21.164L144.29 21.178C144.281 21.178 144.276 21.1547 144.276 21.108C144.276 21.052 144.281 21.024 144.29 21.024C144.458 21.024 144.575 21.01 144.64 20.982C144.715 20.954 144.761 20.898 144.78 20.814C144.808 20.73 144.822 20.59 144.822 20.394V17.384C144.822 17.1227 144.789 16.9547 144.724 16.88C144.668 16.8053 144.523 16.768 144.29 16.768C144.281 16.768 144.276 16.74 144.276 16.684C144.276 16.628 144.281 16.6 144.29 16.6L145.284 16.614C145.396 16.614 145.601 16.6047 145.9 16.586C146.161 16.5673 146.339 16.558 146.432 16.558C146.899 16.558 147.244 16.6373 147.468 16.796C147.692 16.9453 147.804 17.1833 147.804 17.51C147.804 18.042 147.543 18.4387 147.02 18.7C147.393 19.4653 147.706 20.016 147.958 20.352C148.219 20.688 148.523 20.926 148.868 21.066ZM145.676 18.742C145.751 18.7513 145.853 18.756 145.984 18.756C146.32 18.756 146.558 18.686 146.698 18.546C146.838 18.3967 146.908 18.1493 146.908 17.804C146.908 17.0947 146.675 16.74 146.208 16.74C146.059 16.74 145.947 16.754 145.872 16.782C145.807 16.8007 145.755 16.8567 145.718 16.95C145.69 17.0433 145.676 17.1973 145.676 17.412V18.742Z" fill="#A2B084"/>
</svg>
