<svg width="123" height="28" viewBox="0 0 123 28" fill="white" xmlns="http://www.w3.org/2000/svg">
<path d="M5.9622 21.448C4.3942 21.448 3.14354 21.1493 2.2102 20.552C1.29554 19.936 0.838202 19.04 0.838202 17.864C0.838202 17.0427 1.05287 16.3893 1.4822 15.904C1.9302 15.4 2.50887 15.148 3.2182 15.148C3.85287 15.148 4.3382 15.3907 4.6742 15.876C3.98354 16.2867 3.6382 16.9587 3.6382 17.892C3.6382 18.4333 3.82487 18.8907 4.1982 19.264C4.5902 19.6187 5.14087 19.796 5.8502 19.796C6.67154 19.796 7.38087 19.516 7.9782 18.956C8.5942 18.396 9.05154 17.6773 9.3502 16.8C9.66754 15.904 9.8262 14.9613 9.8262 13.972C9.8262 12.74 9.55554 11.8533 9.0142 11.312C8.47287 10.752 7.6702 10.472 6.6062 10.472H5.4302L5.8782 8.4H6.8862C7.68887 8.4 8.37954 8.16667 8.9582 7.7C9.55554 7.23333 10.0035 6.664 10.3022 5.992C10.6195 5.30133 10.7782 4.65733 10.7782 4.06C10.7782 3.36933 10.5915 2.83733 10.2182 2.464C9.84487 2.072 9.30354 1.876 8.5942 1.876C6.83954 1.876 5.41154 2.94933 4.3102 5.096L3.6662 4.816C4.0582 3.248 4.83287 2.06267 5.9902 1.26C7.1662 0.438666 8.55687 0.0279996 10.1622 0.0279996C11.7302 0.0279996 12.9249 0.410666 13.7462 1.176C14.5675 1.94133 14.9782 2.95867 14.9782 4.228C14.9782 5.44133 14.6049 6.48667 13.8582 7.364C13.1302 8.22267 12.1035 8.876 10.7782 9.324C13.1862 10.0147 14.3902 11.592 14.3902 14.056C14.3902 15.3813 14.0449 16.6133 13.3542 17.752C12.6822 18.872 11.7022 19.768 10.4142 20.44C9.14487 21.112 7.66087 21.448 5.9622 21.448ZM20.3091 21.168C19.2451 21.168 18.3585 20.804 17.6491 20.076C16.9398 19.348 16.5851 18.2093 16.5851 16.66C16.5851 15.2787 16.8558 13.832 17.3971 12.32C17.9571 10.7893 18.7785 9.50133 19.8611 8.456C20.9625 7.392 22.2691 6.86 23.7811 6.86C24.5465 6.86 25.1158 6.99067 25.4891 7.252C25.8625 7.51333 26.0491 7.85867 26.0491 8.288V8.484L26.3571 7H30.3891L28.3731 16.52C28.2985 16.8 28.2611 17.0987 28.2611 17.416C28.2611 18.2187 28.6438 18.62 29.4091 18.62C29.9318 18.62 30.3798 18.3773 30.7531 17.892C31.1451 17.4067 31.4531 16.772 31.6771 15.988H32.8531C32.1625 18.004 31.3038 19.376 30.2771 20.104C29.2691 20.8133 28.2518 21.168 27.2251 21.168C26.4411 21.168 25.8065 20.9533 25.3211 20.524C24.8545 20.076 24.5745 19.432 24.4811 18.592C23.9398 19.3573 23.3331 19.9827 22.6611 20.468C22.0078 20.9347 21.2238 21.168 20.3091 21.168ZM22.1291 18.452C22.5958 18.452 23.0531 18.2373 23.5011 17.808C23.9678 17.36 24.2851 16.7533 24.4531 15.988L25.7971 9.66C25.7971 9.41733 25.7038 9.184 25.5171 8.96C25.3305 8.71733 25.0411 8.596 24.6491 8.596C23.9025 8.596 23.2305 9.03467 22.6331 9.912C22.0358 10.7707 21.5691 11.816 21.2331 13.048C20.8971 14.2613 20.7291 15.3347 20.7291 16.268C20.7291 17.2013 20.8598 17.7987 21.1211 18.06C21.4011 18.3213 21.7371 18.452 22.1291 18.452ZM36.5594 21.168C35.1781 21.168 34.1048 20.9067 33.3394 20.384C32.5928 19.8613 32.2194 19.068 32.2194 18.004C32.2194 17.3133 32.3781 16.716 32.6954 16.212C32.9941 15.6893 33.3581 15.26 33.7874 14.924C34.2168 14.5693 34.7861 14.168 35.4954 13.72C36.3914 13.1787 37.0541 12.6933 37.4834 12.264C37.9314 11.816 38.1554 11.2653 38.1554 10.612C38.1554 10.2013 38.0434 9.884 37.8194 9.66C37.6141 9.41733 37.2968 9.296 36.8674 9.296C36.2514 9.296 35.7008 9.52933 35.2154 9.996C34.7301 10.4627 34.2728 11.2 33.8434 12.208H32.4994C33.1154 10.4533 33.8994 9.10933 34.8514 8.176C35.8034 7.224 37.0541 6.748 38.6034 6.748C39.6861 6.748 40.5821 7.00933 41.2914 7.532C42.0194 8.05467 42.3834 8.848 42.3834 9.912C42.3834 10.7147 42.2154 11.4147 41.8794 12.012C41.5434 12.6093 41.1328 13.104 40.6474 13.496C40.1621 13.8693 39.5554 14.28 38.8274 14.728C38.0061 15.232 37.4088 15.6707 37.0354 16.044C36.6621 16.3987 36.4754 16.828 36.4754 17.332C36.4754 18.3213 37.1381 18.816 38.4634 18.816C39.3034 18.816 40.0968 18.6013 40.8434 18.172C41.6088 17.7427 42.4301 17.0147 43.3074 15.988H44.2594C43.2514 17.5933 42.1221 18.8627 40.8714 19.796C39.6394 20.7107 38.2021 21.168 36.5594 21.168ZM48.5154 21.112C47.1341 21.112 46.0421 20.7573 45.2394 20.048C44.4368 19.3387 44.0354 18.2187 44.0354 16.688C44.0354 15.4187 44.2968 14.0093 44.8194 12.46C45.3421 10.9107 46.1821 9.576 47.3394 8.456C48.4968 7.31733 49.9528 6.748 51.7074 6.748C54.0968 6.748 55.2914 8.24133 55.2914 11.228V11.256C55.3474 11.2747 55.4501 11.284 55.5994 11.284C56.2154 11.284 56.9248 11.1253 57.7274 10.808C58.5301 10.472 59.2581 10.0707 59.9114 9.604L60.1634 10.36C59.6221 10.9387 58.9128 11.4333 58.0354 11.844C57.1768 12.236 56.2341 12.516 55.2074 12.684C55.0581 14.3827 54.6754 15.8667 54.0594 17.136C53.4434 18.4053 52.6501 19.3853 51.6794 20.076C50.7088 20.7667 49.6541 21.112 48.5154 21.112ZM49.6354 18.592C50.0834 18.592 50.5314 18.34 50.9794 17.836C51.4274 17.3133 51.8194 16.6133 52.1554 15.736C52.4914 14.84 52.7341 13.8507 52.8834 12.768C52.3794 12.656 52.1274 12.264 52.1274 11.592C52.1274 10.8267 52.4168 10.3227 52.9954 10.08C52.9581 9.464 52.8648 9.044 52.7154 8.82C52.5661 8.57733 52.3048 8.456 51.9314 8.456C51.3154 8.456 50.7181 8.904 50.1394 9.8C49.5608 10.696 49.0941 11.7693 48.7394 13.02C48.3848 14.2707 48.2074 15.372 48.2074 16.324C48.2074 17.22 48.3101 17.8267 48.5154 18.144C48.7208 18.4427 49.0941 18.592 49.6354 18.592ZM59.9801 5.964H64.0121L63.5641 8.064C64.4974 7.26133 65.5894 6.86 66.8401 6.86C67.8854 6.86 68.7161 7.20533 69.3321 7.896C69.9481 8.58667 70.2561 9.716 70.2561 11.284C70.2561 12.7587 70.0414 14.252 69.6121 15.764C69.1828 17.2573 68.4548 18.536 67.4281 19.6C66.4014 20.6453 65.0481 21.168 63.3681 21.168C62.1734 21.168 61.3801 20.832 60.9881 20.16L59.5321 26.992L55.3041 28L59.9801 5.964ZM62.5001 18.732C63.3961 18.732 64.1334 18.312 64.7121 17.472C65.3094 16.632 65.7388 15.6333 66.0001 14.476C66.2801 13.3 66.4201 12.208 66.4201 11.2C66.4201 9.65067 65.9534 8.876 65.0201 8.876C64.6841 8.876 64.3388 8.99733 63.9841 9.24C63.6481 9.48267 63.3494 9.81867 63.0881 10.248L61.4361 18.088C61.5854 18.5173 61.9401 18.732 62.5001 18.732ZM76.0738 21.168C74.6924 21.168 73.6191 20.8133 72.8538 20.104C72.0884 19.376 71.7058 18.2467 71.7058 16.716C71.7058 15.428 71.9578 14.0093 72.4618 12.46C72.9844 10.9107 73.8058 9.576 74.9258 8.456C76.0644 7.31733 77.5018 6.748 79.2378 6.748C80.3578 6.748 81.1511 6.99067 81.6178 7.476C82.1031 7.96133 82.3458 8.57733 82.3458 9.324C82.3458 9.97733 82.2058 10.4813 81.9258 10.836C81.6458 11.1907 81.2911 11.368 80.8618 11.368C80.5444 11.368 80.2178 11.256 79.8818 11.032C80.1058 10.416 80.2178 9.86533 80.2178 9.38C80.2178 9.02533 80.1524 8.74533 80.0218 8.54C79.8911 8.33467 79.6951 8.232 79.4338 8.232C78.8738 8.232 78.3138 8.68933 77.7538 9.604C77.1938 10.5187 76.7364 11.6293 76.3818 12.936C76.0271 14.2427 75.8498 15.4187 75.8498 16.464C75.8498 17.3787 76.0084 18.004 76.3258 18.34C76.6431 18.6573 77.1564 18.816 77.8658 18.816C78.8738 18.816 79.7324 18.5827 80.4418 18.116C81.1698 17.6493 81.9631 16.94 82.8218 15.988H83.7738C81.7018 19.4413 79.1351 21.168 76.0738 21.168ZM94.0439 21.168C92.9239 21.168 92.0745 20.8973 91.4959 20.356C90.9359 19.796 90.6559 19.0307 90.6559 18.06C90.6559 17.7987 90.7212 17.276 90.8519 16.492C90.9452 16.0253 90.9919 15.6613 90.9919 15.4C90.9919 14.504 90.6372 14.056 89.9279 14.056C89.6852 14.056 89.4519 14.1307 89.2279 14.28C89.0225 14.4107 88.6585 14.6813 88.1359 15.092L86.9039 21H82.8719L85.8679 7H89.8999L88.6959 12.544C89.9652 11.0507 90.9732 9.912 91.7199 9.128C92.4665 8.344 93.1479 7.756 93.7639 7.364C94.3985 6.95333 95.0145 6.748 95.6119 6.748C96.7692 6.748 97.3479 7.364 97.3479 8.596C97.3479 9.156 97.1892 9.604 96.8719 9.94C96.5732 10.2573 96.1439 10.416 95.5839 10.416C95.0612 10.416 94.6692 10.276 94.4079 9.996C94.1465 9.69733 94.0252 9.36133 94.0439 8.988C93.6892 9.212 93.3719 9.464 93.0919 9.744C92.8119 10.024 92.5039 10.388 92.1679 10.836C91.7759 11.3587 91.3932 11.8067 91.0199 12.18C91.3932 12.1053 91.7852 12.068 92.1959 12.068C93.1665 12.068 93.8479 12.2827 94.2399 12.712C94.6505 13.1413 94.8559 13.7947 94.8559 14.672C94.8559 14.9333 94.7999 15.3627 94.6879 15.96C94.5759 16.5947 94.5199 17.08 94.5199 17.416C94.5199 18.1067 94.8932 18.452 95.6399 18.452C96.1625 18.452 96.5732 18.2747 96.8719 17.92C97.1892 17.5653 97.5532 16.9213 97.9639 15.988H99.1399C97.9639 19.4413 96.2652 21.168 94.0439 21.168ZM103.171 21.112C101.79 21.112 100.698 20.7573 99.8952 20.048C99.0925 19.3387 98.6912 18.2187 98.6912 16.688C98.6912 15.4187 98.9525 14.0093 99.4752 12.46C99.9979 10.9107 100.838 9.576 101.995 8.456C103.153 7.31733 104.609 6.748 106.363 6.748C108.753 6.748 109.947 8.24133 109.947 11.228V11.256C110.003 11.2747 110.106 11.284 110.255 11.284C110.871 11.284 111.581 11.1253 112.383 10.808C113.186 10.472 113.914 10.0707 114.567 9.604L114.819 10.36C114.278 10.9387 113.569 11.4333 112.691 11.844C111.833 12.236 110.89 12.516 109.863 12.684C109.714 14.3827 109.331 15.8667 108.715 17.136C108.099 18.4053 107.306 19.3853 106.335 20.076C105.365 20.7667 104.31 21.112 103.171 21.112ZM104.291 18.592C104.739 18.592 105.187 18.34 105.635 17.836C106.083 17.3133 106.475 16.6133 106.811 15.736C107.147 14.84 107.39 13.8507 107.539 12.768C107.035 12.656 106.783 12.264 106.783 11.592C106.783 10.8267 107.073 10.3227 107.651 10.08C107.614 9.464 107.521 9.044 107.371 8.82C107.222 8.57733 106.961 8.456 106.587 8.456C105.971 8.456 105.374 8.904 104.795 9.8C104.217 10.696 103.75 11.7693 103.395 13.02C103.041 14.2707 102.863 15.372 102.863 16.324C102.863 17.22 102.966 17.8267 103.171 18.144C103.377 18.4427 103.75 18.592 104.291 18.592ZM116.456 21.168C115.093 21.168 114.029 20.8133 113.264 20.104C112.499 19.376 112.116 18.2467 112.116 16.716C112.116 15.428 112.368 14.0093 112.872 12.46C113.376 10.9107 114.197 9.576 115.336 8.456C116.475 7.31733 117.921 6.748 119.676 6.748C121.729 6.748 122.756 7.644 122.756 9.436C122.756 10.4813 122.457 11.4427 121.86 12.32C121.263 13.1973 120.469 13.9067 119.48 14.448C118.491 14.9707 117.436 15.2693 116.316 15.344C116.279 15.7547 116.26 16.0347 116.26 16.184C116.26 17.7333 116.839 18.508 117.996 18.508C118.519 18.508 119.079 18.368 119.676 18.088C120.273 17.808 120.815 17.4533 121.3 17.024C120.796 19.7867 119.181 21.168 116.456 21.168ZM116.512 14C117.221 13.9813 117.884 13.748 118.5 13.3C119.135 12.852 119.639 12.2827 120.012 11.592C120.404 10.8827 120.6 10.1453 120.6 9.38C120.6 8.61467 120.367 8.232 119.9 8.232C119.247 8.232 118.593 8.82933 117.94 10.024C117.305 11.2 116.829 12.5253 116.512 14Z" fill="white"/>
<path d="M2.2102 20.552L2.09845 20.7179L2.10239 20.7205L2.2102 20.552ZM1.4822 15.904L1.33272 15.7711L1.3324 15.7715L1.4822 15.904ZM4.6742 15.876L4.77642 16.0479L4.96064 15.9384L4.83864 15.7622L4.6742 15.876ZM4.1982 19.264L4.0566 19.4056L4.06402 19.4123L4.1982 19.264ZM7.9782 18.956L7.84365 18.808L7.84141 18.8101L7.9782 18.956ZM9.3502 16.8L9.16166 16.7332L9.16087 16.7355L9.3502 16.8ZM9.0142 11.312L8.87038 11.451L8.87278 11.4534L9.0142 11.312ZM5.4302 10.472L5.23472 10.4297L5.18234 10.672H5.4302V10.472ZM5.8782 8.4V8.2H5.71682L5.68272 8.35773L5.8782 8.4ZM8.9582 7.7L8.83506 7.54238L8.83265 7.54432L8.9582 7.7ZM10.3022 5.992L10.1205 5.90849L10.1194 5.91077L10.3022 5.992ZM10.2182 2.464L10.0733 2.60197L10.0768 2.60542L10.2182 2.464ZM4.3102 5.096L4.23046 5.27941L4.40251 5.35422L4.48815 5.18729L4.3102 5.096ZM3.6662 4.816L3.47217 4.76749L3.43108 4.93186L3.58646 4.99941L3.6662 4.816ZM5.9902 1.26L6.10418 1.42434L6.10472 1.42397L5.9902 1.26ZM13.7462 1.176L13.6099 1.32232L13.7462 1.176ZM13.8582 7.364L13.7059 7.23438L13.7057 7.23466L13.8582 7.364ZM10.7782 9.324L10.7142 9.13453L10.1074 9.33965L10.7231 9.51625L10.7782 9.324ZM13.3542 17.752L13.1832 17.6483L13.1827 17.6491L13.3542 17.752ZM10.4142 20.44L10.3217 20.2627L10.3206 20.2632L10.4142 20.44ZM5.9622 21.248C4.41726 21.248 3.20842 20.9534 2.31801 20.3835L2.10239 20.7205C3.07865 21.3453 4.37114 21.648 5.9622 21.648V21.248ZM2.32192 20.3861C1.46666 19.8101 1.0382 18.9787 1.0382 17.864H0.638202C0.638202 19.1013 1.12441 20.0619 2.09848 20.7179L2.32192 20.3861ZM1.0382 17.864C1.0382 17.078 1.24295 16.4763 1.632 16.0365L1.3324 15.7715C0.862785 16.3024 0.638202 17.0073 0.638202 17.864H1.0382ZM1.63168 16.0369C2.03955 15.578 2.56263 15.348 3.2182 15.348V14.948C2.4551 14.948 1.82085 15.222 1.33272 15.7711L1.63168 16.0369ZM3.2182 15.348C3.79306 15.348 4.21431 15.5631 4.50976 15.9898L4.83864 15.7622C4.46209 15.2183 3.91268 14.948 3.2182 14.948V15.348ZM4.57199 15.7041C3.80991 16.1572 3.4382 16.9016 3.4382 17.892H3.8382C3.8382 17.0157 4.15716 16.4161 4.77642 16.0479L4.57199 15.7041ZM3.4382 17.892C3.4382 18.4849 3.64489 18.9935 4.05678 19.4054L4.33962 19.1226C4.00485 18.7878 3.8382 18.3818 3.8382 17.892H3.4382ZM4.06402 19.4123C4.50382 19.8102 5.10849 19.996 5.8502 19.996V19.596C5.17324 19.596 4.67658 19.4271 4.33239 19.1157L4.06402 19.4123ZM5.8502 19.996C6.72217 19.996 7.48046 19.6968 8.11499 19.1019L7.84141 18.8101C7.28128 19.3352 6.6209 19.596 5.8502 19.596V19.996ZM8.11274 19.104C8.75652 18.5187 9.23122 17.7701 9.53953 16.8645L9.16087 16.7355C8.87185 17.5845 8.43189 18.2733 7.84367 18.808L8.11274 19.104ZM9.53873 16.8668C9.86396 15.9485 10.0262 14.9831 10.0262 13.972H9.6262C9.6262 14.9395 9.47111 15.8595 9.16168 16.7332L9.53873 16.8668ZM10.0262 13.972C10.0262 12.718 9.75182 11.7668 9.15562 11.1706L8.87278 11.4534C9.35925 11.9399 9.6262 12.762 9.6262 13.972H10.0262ZM9.158 11.173C8.56682 10.5614 7.70399 10.272 6.6062 10.272V10.672C7.63642 10.672 8.37892 10.9426 8.8704 11.451L9.158 11.173ZM6.6062 10.272H5.4302V10.672H6.6062V10.272ZM5.62569 10.5143L6.07369 8.44227L5.68272 8.35773L5.23472 10.4297L5.62569 10.5143ZM5.8782 8.6H6.8862V8.2H5.8782V8.6ZM6.8862 8.6C7.73065 8.6 8.4666 8.35338 9.08375 7.85568L8.83265 7.54432C8.29247 7.97995 7.64709 8.2 6.8862 8.2V8.6ZM9.08133 7.8576C9.70368 7.3714 10.1726 6.77613 10.485 6.07323L10.1194 5.91077C9.83451 6.55187 9.40739 7.09527 8.83507 7.54239L9.08133 7.8576ZM10.4839 6.0755C10.8101 5.36553 10.9782 4.69288 10.9782 4.06H10.5782C10.5782 4.62178 10.4289 5.23713 10.1205 5.9085L10.4839 6.0755ZM10.9782 4.06C10.9782 3.33329 10.781 2.74394 10.3596 2.32258L10.0768 2.60542C10.4021 2.93073 10.5782 3.40538 10.5782 4.06H10.9782ZM10.363 2.32607C9.94122 1.88317 9.34048 1.676 8.5942 1.676V2.076C9.26659 2.076 9.74852 2.26083 10.0734 2.60193L10.363 2.32607ZM8.5942 1.676C6.73689 1.676 5.25305 2.8201 4.13226 5.0047L4.48815 5.18729C5.57002 3.07857 6.94218 2.076 8.5942 2.076V1.676ZM4.38995 4.91259L3.74595 4.63259L3.58646 4.99941L4.23046 5.27941L4.38995 4.91259ZM3.86023 4.86451C4.24232 3.33616 4.99253 2.19533 6.10418 1.42434L5.87622 1.09566C4.67321 1.93 3.87409 3.15984 3.47217 4.76749L3.86023 4.86451ZM6.10472 1.42397C7.2432 0.62884 8.59275 0.228 10.1622 0.228V-0.172C8.52099 -0.172 7.08921 0.248492 5.87568 1.09603L6.10472 1.42397ZM10.1622 0.228C11.6998 0.228 12.8381 0.603139 13.6099 1.32232L13.8825 1.02968C13.0117 0.218194 11.7606 -0.172 10.1622 -0.172V0.228ZM13.6099 1.32232C14.3851 2.0447 14.7782 3.00616 14.7782 4.228H15.1782C15.1782 2.91117 14.75 1.83797 13.8825 1.02968L13.6099 1.32232ZM14.7782 4.228C14.7782 5.39657 14.42 6.39525 13.7059 7.23438L14.0105 7.49362C14.7897 6.57808 15.1782 5.48609 15.1782 4.228H14.7782ZM13.7057 7.23466C13.0062 8.05962 12.0134 8.69536 10.7142 9.13453L10.8422 9.51347C12.1937 9.05664 13.2542 8.38571 14.0108 7.49334L13.7057 7.23466ZM10.7231 9.51625C11.8967 9.85287 12.7585 10.3999 13.3282 11.1463C13.8977 11.8924 14.1902 12.857 14.1902 14.056H14.5902C14.5902 12.791 14.2807 11.7349 13.6462 10.9036C13.0119 10.0727 12.0677 9.4858 10.8333 9.13175L10.7231 9.51625ZM14.1902 14.056C14.1902 15.3446 13.855 16.5407 13.1832 17.6483L13.5252 17.8557C14.2347 16.6859 14.5902 15.4181 14.5902 14.056H14.1902ZM13.1827 17.6491C12.5317 18.734 11.5808 19.6058 10.3217 20.2627L10.5067 20.6173C11.8236 19.9302 12.8327 19.01 13.5257 17.8549L13.1827 17.6491ZM10.3206 20.2632C9.08496 20.9174 7.6342 21.248 5.9622 21.248V21.648C7.68754 21.648 9.20478 21.3066 10.5078 20.6168L10.3206 20.2632ZM17.6491 20.076L17.5059 20.2156L17.6491 20.076ZM17.3971 12.32L17.2093 12.2513L17.2088 12.2526L17.3971 12.32ZM19.8611 8.456L20.0001 8.59988L20.0001 8.59984L19.8611 8.456ZM25.4891 7.252L25.6038 7.08815L25.4891 7.252ZM26.0491 8.484H25.8491L26.245 8.52464L26.0491 8.484ZM26.3571 7V6.8H26.1944L26.1613 6.95936L26.3571 7ZM30.3891 7L30.5848 7.04143L30.6359 6.8H30.3891V7ZM28.3731 16.52L28.5666 16.5716L28.5688 16.5614L28.3731 16.52ZM30.7531 17.892L30.5975 17.7663L30.5946 17.7701L30.7531 17.892ZM31.6771 15.988V15.788H31.5263L31.4848 15.9331L31.6771 15.988ZM32.8531 15.988L33.0423 16.0528L33.1331 15.788H32.8531V15.988ZM30.2771 20.104L30.3922 20.2676L30.3928 20.2671L30.2771 20.104ZM25.3211 20.524L25.1825 20.6684L25.1886 20.6738L25.3211 20.524ZM24.4811 18.592L24.6799 18.5699L24.6218 18.0468L24.3179 18.4765L24.4811 18.592ZM22.6611 20.468L22.7774 20.6307L22.7782 20.6301L22.6611 20.468ZM23.5011 17.808L23.6395 17.9524L23.6396 17.9523L23.5011 17.808ZM24.4531 15.988L24.6485 16.0309L24.6488 16.0296L24.4531 15.988ZM25.7971 9.66L25.9928 9.70155L25.9971 9.681V9.66H25.7971ZM25.5171 8.96L25.3585 9.08204L25.3635 9.08804L25.5171 8.96ZM22.6331 9.912L22.7973 10.0262L22.7985 10.0246L22.6331 9.912ZM21.2331 13.048L21.4259 13.1014L21.4261 13.1006L21.2331 13.048ZM21.1211 18.06L20.9796 18.2015L20.9847 18.2062L21.1211 18.06ZM20.3091 20.968C19.2963 20.968 18.4621 20.6238 17.7924 19.9364L17.5059 20.2156C18.2548 20.9842 19.194 21.368 20.3091 21.368V20.968ZM17.7924 19.9364C17.1346 19.2613 16.7851 18.1839 16.7851 16.66H16.3851C16.3851 18.2347 16.745 19.4347 17.5059 20.2156L17.7924 19.9364ZM16.7851 16.66C16.7851 15.305 17.0506 13.8812 17.5854 12.3874L17.2088 12.2526C16.661 13.7828 16.3851 15.2523 16.3851 16.66H16.7851ZM17.585 12.3887C18.1354 10.8841 18.9409 9.62248 20.0001 8.59988L19.7222 8.31212C18.616 9.38019 17.7788 10.6946 17.2093 12.2513L17.585 12.3887ZM20.0001 8.59984C21.0647 7.57135 22.3217 7.06 23.7811 7.06V6.66C22.2166 6.66 20.8603 7.21265 19.7222 8.31216L20.0001 8.59984ZM23.7811 7.06C24.5305 7.06 25.0507 7.1892 25.3744 7.41585L25.6038 7.08815C25.1809 6.79213 24.5624 6.66 23.7811 6.66V7.06ZM25.3744 7.41585C25.6982 7.64247 25.8491 7.92852 25.8491 8.288H26.2491C26.2491 7.78881 26.0268 7.3842 25.6038 7.08815L25.3744 7.41585ZM25.8491 8.288V8.484H26.2491V8.288H25.8491ZM26.245 8.52464L26.553 7.04064L26.1613 6.95936L25.8533 8.44336L26.245 8.52464ZM26.3571 7.2H30.3891V6.8H26.3571V7.2ZM30.1935 6.95857L28.1775 16.4786L28.5688 16.5614L30.5848 7.04143L30.1935 6.95857ZM28.1799 16.4685C28.1003 16.7668 28.0611 17.0829 28.0611 17.416H28.4611C28.4611 17.1144 28.4966 16.8332 28.5664 16.5715L28.1799 16.4685ZM28.0611 17.416C28.0611 17.8458 28.1634 18.2054 28.4034 18.457C28.645 18.7104 28.9932 18.82 29.4091 18.82V18.42C29.0598 18.42 28.8339 18.3289 28.6929 18.181C28.5502 18.0313 28.4611 17.7888 28.4611 17.416H28.0611ZM29.4091 18.82C30.005 18.82 30.5078 18.539 30.9117 18.0139L30.5946 17.7701C30.2518 18.2157 29.8586 18.42 29.4091 18.42V18.82ZM30.9087 18.0177C31.3219 17.5061 31.6402 16.8452 31.8694 16.0429L31.4848 15.9331C31.2661 16.6988 30.9684 17.3072 30.5976 17.7663L30.9087 18.0177ZM31.6771 16.188H32.8531V15.788H31.6771V16.188ZM32.6639 15.9232C31.9784 17.9243 31.1374 19.2488 30.1615 19.9409L30.3928 20.2671C31.4702 19.5032 32.3466 18.0837 33.0423 16.0528L32.6639 15.9232ZM30.162 19.9404C29.1808 20.6309 28.2029 20.968 27.2251 20.968V21.368C28.3007 21.368 29.3574 20.9958 30.3922 20.2676L30.162 19.9404ZM27.2251 20.968C26.4792 20.968 25.8951 20.7647 25.4537 20.3742L25.1886 20.6738C25.7178 21.142 26.4031 21.368 27.2251 21.368V20.968ZM25.4596 20.3797C25.0359 19.973 24.7697 19.3778 24.6799 18.5699L24.2824 18.6141C24.3793 19.4862 24.673 20.179 25.1826 20.6683L25.4596 20.3797ZM24.3179 18.4765C23.7876 19.2262 23.196 19.835 22.544 20.3059L22.7782 20.6301C23.4703 20.1303 24.092 19.4885 24.6444 18.7075L24.3179 18.4765ZM22.5449 20.3053C21.9301 20.7444 21.1882 20.968 20.3091 20.968V21.368C21.2595 21.368 22.0855 21.1249 22.7774 20.6307L22.5449 20.3053ZM22.1291 18.652C22.6625 18.652 23.1669 18.4053 23.6395 17.9524L23.3628 17.6636C22.9394 18.0693 22.5291 18.252 22.1291 18.252V18.652ZM23.6396 17.9523C24.1404 17.4715 24.4738 16.8266 24.6485 16.0309L24.2578 15.9451C24.0965 16.68 23.7952 17.2485 23.3626 17.6637L23.6396 17.9523ZM24.6488 16.0296L25.9928 9.70155L25.6015 9.61845L24.2575 15.9464L24.6488 16.0296ZM25.9971 9.66C25.9971 9.36158 25.8811 9.08436 25.6708 8.83196L25.3635 9.08804C25.5265 9.28364 25.5971 9.47309 25.5971 9.66H25.9971ZM25.6757 8.83806C25.4409 8.53281 25.0842 8.396 24.6491 8.396V8.796C24.9981 8.796 25.2201 8.90186 25.3586 9.08194L25.6757 8.83806ZM24.6491 8.396C23.811 8.396 23.0855 8.89225 22.4678 9.79944L22.7985 10.0246C23.3755 9.17708 23.9939 8.796 24.6491 8.796V8.396ZM22.469 9.79779C21.8561 10.6788 21.3809 11.7461 21.0402 12.9954L21.4261 13.1006C21.7574 11.8859 22.2155 10.8625 22.7973 10.0262L22.469 9.79779ZM21.0404 12.9946C20.7011 14.2197 20.5291 15.3116 20.5291 16.268H20.9291C20.9291 15.3577 21.0931 14.3029 21.4259 13.1014L21.0404 12.9946ZM20.5291 16.268C20.5291 16.7424 20.5622 17.1407 20.6318 17.4587C20.7005 17.7728 20.8096 18.0313 20.9797 18.2014L21.2626 17.9186C21.1714 17.8274 21.0845 17.6565 21.0225 17.3733C20.9614 17.0939 20.9291 16.727 20.9291 16.268H20.5291ZM20.9847 18.2062C21.3027 18.503 21.6878 18.652 22.1291 18.652V18.252C21.7865 18.252 21.4996 18.1397 21.2576 17.9138L20.9847 18.2062ZM33.3394 20.384L33.2247 20.5479L33.2266 20.5492L33.3394 20.384ZM32.6954 16.212L32.8648 16.3187L32.8691 16.3112L32.6954 16.212ZM33.7874 14.924L33.9107 15.0816L33.9148 15.0782L33.7874 14.924ZM35.4954 13.72L35.392 13.5488L35.3886 13.5509L35.4954 13.72ZM37.4834 12.264L37.6248 12.4054L37.4834 12.264ZM37.8194 9.66L37.6667 9.78919L37.6721 9.79554L37.678 9.80142L37.8194 9.66ZM35.2154 9.996L35.354 10.1402L35.2154 9.996ZM33.8434 12.208V12.408H33.9756L34.0274 12.2864L33.8434 12.208ZM32.4994 12.208L32.3107 12.1418L32.2172 12.408H32.4994V12.208ZM34.8514 8.176L34.9914 8.31882L34.9928 8.31742L34.8514 8.176ZM41.2914 7.532L41.1728 7.69302L41.1748 7.69446L41.2914 7.532ZM41.8794 12.012L41.7051 11.9139V11.9139L41.8794 12.012ZM40.6474 13.496L40.7694 13.6546L40.7731 13.6516L40.6474 13.496ZM38.8274 14.728L38.932 14.8985L38.9322 14.8983L38.8274 14.728ZM37.0354 16.044L37.1732 16.189L37.1768 16.1854L37.0354 16.044ZM40.8434 18.172L40.7456 17.9976L40.7437 17.9986L40.8434 18.172ZM43.3074 15.988V15.788H43.2153L43.1554 15.8581L43.3074 15.988ZM44.2594 15.988L44.4288 16.0944L44.6212 15.788H44.2594V15.988ZM40.8714 19.796L40.9906 19.9566L40.991 19.9563L40.8714 19.796ZM36.5594 20.968C35.1997 20.968 34.1717 20.7102 33.4522 20.2188L33.2266 20.5492C34.0378 21.1031 35.1565 21.368 36.5594 21.368V20.968ZM33.4541 20.2202C32.7704 19.7416 32.4194 19.0153 32.4194 18.004H32.0194C32.0194 19.1207 32.4151 19.9811 33.2247 20.5478L33.4541 20.2202ZM32.4194 18.004C32.4194 17.3449 32.5705 16.7858 32.8647 16.3186L32.5262 16.1054C32.1857 16.6462 32.0194 17.2818 32.0194 18.004H32.4194ZM32.8691 16.3112C33.1562 15.8087 33.5038 15.3999 33.9107 15.0815L33.6642 14.7665C33.2124 15.1201 32.832 15.5699 32.5218 16.1128L32.8691 16.3112ZM33.9148 15.0782C34.3352 14.7309 34.8969 14.3346 35.6022 13.8891L35.3886 13.5509C34.6753 14.0014 34.0983 14.4078 33.66 14.7698L33.9148 15.0782ZM35.5988 13.8912C36.5003 13.3466 37.1788 12.8515 37.6248 12.4054L37.342 12.1226C36.9294 12.5352 36.2826 13.0108 35.392 13.5488L35.5988 13.8912ZM37.6248 12.4054C38.1116 11.9186 38.3554 11.3165 38.3554 10.612H37.9554C37.9554 11.2141 37.7512 11.7134 37.342 12.1226L37.6248 12.4054ZM38.3554 10.612C38.3554 10.1647 38.2325 9.79028 37.9608 9.51858L37.678 9.80142C37.8543 9.97772 37.9554 10.238 37.9554 10.612H38.3554ZM37.9721 9.53081C37.7166 9.2289 37.3338 9.096 36.8674 9.096V9.496C37.2597 9.496 37.5115 9.60576 37.6667 9.78919L37.9721 9.53081ZM36.8674 9.096C36.1947 9.096 35.5956 9.35299 35.0768 9.85183L35.354 10.1402C35.8059 9.70568 36.3081 9.496 36.8674 9.496V9.096ZM35.0768 9.85183C34.5637 10.3452 34.0935 11.1105 33.6594 12.1296L34.0274 12.2864C34.452 11.2895 34.8965 10.5801 35.354 10.1402L35.0768 9.85183ZM33.8434 12.008H32.4994V12.408H33.8434V12.008ZM32.6881 12.2742C33.2977 10.5378 34.0682 9.22394 34.9914 8.31881L34.7114 8.03318C33.7306 8.99472 32.9331 10.3689 32.3107 12.1418L32.6881 12.2742ZM34.9928 8.31742C35.9016 7.40864 37.0985 6.948 38.6034 6.948V6.548C37.0097 6.548 35.7052 7.03935 34.71 8.03458L34.9928 8.31742ZM38.6034 6.948C39.6533 6.948 40.505 7.201 41.1728 7.69301L41.4101 7.37099C40.6591 6.81767 39.7188 6.548 38.6034 6.548V6.948ZM41.1748 7.69446C41.8402 8.17222 42.1834 8.8987 42.1834 9.912H42.5834C42.5834 8.79729 42.1986 7.93711 41.4081 7.36953L41.1748 7.69446ZM42.1834 9.912C42.1834 10.6862 42.0216 11.3513 41.7051 11.9139L42.0537 12.1101C42.4093 11.478 42.5834 10.7431 42.5834 9.912H42.1834ZM41.7051 11.9139C41.3803 12.4914 40.9855 12.9658 40.5218 13.3404L40.7731 13.6516C41.28 13.2422 41.7065 12.7273 42.0537 12.1101L41.7051 11.9139ZM40.5255 13.3375C40.0473 13.7053 39.4468 14.112 38.7226 14.5577L38.9322 14.8983C39.664 14.448 40.2769 14.0334 40.7694 13.6545L40.5255 13.3375ZM38.7228 14.5575C37.8972 15.0642 37.284 15.5126 36.894 15.9026L37.1768 16.1854C37.5335 15.8288 38.115 15.3998 38.932 14.8985L38.7228 14.5575ZM36.8977 15.899C36.4856 16.2905 36.2754 16.7718 36.2754 17.332H36.6754C36.6754 16.8842 36.8386 16.5068 37.1732 16.189L36.8977 15.899ZM36.2754 17.332C36.2754 17.8758 36.4606 18.3125 36.8528 18.6053C37.2339 18.8898 37.7817 19.016 38.4634 19.016V18.616C37.8198 18.616 37.3736 18.4949 37.0921 18.2847C36.8215 18.0828 36.6754 17.7775 36.6754 17.332H36.2754ZM38.4634 19.016C39.3393 19.016 40.1669 18.7917 40.9431 18.3454L40.7437 17.9986C40.0266 18.411 39.2675 18.616 38.4634 18.616V19.016ZM40.9413 18.3464C41.7351 17.9011 42.5742 17.1539 43.4595 16.1179L43.1554 15.8581C42.286 16.8754 41.4824 17.5842 40.7456 17.9976L40.9413 18.3464ZM43.3074 16.188H44.2594V15.788H43.3074V16.188ZM44.09 15.8816C43.0924 17.4704 41.979 18.7199 40.7518 19.6357L40.991 19.9563C42.2652 19.0054 43.4104 17.7162 44.4288 16.0944L44.09 15.8816ZM40.7522 19.6354C39.5572 20.5226 38.1624 20.968 36.5594 20.968V21.368C38.2418 21.368 39.7217 20.8987 40.9906 19.9566L40.7522 19.6354ZM45.2394 20.048L45.107 20.1979L45.2394 20.048ZM44.8194 12.46L45.0089 12.5239L44.8194 12.46ZM47.3394 8.456L47.4785 8.59972L47.4797 8.59857L47.3394 8.456ZM55.2914 11.256H55.0914V11.4002L55.2282 11.4457L55.2914 11.256ZM57.7274 10.808L57.801 10.994L57.8046 10.9925L57.7274 10.808ZM59.9114 9.604L60.1012 9.54075L60.0155 9.28386L59.7952 9.44125L59.9114 9.604ZM60.1634 10.36L60.3095 10.4966L60.3908 10.4097L60.3532 10.2968L60.1634 10.36ZM58.0354 11.844L58.1185 12.0259L58.1202 12.0251L58.0354 11.844ZM55.2074 12.684L55.1751 12.4866L55.0218 12.5117L55.0082 12.6665L55.2074 12.684ZM54.0594 17.136L53.8795 17.0487L54.0594 17.136ZM51.6794 20.076L51.5635 19.913L51.6794 20.076ZM50.9794 17.836L51.1289 17.9689L51.1313 17.9662L50.9794 17.836ZM52.1554 15.736L52.3422 15.8075L52.3427 15.8062L52.1554 15.736ZM52.8834 12.768L53.0815 12.7953L53.1067 12.6127L52.9268 12.5728L52.8834 12.768ZM52.9954 10.08L53.0728 10.2644L53.2036 10.2096L53.1951 10.0679L52.9954 10.08ZM52.7154 8.82L52.545 8.92489L52.549 8.93094L52.7154 8.82ZM50.1394 9.8L50.3074 9.90851V9.9085L50.1394 9.8ZM48.7394 13.02L48.9318 13.0746L48.7394 13.02ZM48.5154 18.144L48.3474 18.2527L48.3506 18.2573L48.5154 18.144ZM48.5154 20.912C47.1684 20.912 46.1284 20.5667 45.3719 19.8981L45.107 20.1979C45.9558 20.948 47.0998 21.312 48.5154 21.312V20.912ZM45.3719 19.8981C44.628 19.2408 44.2354 18.1866 44.2354 16.688H43.8354C43.8354 18.2507 44.2455 19.4366 45.107 20.1979L45.3719 19.8981ZM44.2354 16.688C44.2354 15.4456 44.4913 14.0583 45.0089 12.5239L44.6299 12.3961C44.1022 13.9604 43.8354 15.3917 43.8354 16.688H44.2354ZM45.0089 12.5239C45.5216 11.0044 46.3445 9.69718 47.4785 8.59972L47.2003 8.31228C46.0197 9.45482 45.1626 10.817 44.6299 12.3961L45.0089 12.5239ZM47.4797 8.59857C48.5964 7.49985 50.0006 6.948 51.7074 6.948V6.548C49.9049 6.548 48.3971 7.13481 47.1992 8.31343L47.4797 8.59857ZM51.7074 6.948C52.8579 6.948 53.6892 7.30533 54.2392 7.99294C54.7962 8.68907 55.0914 9.75603 55.0914 11.228H55.4914C55.4914 9.7133 55.1894 8.54026 54.5516 7.74306C53.907 6.93734 52.9462 6.548 51.7074 6.548V6.948ZM55.0914 11.228V11.256H55.4914V11.228H55.0914ZM55.2282 11.4457C55.3187 11.4759 55.4516 11.484 55.5994 11.484V11.084C55.4485 11.084 55.3762 11.0734 55.3547 11.0663L55.2282 11.4457ZM55.5994 11.484C56.2485 11.484 56.9836 11.3171 57.801 10.994L57.6539 10.622C56.8659 10.9335 56.1823 11.084 55.5994 11.084V11.484ZM57.8046 10.9925C58.62 10.6512 59.3612 10.2428 60.0277 9.76675L59.7952 9.44125C59.155 9.89855 58.4402 10.2928 57.6502 10.6235L57.8046 10.9925ZM59.7217 9.66725L59.9737 10.4232L60.3532 10.2968L60.1012 9.54075L59.7217 9.66725ZM60.0174 10.2234C59.4968 10.7798 58.8099 11.2607 57.9506 11.6629L58.1202 12.0251C59.0156 11.606 59.7473 11.0975 60.3095 10.4966L60.0174 10.2234ZM57.9524 11.6621C57.1114 12.046 56.186 12.3212 55.1751 12.4866L55.2397 12.8814C56.2822 12.7108 57.2421 12.426 58.1185 12.0259L57.9524 11.6621ZM55.0082 12.6665C54.8606 14.3458 54.4829 15.8053 53.8795 17.0487L54.2394 17.2233C54.8679 15.928 55.2556 14.4195 55.4067 12.7015L55.0082 12.6665ZM53.8795 17.0487C53.2754 18.2934 52.5022 19.2451 51.5635 19.913L51.7954 20.239C52.798 19.5255 53.6114 18.5173 54.2394 17.2233L53.8795 17.0487ZM51.5635 19.913C50.625 20.5808 49.6105 20.912 48.5154 20.912V21.312C49.6976 21.312 50.7925 20.9525 51.7954 20.239L51.5635 19.913ZM49.6354 18.792C50.1643 18.792 50.6622 18.4939 51.1289 17.9689L50.8299 17.7031C50.4006 18.1861 50.0026 18.392 49.6354 18.392V18.792ZM51.1313 17.9662C51.5985 17.421 52.0008 16.699 52.3422 15.8075L51.9687 15.6645C51.6381 16.5277 51.2563 17.2056 50.8276 17.7058L51.1313 17.9662ZM52.3427 15.8062C52.6846 14.8946 52.9305 13.8906 53.0815 12.7953L52.6853 12.7407C52.5377 13.8107 52.2983 14.7854 51.9682 15.6658L52.3427 15.8062ZM52.9268 12.5728C52.7202 12.5268 52.5789 12.4285 52.4847 12.2818C52.3867 12.1294 52.3274 11.9057 52.3274 11.592H51.9274C51.9274 11.9503 51.9942 12.2586 52.1482 12.4982C52.3059 12.7435 52.5426 12.8972 52.84 12.9632L52.9268 12.5728ZM52.3274 11.592C52.3274 11.2335 52.3953 10.9531 52.5179 10.7396C52.6389 10.5287 52.8205 10.3702 53.0728 10.2644L52.9181 9.89556C52.5917 10.0324 52.3393 10.2473 52.171 10.5404C52.0042 10.8309 51.9274 11.1851 51.9274 11.592H52.3274ZM53.1951 10.0679C53.176 9.75348 53.1424 9.48327 53.0927 9.25961C53.0435 9.0382 52.9759 8.85019 52.8818 8.70906L52.549 8.93094C52.6043 9.01381 52.6581 9.1478 52.7022 9.34639C52.7458 9.54273 52.7775 9.79052 52.7958 10.0921L53.1951 10.0679ZM52.8858 8.71518C52.6888 8.3952 52.3498 8.256 51.9314 8.256V8.656C52.2597 8.656 52.4433 8.75946 52.5451 8.92482L52.8858 8.71518ZM51.9314 8.256C51.2095 8.256 50.56 8.78017 49.9714 9.69149L50.3074 9.9085C50.8762 9.02783 51.4213 8.656 51.9314 8.656V8.256ZM49.9714 9.69149C49.3799 10.6073 48.906 11.6997 48.547 12.9654L48.9318 13.0746C49.2822 11.839 49.7416 10.7847 50.3074 9.90851L49.9714 9.69149ZM48.547 12.9654C48.189 14.2279 48.0074 15.3482 48.0074 16.324H48.4074C48.4074 15.3958 48.5805 14.3135 48.9318 13.0746L48.547 12.9654ZM48.0074 16.324C48.0074 16.7786 48.0334 17.1663 48.0872 17.4844C48.1406 17.7997 48.2237 18.0612 48.3475 18.2526L48.6833 18.0353C48.6019 17.9094 48.5309 17.7089 48.4816 17.4176C48.4328 17.1291 48.4074 16.7654 48.4074 16.324H48.0074ZM48.3506 18.2573C48.6092 18.6334 49.0625 18.792 49.6354 18.792V18.392C49.1257 18.392 48.8323 18.2519 48.6802 18.0307L48.3506 18.2573ZM59.9801 5.964V5.764H59.8181L59.7845 5.92248L59.9801 5.964ZM64.0121 5.964L64.2077 6.00573L64.2593 5.764H64.0121V5.964ZM63.5641 8.064L63.3685 8.02227L63.2447 8.60244L63.6945 8.21564L63.5641 8.064ZM69.3321 7.896L69.4814 7.76288L69.3321 7.896ZM69.6121 15.764L69.8043 15.8193L69.8045 15.8186L69.6121 15.764ZM67.4281 19.6L67.5708 19.7401L67.572 19.7389L67.4281 19.6ZM60.9881 20.16L61.1609 20.0592L60.9003 19.6125L60.7925 20.1183L60.9881 20.16ZM59.5321 26.992L59.5785 27.1865L59.7014 27.1572L59.7277 27.0337L59.5321 26.992ZM55.3041 28L55.1085 27.9585L55.0428 28.2679L55.3505 28.1945L55.3041 28ZM64.7121 17.472L64.5491 17.3561L64.5474 17.3585L64.7121 17.472ZM66.0001 14.476L65.8055 14.4297L65.805 14.4319L66.0001 14.476ZM63.9841 9.24L63.8711 9.07488L63.867 9.07786L63.9841 9.24ZM63.0881 10.248L62.9173 10.144L62.8995 10.1733L62.8924 10.2068L63.0881 10.248ZM61.4361 18.088L61.2404 18.0468L61.2289 18.1012L61.2472 18.1537L61.4361 18.088ZM59.9801 6.164H64.0121V5.764H59.9801V6.164ZM63.8165 5.92227L63.3685 8.02227L63.7597 8.10573L64.2077 6.00573L63.8165 5.92227ZM63.6945 8.21564C64.5909 7.44472 65.6365 7.06 66.8401 7.06V6.66C65.5424 6.66 64.4039 7.07795 63.4337 7.91236L63.6945 8.21564ZM66.8401 7.06C67.8366 7.06 68.6099 7.38676 69.1828 8.02912L69.4814 7.76288C68.8223 7.0239 67.9342 6.66 66.8401 6.66V7.06ZM69.1828 8.02912C69.75 8.665 70.0561 9.73362 70.0561 11.284H70.4561C70.4561 9.69838 70.1462 8.50833 69.4814 7.76288L69.1828 8.02912ZM70.0561 11.284C70.0561 12.739 69.8443 14.214 69.4197 15.7094L69.8045 15.8186C70.2385 14.29 70.4561 12.7783 70.4561 11.284H70.0561ZM69.4199 15.7087C68.9991 17.1723 68.287 18.4218 67.2842 19.4611L67.572 19.7389C68.6225 18.6502 69.3664 17.3423 69.8043 15.8193L69.4199 15.7087ZM67.2854 19.4599C66.302 20.4612 65.003 20.968 63.3681 20.968V21.368C65.0932 21.368 66.5009 20.8295 67.5708 19.7401L67.2854 19.4599ZM63.3681 20.968C62.2036 20.968 61.5003 20.6412 61.1609 20.0592L60.8154 20.2608C61.2599 21.0228 62.1432 21.368 63.3681 21.368V20.968ZM60.7925 20.1183L59.3365 26.9503L59.7277 27.0337L61.1837 20.2017L60.7925 20.1183ZM59.4857 26.7975L55.2577 27.8055L55.3505 28.1945L59.5785 27.1865L59.4857 26.7975ZM55.4998 28.0415L60.1758 6.00552L59.7845 5.92248L55.1085 27.9585L55.4998 28.0415ZM62.5001 18.932C63.4718 18.932 64.2668 18.4709 64.8768 17.5855L64.5474 17.3585C64.0001 18.1531 63.3204 18.532 62.5001 18.532V18.932ZM64.8751 17.5879C65.4899 16.7233 65.9289 15.6994 66.1952 14.5201L65.805 14.4319C65.5486 15.5673 65.129 16.5407 64.5491 17.3561L64.8751 17.5879ZM66.1947 14.5223C66.4776 13.3341 66.6201 12.2263 66.6201 11.2H66.2201C66.2201 12.1897 66.0826 13.2659 65.8055 14.4297L66.1947 14.5223ZM66.6201 11.2C66.6201 10.4118 66.5026 9.78729 66.2414 9.3538C65.9705 8.90408 65.5542 8.676 65.0201 8.676V9.076C65.4194 9.076 65.703 9.23526 65.8988 9.5602C66.1043 9.90137 66.2201 10.4389 66.2201 11.2H66.6201ZM65.0201 8.676C64.6339 8.676 64.2499 8.81584 63.8712 9.07494L64.097 9.40506C64.4277 9.17882 64.7343 9.076 65.0201 9.076V8.676ZM63.867 9.07786C63.5053 9.33908 63.1896 9.69663 62.9173 10.144L63.2589 10.352C63.5093 9.9407 63.7909 9.62625 64.1012 9.40213L63.867 9.07786ZM62.8924 10.2068L61.2404 18.0468L61.6318 18.1292L63.2838 10.2892L62.8924 10.2068ZM61.2472 18.1537C61.3356 18.4078 61.4894 18.6083 61.7105 18.7421C61.9282 18.8739 62.196 18.932 62.5001 18.932V18.532C62.2442 18.532 62.0546 18.4828 61.9177 18.3999C61.7841 18.3191 61.686 18.1975 61.625 18.0223L61.2472 18.1537ZM72.8538 20.104L72.7159 20.2489L72.7178 20.2507L72.8538 20.104ZM72.4618 12.46L72.2722 12.3961L72.2716 12.3981L72.4618 12.46ZM74.9258 8.456L74.7843 8.31458L74.9258 8.456ZM81.6178 7.476L81.4736 7.61465L81.4763 7.61742L81.6178 7.476ZM81.9258 10.836L82.0827 10.9599L81.9258 10.836ZM79.8818 11.032L79.6938 10.9637L79.6401 11.1113L79.7708 11.1984L79.8818 11.032ZM80.0218 8.54L79.853 8.64737L80.0218 8.54ZM77.7538 9.604L77.9243 9.70843L77.7538 9.604ZM76.3818 12.936L76.5748 12.9884L76.3818 12.936ZM76.3258 18.34L76.1803 18.4774L76.1843 18.4814L76.3258 18.34ZM80.4418 18.116L80.3338 17.9476L80.3318 17.9489L80.4418 18.116ZM82.8218 15.988V15.788H82.7328L82.6732 15.854L82.8218 15.988ZM83.7738 15.988L83.9453 16.0909L84.127 15.788H83.7738V15.988ZM76.0738 20.968C74.7261 20.968 73.7074 20.6225 72.9897 19.9573L72.7178 20.2507C73.5308 21.0042 74.6587 21.368 76.0738 21.368V20.968ZM72.9916 19.9591C72.2809 19.2831 71.9058 18.2167 71.9058 16.716H71.5058C71.5058 18.2766 71.8959 19.4689 72.7159 20.2489L72.9916 19.9591ZM71.9058 16.716C71.9058 15.4537 72.1528 14.0563 72.652 12.5219L72.2716 12.3981C71.7627 13.9624 71.5058 15.4023 71.5058 16.716H71.9058ZM72.6513 12.5239C73.1644 11.0028 73.9697 9.69492 75.0672 8.59742L74.7843 8.31458C73.6418 9.45708 72.8044 10.8185 72.2723 12.3961L72.6513 12.5239ZM75.0672 8.59742C76.1652 7.49938 77.5502 6.948 79.2378 6.948V6.548C77.4533 6.548 75.9636 7.13529 74.7843 8.31458L75.0672 8.59742ZM79.2378 6.948C80.3377 6.948 81.0632 7.1878 81.4736 7.61462L81.7619 7.33738C81.239 6.79353 80.3778 6.548 79.2378 6.548V6.948ZM81.4763 7.61742C81.9207 8.06176 82.1458 8.62524 82.1458 9.324H82.5458C82.5458 8.52943 82.2855 7.8609 81.7592 7.33458L81.4763 7.61742ZM82.1458 9.324C82.1458 9.95181 82.0109 10.4054 81.7688 10.7121L82.0827 10.9599C82.4007 10.5572 82.5458 10.0029 82.5458 9.324H82.1458ZM81.7688 10.7121C81.5244 11.0216 81.2263 11.168 80.8618 11.168V11.568C81.3559 11.568 81.7671 11.3597 82.0827 10.9599L81.7688 10.7121ZM80.8618 11.168C80.5934 11.168 80.3048 11.0736 79.9927 10.8656L79.7708 11.1984C80.1308 11.4384 80.4954 11.568 80.8618 11.568V11.168ZM80.0697 11.1003C80.2991 10.4696 80.4178 9.89522 80.4178 9.38H80.0178C80.0178 9.83544 79.9125 10.3624 79.6938 10.9637L80.0697 11.1003ZM80.4178 9.38C80.4178 9.00372 80.3489 8.68155 80.1905 8.43262L79.853 8.64737C79.956 8.80912 80.0178 9.04694 80.0178 9.38H80.4178ZM80.1905 8.43262C80.02 8.16468 79.7574 8.032 79.4338 8.032V8.432C79.6328 8.432 79.7622 8.50465 79.853 8.64737L80.1905 8.43262ZM79.4338 8.032C78.7594 8.032 78.1476 8.57773 77.5832 9.49957L77.9243 9.70843C78.4799 8.80094 78.9881 8.432 79.4338 8.432V8.032ZM77.5832 9.49957C77.0111 10.434 76.5471 11.5632 76.1887 12.8836L76.5748 12.9884C76.9257 11.6955 77.3764 10.6033 77.9243 9.70843L77.5832 9.49957ZM76.1887 12.8836C75.8307 14.2026 75.6498 15.3967 75.6498 16.464H76.0498C76.0498 15.4407 76.2235 14.2827 76.5748 12.9884L76.1887 12.8836ZM75.6498 16.464C75.6498 17.3865 75.8066 18.0816 76.1804 18.4773L76.4712 18.2027C76.2103 17.9264 76.0498 17.3709 76.0498 16.464H75.6498ZM76.1843 18.4814C76.556 18.8531 77.1332 19.016 77.8658 19.016V18.616C77.1797 18.616 76.7302 18.4616 76.4672 18.1986L76.1843 18.4814ZM77.8658 19.016C78.9054 19.016 79.804 18.775 80.5517 18.2831L80.3318 17.9489C79.6609 18.3904 78.8421 18.616 77.8658 18.616V19.016ZM80.5497 18.2844C81.298 17.8047 82.1048 17.0815 82.9703 16.122L82.6732 15.854C81.8214 16.7985 81.0415 17.494 80.3338 17.9476L80.5497 18.2844ZM82.8218 16.188H83.7738V15.788H82.8218V16.188ZM83.6023 15.8851C81.5535 19.2998 79.0429 20.968 76.0738 20.968V21.368C79.2273 21.368 81.8501 19.5829 83.9453 16.0909L83.6023 15.8851ZM91.4959 20.356L91.3544 20.4975L91.3592 20.5021L91.4959 20.356ZM90.8519 16.492L90.6556 16.4528L90.6546 16.4591L90.8519 16.492ZM89.2279 14.28L89.3353 14.4488L89.3388 14.4464L89.2279 14.28ZM88.1359 15.092L88.0123 14.9347L87.955 14.9798L87.9401 15.0512L88.1359 15.092ZM86.9039 21V21.2H87.0665L87.0996 21.0408L86.9039 21ZM82.8719 21L82.6763 20.9581L82.6245 21.2H82.8719V21ZM85.8679 7V6.8H85.7061L85.6723 6.95815L85.8679 7ZM89.8999 7L90.0953 7.04245L90.148 6.8H89.8999V7ZM88.6959 12.544L88.5004 12.5016L88.8483 12.6735L88.6959 12.544ZM91.7199 9.128L91.8647 9.26593L91.7199 9.128ZM93.7639 7.364L93.8712 7.53274L93.8725 7.53191L93.7639 7.364ZM96.8719 9.94L96.7265 9.80267L96.7262 9.80293L96.8719 9.94ZM94.4079 9.996L94.2573 10.1278L94.2617 10.1325L94.4079 9.996ZM94.0439 8.988L94.2436 8.99799L94.2629 8.61314L93.9371 8.8189L94.0439 8.988ZM93.0919 9.744L93.2333 9.88542L93.0919 9.744ZM92.1679 10.836L92.3279 10.956L92.1679 10.836ZM91.0199 12.18L90.8784 12.0386L90.4114 12.5057L91.0591 12.3761L91.0199 12.18ZM94.2399 12.712L94.0921 12.8469L94.0953 12.8502L94.2399 12.712ZM94.6879 15.96L94.4913 15.9231L94.4909 15.9252L94.6879 15.96ZM96.8719 17.92L96.7227 17.7866L96.7189 17.7912L96.8719 17.92ZM97.9639 15.988V15.788H97.8334L97.7808 15.9075L97.9639 15.988ZM99.1399 15.988L99.3292 16.0525L99.4193 15.788H99.1399V15.988ZM94.0439 20.968C92.9536 20.968 92.1612 20.7045 91.6325 20.2099L91.3592 20.5021C91.9879 21.0901 92.8941 21.368 94.0439 21.368V20.968ZM91.6373 20.2146C91.1229 19.7002 90.8559 18.9903 90.8559 18.06H90.4559C90.4559 19.071 90.7488 19.8918 91.3544 20.4974L91.6373 20.2146ZM90.8559 18.06C90.8559 17.818 90.918 17.3118 91.0491 16.5249L90.6546 16.4591C90.5244 17.2402 90.4559 17.7793 90.4559 18.06H90.8559ZM91.048 16.5312C91.1422 16.0603 91.1919 15.6811 91.1919 15.4H90.7919C90.7919 15.6416 90.7482 15.9904 90.6557 16.4528L91.048 16.5312ZM91.1919 15.4C91.1919 14.931 91.0999 14.5423 90.8827 14.2679C90.6583 13.9845 90.3274 13.856 89.9279 13.856V14.256C90.2377 14.256 90.4387 14.3515 90.5691 14.5161C90.7065 14.6897 90.7919 14.973 90.7919 15.4H91.1919ZM89.9279 13.856C89.6414 13.856 89.37 13.9448 89.1169 14.1136L89.3388 14.4464C89.5337 14.3165 89.7289 14.256 89.9279 14.256V13.856ZM89.1205 14.1113C88.9056 14.248 88.5342 14.5247 88.0123 14.9347L88.2594 15.2493C88.7828 14.838 89.1395 14.5733 89.3352 14.4487L89.1205 14.1113ZM87.9401 15.0512L86.7081 20.9592L87.0996 21.0408L88.3316 15.1328L87.9401 15.0512ZM86.9039 20.8H82.8719V21.2H86.9039V20.8ZM83.0674 21.0419L86.0634 7.04185L85.6723 6.95815L82.6763 20.9581L83.0674 21.0419ZM85.8679 7.2H89.8999V6.8H85.8679V7.2ZM89.7044 6.95755L88.5004 12.5016L88.8913 12.5864L90.0953 7.04245L89.7044 6.95755ZM88.8483 12.6735C90.1168 11.1812 91.1219 10.0459 91.8647 9.26593L91.575 8.99007C90.8245 9.77814 89.8136 10.9202 88.5435 12.4145L88.8483 12.6735ZM91.8647 9.26593C92.605 8.48861 93.2738 7.91293 93.8712 7.53273L93.6565 7.19527C93.0219 7.59907 92.3281 8.19939 91.575 8.99007L91.8647 9.26593ZM93.8725 7.53191C94.4834 7.13666 95.0621 6.948 95.6119 6.948V6.548C94.9669 6.548 94.3137 6.77001 93.6552 7.19608L93.8725 7.53191ZM95.6119 6.948C96.1564 6.948 96.5289 7.09232 96.7681 7.34694C97.0095 7.6039 97.1479 8.00782 97.1479 8.596H97.5479C97.5479 7.95218 97.3969 7.4321 97.0596 7.07306C96.7202 6.71168 96.2247 6.548 95.6119 6.548V6.948ZM97.1479 8.596C97.1479 9.11637 97.0016 9.51135 96.7265 9.80268L97.0173 10.0773C97.3768 9.69664 97.5479 9.19563 97.5479 8.596H97.1479ZM96.7262 9.80293C96.4754 10.0694 96.1053 10.216 95.5839 10.216V10.616C96.1824 10.616 96.671 10.4452 97.0175 10.0771L96.7262 9.80293ZM95.5839 10.216C95.0957 10.216 94.7653 10.0859 94.5541 9.85954L94.2617 10.1325C94.5731 10.4661 95.0267 10.616 95.5839 10.616V10.216ZM94.5584 9.8643C94.3289 9.60203 94.2277 9.31607 94.2436 8.99799L93.8441 8.97801C93.8227 9.4066 93.9642 9.79264 94.2573 10.1277L94.5584 9.8643ZM93.9371 8.8189C93.5706 9.05035 93.2415 9.3115 92.9504 9.60258L93.2333 9.88542C93.5022 9.6165 93.8078 9.37365 94.1507 9.1571L93.9371 8.8189ZM92.9504 9.60258C92.6616 9.89138 92.3474 10.2633 92.0079 10.716L92.3279 10.956C92.6603 10.5127 92.9621 10.1566 93.2333 9.88542L92.9504 9.60258ZM92.0079 10.716C91.6203 11.2328 91.2437 11.6733 90.8784 12.0386L91.1613 12.3214C91.5427 11.94 91.9315 11.4845 92.3279 10.956L92.0079 10.716ZM91.0591 12.3761C91.4185 12.3042 91.7973 12.268 92.1959 12.268V11.868C91.773 11.868 91.3679 11.9064 90.9806 11.9839L91.0591 12.3761ZM92.1959 12.268C93.1464 12.268 93.757 12.4797 94.0922 12.8469L94.3876 12.5771C93.9388 12.0856 93.1867 11.868 92.1959 11.868V12.268ZM94.0953 12.8502C94.4566 13.2279 94.6559 13.8219 94.6559 14.672H95.0559C95.0559 13.7674 94.8445 13.0548 94.3844 12.5738L94.0953 12.8502ZM94.6559 14.672C94.6559 14.913 94.6032 15.3263 94.4913 15.9231L94.8844 15.9969C94.9965 15.3991 95.0559 14.9536 95.0559 14.672H94.6559ZM94.4909 15.9252C94.3784 16.563 94.3199 17.0621 94.3199 17.416H94.7199C94.7199 17.0979 94.7734 16.6263 94.8848 15.9948L94.4909 15.9252ZM94.3199 17.416C94.3199 17.7963 94.4234 18.1172 94.6641 18.3398C94.9018 18.5597 95.2394 18.652 95.6399 18.652V18.252C95.2937 18.252 95.0713 18.1716 94.9357 18.0462C94.803 17.9235 94.7199 17.7263 94.7199 17.416H94.3199ZM95.6399 18.652C96.2131 18.652 96.6831 18.4547 97.0248 18.0488L96.7189 17.7912C96.4633 18.0946 96.112 18.252 95.6399 18.252V18.652ZM97.0209 18.0534C97.3608 17.6735 97.7352 17.0043 98.1469 16.0685L97.7808 15.9075C97.3712 16.8384 97.0176 17.4572 96.7228 17.7866L97.0209 18.0534ZM97.9639 16.188H99.1399V15.788H97.9639V16.188ZM98.9505 15.9235C97.7818 19.3555 96.1301 20.968 94.0439 20.968V21.368C96.4002 21.368 98.1459 19.5272 99.3292 16.0525L98.9505 15.9235ZM99.8952 20.048L99.7628 20.1979L99.8952 20.048ZM99.4752 12.46L99.6647 12.5239L99.4752 12.46ZM101.995 8.456L102.134 8.59972L102.135 8.59857L101.995 8.456ZM109.947 11.256H109.747V11.4002L109.884 11.4457L109.947 11.256ZM112.383 10.808L112.457 10.994L112.46 10.9925L112.383 10.808ZM114.567 9.604L114.757 9.54075L114.671 9.28386L114.451 9.44125L114.567 9.604ZM114.819 10.36L114.965 10.4966L115.047 10.4097L115.009 10.2968L114.819 10.36ZM112.691 11.844L112.774 12.0259L112.776 12.0251L112.691 11.844ZM109.863 12.684L109.831 12.4866L109.678 12.5117L109.664 12.6665L109.863 12.684ZM108.715 17.136L108.535 17.0487L108.715 17.136ZM106.335 20.076L106.219 19.913L106.335 20.076ZM105.635 17.836L105.785 17.9689L105.787 17.9662L105.635 17.836ZM106.811 15.736L106.998 15.8075L106.998 15.8062L106.811 15.736ZM107.539 12.768L107.737 12.7953L107.763 12.6127L107.583 12.5728L107.539 12.768ZM107.651 10.08L107.729 10.2644L107.859 10.2096L107.851 10.0679L107.651 10.08ZM107.371 8.82L107.201 8.92489L107.205 8.93094L107.371 8.82ZM104.795 9.8L104.963 9.90851V9.9085L104.795 9.8ZM103.395 13.02L103.588 13.0746L103.395 13.02ZM103.171 18.144L103.003 18.2527L103.006 18.2573L103.171 18.144ZM103.171 20.912C101.824 20.912 100.784 20.5667 100.028 19.8981L99.7628 20.1979C100.612 20.948 101.756 21.312 103.171 21.312V20.912ZM100.028 19.8981C99.2838 19.2408 98.8912 18.1866 98.8912 16.688H98.4912C98.4912 18.2507 98.9013 19.4366 99.7628 20.1979L100.028 19.8981ZM98.8912 16.688C98.8912 15.4456 99.1471 14.0583 99.6647 12.5239L99.2857 12.3961C98.758 13.9604 98.4912 15.3917 98.4912 16.688H98.8912ZM99.6647 12.5239C100.177 11.0044 101 9.69718 102.134 8.59972L101.856 8.31228C100.675 9.45482 99.8184 10.817 99.2857 12.3961L99.6647 12.5239ZM102.135 8.59857C103.252 7.49985 104.656 6.948 106.363 6.948V6.548C104.561 6.548 103.053 7.13481 101.855 8.31343L102.135 8.59857ZM106.363 6.948C107.514 6.948 108.345 7.30533 108.895 7.99294C109.452 8.68907 109.747 9.75603 109.747 11.228H110.147C110.147 9.7133 109.845 8.54026 109.207 7.74306C108.563 6.93734 107.602 6.548 106.363 6.548V6.948ZM109.747 11.228V11.256H110.147V11.228H109.747ZM109.884 11.4457C109.974 11.4759 110.107 11.484 110.255 11.484V11.084C110.104 11.084 110.032 11.0734 110.01 11.0663L109.884 11.4457ZM110.255 11.484C110.904 11.484 111.639 11.3171 112.457 10.994L112.31 10.622C111.522 10.9335 110.838 11.084 110.255 11.084V11.484ZM112.46 10.9925C113.276 10.6512 114.017 10.2428 114.683 9.76675L114.451 9.44125C113.811 9.89855 113.096 10.2928 112.306 10.6235L112.46 10.9925ZM114.377 9.66725L114.629 10.4232L115.009 10.2968L114.757 9.54075L114.377 9.66725ZM114.673 10.2234C114.153 10.7798 113.466 11.2607 112.606 11.6629L112.776 12.0251C113.671 11.606 114.403 11.0975 114.965 10.4966L114.673 10.2234ZM112.608 11.6621C111.767 12.046 110.842 12.3212 109.831 12.4866L109.896 12.8814C110.938 12.7108 111.898 12.426 112.774 12.0259L112.608 11.6621ZM109.664 12.6665C109.516 14.3458 109.139 15.8053 108.535 17.0487L108.895 17.2233C109.524 15.928 109.911 14.4195 110.062 12.7015L109.664 12.6665ZM108.535 17.0487C107.931 18.2934 107.158 19.2451 106.219 19.913L106.451 20.239C107.454 19.5255 108.267 18.5173 108.895 17.2233L108.535 17.0487ZM106.219 19.913C105.281 20.5808 104.266 20.912 103.171 20.912V21.312C104.353 21.312 105.448 20.9525 106.451 20.239L106.219 19.913ZM104.291 18.792C104.82 18.792 105.318 18.4939 105.785 17.9689L105.486 17.7031C105.056 18.1861 104.658 18.392 104.291 18.392V18.792ZM105.787 17.9662C106.254 17.421 106.657 16.699 106.998 15.8075L106.624 15.6645C106.294 16.5277 105.912 17.2056 105.483 17.7058L105.787 17.9662ZM106.998 15.8062C107.34 14.8946 107.586 13.8906 107.737 12.7953L107.341 12.7407C107.193 13.8107 106.954 14.7854 106.624 15.6658L106.998 15.8062ZM107.583 12.5728C107.376 12.5268 107.235 12.4285 107.14 12.2818C107.042 12.1294 106.983 11.9057 106.983 11.592H106.583C106.583 11.9503 106.65 12.2586 106.804 12.4982C106.962 12.7435 107.198 12.8972 107.496 12.9632L107.583 12.5728ZM106.983 11.592C106.983 11.2335 107.051 10.9531 107.174 10.7396C107.295 10.5287 107.476 10.3702 107.729 10.2644L107.574 9.89556C107.247 10.0324 106.995 10.2473 106.827 10.5404C106.66 10.8309 106.583 11.1851 106.583 11.592H106.983ZM107.851 10.0679C107.832 9.75348 107.798 9.48327 107.748 9.25961C107.699 9.0382 107.632 8.85019 107.538 8.70906L107.205 8.93094C107.26 9.01381 107.314 9.1478 107.358 9.34639C107.402 9.54273 107.433 9.79052 107.452 10.0921L107.851 10.0679ZM107.542 8.71518C107.345 8.3952 107.006 8.256 106.587 8.256V8.656C106.915 8.656 107.099 8.75946 107.201 8.92482L107.542 8.71518ZM106.587 8.256C105.865 8.256 105.216 8.78017 104.627 9.69149L104.963 9.9085C105.532 9.02783 106.077 8.656 106.587 8.656V8.256ZM104.627 9.69149C104.036 10.6073 103.562 11.6997 103.203 12.9654L103.588 13.0746C103.938 11.839 104.397 10.7847 104.963 9.90851L104.627 9.69149ZM103.203 12.9654C102.845 14.2279 102.663 15.3482 102.663 16.324H103.063C103.063 15.3958 103.236 14.3135 103.588 13.0746L103.203 12.9654ZM102.663 16.324C102.663 16.7786 102.689 17.1663 102.743 17.4844C102.796 17.7997 102.879 18.0612 103.003 18.2526L103.339 18.0353C103.258 17.9094 103.187 17.7089 103.137 17.4176C103.089 17.1291 103.063 16.7654 103.063 16.324H102.663ZM103.006 18.2573C103.265 18.6334 103.718 18.792 104.291 18.792V18.392C103.781 18.392 103.488 18.2519 103.336 18.0307L103.006 18.2573ZM113.264 20.104L113.126 20.2489L113.128 20.2507L113.264 20.104ZM112.872 12.46L113.062 12.5219L112.872 12.46ZM115.336 8.456L115.476 8.59859L115.477 8.59742L115.336 8.456ZM121.86 12.32L122.025 12.4326L121.86 12.32ZM119.48 14.448L119.573 14.6249L119.576 14.6235L119.48 14.448ZM116.316 15.344L116.303 15.1444L116.132 15.1558L116.117 15.3259L116.316 15.344ZM121.3 17.024L121.497 17.0599L121.6 16.4911L121.167 16.8742L121.3 17.024ZM116.512 14L116.316 13.9579L116.263 14.2066L116.517 14.1999L116.512 14ZM118.5 13.3L118.385 13.1366L118.382 13.1383L118.5 13.3ZM120.012 11.592L119.837 11.4953L119.836 11.4969L120.012 11.592ZM117.94 10.024L117.764 9.92804L117.764 9.92901L117.94 10.024ZM116.456 20.968C115.128 20.968 114.118 20.6229 113.4 19.9573L113.128 20.2507C113.94 21.0037 115.059 21.368 116.456 21.368V20.968ZM113.402 19.9591C112.691 19.2831 112.316 18.2167 112.316 16.716H111.916C111.916 18.2766 112.306 19.4689 113.126 20.2489L113.402 19.9591ZM112.316 16.716C112.316 15.4537 112.563 14.0563 113.062 12.5219L112.682 12.3981C112.173 13.9624 111.916 15.4023 111.916 16.716H112.316ZM113.062 12.5219C113.556 11.0024 114.361 9.69561 115.476 8.59859L115.196 8.31341C114.034 9.45639 113.195 10.8189 112.682 12.3981L113.062 12.5219ZM115.477 8.59742C116.575 7.49981 117.969 6.948 119.676 6.948V6.548C117.873 6.548 116.374 7.13486 115.194 8.31458L115.477 8.59742ZM119.676 6.948C120.678 6.948 121.392 7.16721 121.854 7.57068C122.311 7.96962 122.556 8.57845 122.556 9.436H122.956C122.956 8.50155 122.687 7.76638 122.117 7.26931C121.553 6.77679 120.727 6.548 119.676 6.548V6.948ZM122.556 9.436C122.556 10.4405 122.27 11.3628 121.695 12.2074L122.025 12.4326C122.645 11.5226 122.956 10.5221 122.956 9.436H122.556ZM121.695 12.2074C121.116 13.057 120.347 13.7454 119.384 14.2725L119.576 14.6235C120.591 14.0679 121.409 13.3377 122.025 12.4326L121.695 12.2074ZM119.386 14.2712C118.422 14.7807 117.395 15.0716 116.303 15.1444L116.329 15.5436C117.477 15.467 118.559 15.1607 119.573 14.6248L119.386 14.2712ZM116.117 15.3259C116.079 15.7356 116.06 16.0243 116.06 16.184H116.46C116.46 16.0451 116.478 15.7737 116.515 15.3621L116.117 15.3259ZM116.06 16.184C116.06 16.9778 116.207 17.6095 116.534 18.0467C116.868 18.4948 117.368 18.708 117.996 18.708V18.308C117.466 18.308 117.098 18.1339 116.854 17.8073C116.602 17.4698 116.46 16.9396 116.46 16.184H116.06ZM117.996 18.708C118.555 18.708 119.144 18.5584 119.761 18.2691L119.591 17.9069C119.013 18.1776 118.483 18.308 117.996 18.308V18.708ZM119.761 18.2691C120.375 17.9811 120.933 17.616 121.432 17.1738L121.167 16.8742C120.697 17.2907 120.171 17.6349 119.591 17.9069L119.761 18.2691ZM121.103 16.9881C120.857 18.3389 120.343 19.3277 119.581 19.98C118.819 20.6318 117.785 20.968 116.456 20.968V21.368C117.852 21.368 118.988 21.0136 119.841 20.284C120.693 19.555 121.239 18.4718 121.497 17.0599L121.103 16.9881ZM116.517 14.1999C117.27 14.1801 117.971 13.9317 118.618 13.4617L118.382 13.1383C117.796 13.5643 117.172 13.7825 116.507 13.8001L116.517 14.1999ZM118.615 13.4634C119.275 12.9974 119.8 12.4046 120.188 11.6871L119.836 11.4969C119.477 12.1607 118.994 12.7066 118.385 13.1366L118.615 13.4634ZM120.187 11.6887C120.594 10.9516 120.8 10.1812 120.8 9.38H120.4C120.4 10.1095 120.213 10.8137 119.837 11.4953L120.187 11.6887ZM120.8 9.38C120.8 8.98352 120.741 8.65263 120.596 8.41488C120.441 8.16107 120.199 8.032 119.9 8.032V8.432C120.067 8.432 120.176 8.49426 120.254 8.62312C120.342 8.76804 120.4 9.01115 120.4 9.38H120.8ZM119.9 8.032C119.508 8.032 119.135 8.21215 118.785 8.53239C118.436 8.85167 118.097 9.32062 117.764 9.92804L118.115 10.12C118.437 9.53271 118.751 9.10566 119.055 8.82761C119.358 8.55052 119.639 8.432 119.9 8.432V8.032ZM117.764 9.92901C117.119 11.1236 116.637 12.4671 116.316 13.9579L116.707 14.0421C117.021 12.5835 117.491 11.2764 118.116 10.119L117.764 9.92901Z" fill="#A2B084"/>
</svg>
