<svg width="165" height="46" viewBox="0 0 165 46" fill="none" xmlns="http://www.w3.org/2000/svg">
<path d="M2.2238 37.3172C2.60426 34.5677 3.32043 30.8041 4.86466 26.522C6.16271 22.9612 8.28882 17.2368 13.302 11.6702C15.7414 8.98825 19.4789 4.84145 25.902 2.54267C34.9436 -0.680116 42.8661 2.00179 45.4399 2.9258C49.2445 4.27802 55.9138 6.71202 58.5546 12.8195C59.4274 14.8479 60.7031 19.22 59.6736 23.9979C59.6512 24.088 59.6289 24.1556 59.6289 24.2007C59.6065 24.3359 59.5841 24.4036 59.5841 24.4261C59.5617 24.5388 59.6512 24.7641 60.1436 25.3726C60.4345 25.4628 60.7255 25.5529 61.0388 25.6431C61.9788 25.9135 62.8516 26.1164 63.7021 26.2741C63.3664 25.9811 62.8292 25.5755 62.0683 25.2825C61.2626 24.967 60.5241 24.8768 60.0541 24.8768C60.0541 24.8768 60.3898 26.8826 60.3674 28.2574C60.3674 28.2574 60.3898 31.1872 59.2932 33.9367C58.0399 37.0693 54.6605 41.1035 49.7145 43.3797C42.1724 46.8279 34.7421 44.4164 32.9517 43.7628C30.3109 42.8163 26.842 40.9682 23.3059 39.0751C20.9336 37.8131 19.3222 36.8665 16.6814 36.1453C15.1595 35.7397 12.9215 35.1537 10.124 35.4467C6.34175 35.8298 3.54423 37.5652 2 38.7371C2.1119 38.2863 2.17904 37.8131 2.2238 37.3172Z" fill="white" stroke="#A2B084" stroke-width="1.5" stroke-miterlimit="10"/>
<rect x="47.5625" y="9.10684" width="19.4062" height="25.3125" fill="white"/>
<path d="M32.5844 13.1C34.451 13.1 35.9844 13.4583 37.1844 14.175C38.401 14.875 39.2844 15.8083 39.8344 16.975C40.401 18.125 40.6844 19.3833 40.6844 20.75C40.6844 22.45 40.2844 23.95 39.4844 25.25C38.6844 26.5333 37.6177 27.5333 36.2844 28.25C34.9677 28.95 33.5427 29.3 32.0094 29.3C31.3094 29.3 30.5177 29.225 29.6344 29.075C28.7677 28.9417 28.0927 28.7667 27.6094 28.55C27.476 28.4833 27.3844 28.4167 27.3344 28.35C27.301 28.2667 27.276 28.1333 27.2594 27.95L26.9344 24.7C26.9344 24.65 26.976 24.625 27.0594 24.625C27.1594 24.6083 27.2177 24.625 27.2344 24.675C27.701 25.925 28.451 26.9 29.4844 27.6C30.5177 28.3 31.6427 28.65 32.8594 28.65C34.5427 28.65 35.8094 28.0167 36.6594 26.75C37.526 25.4667 37.9594 23.725 37.9594 21.525V21.225H34.7844C33.851 21.225 33.1094 21.4417 32.5594 21.875C32.0094 22.3083 31.7344 22.9083 31.7344 23.675C31.7344 23.7083 31.6844 23.725 31.5844 23.725C31.501 23.725 31.4594 23.7083 31.4594 23.675L31.4844 21.125L31.4594 19.85C31.426 19.25 31.4094 18.775 31.4094 18.425C31.4094 18.3917 31.4594 18.375 31.5594 18.375C31.6594 18.375 31.7094 18.3917 31.7094 18.425C31.726 19.075 32.0094 19.6 32.5594 20C33.126 20.3833 33.8844 20.575 34.8344 20.575H37.9344C37.851 19.1583 37.5677 17.925 37.0844 16.875C36.6177 15.8083 35.9927 14.9917 35.2094 14.425C34.4427 13.8417 33.5677 13.55 32.5844 13.55C31.501 13.55 30.501 13.9 29.5844 14.6C28.6844 15.2833 27.9177 16.325 27.2844 17.725C27.2677 17.775 27.2177 17.7917 27.1344 17.775C27.051 17.7583 27.0094 17.7333 27.0094 17.7L27.3844 14.5C27.4177 14.3 27.451 14.1667 27.4844 14.1C27.5177 14.0333 27.6094 13.9667 27.7594 13.9C29.3094 13.3667 30.9177 13.1 32.5844 13.1ZM53.6994 28.7C53.7494 28.7 53.7744 28.75 53.7744 28.85C53.7744 28.95 53.7494 29 53.6994 29H50.7994C50.6494 29 50.5161 28.9667 50.3994 28.9C50.2994 28.8167 50.1327 28.6167 49.8994 28.3C49.6827 27.9667 49.3411 27.4 48.8744 26.6C48.4411 25.9 48.0994 25.3917 47.8494 25.075C47.5994 24.7417 47.3494 24.5167 47.0994 24.4C46.8494 24.2667 46.5244 24.2 46.1244 24.2H45.9494V26.975C45.9494 27.475 45.9827 27.85 46.0494 28.1C46.1327 28.3333 46.2661 28.4917 46.4494 28.575C46.6494 28.6583 46.9577 28.7 47.3744 28.7C47.4244 28.7 47.4494 28.75 47.4494 28.85C47.4494 28.95 47.4244 29 47.3744 29C46.9244 29 46.5744 28.9917 46.3244 28.975L44.9744 28.95L43.5494 28.975C43.2994 28.9917 42.9411 29 42.4744 29C42.4244 29 42.3994 28.95 42.3994 28.85C42.3994 28.75 42.4244 28.7 42.4744 28.7C42.9077 28.7 43.2244 28.6583 43.4244 28.575C43.6244 28.4917 43.7577 28.3333 43.8244 28.1C43.8911 27.85 43.9244 27.475 43.9244 26.975V21.375C43.9244 20.875 43.8911 20.5083 43.8244 20.275C43.7577 20.025 43.6244 19.8583 43.4244 19.775C43.2244 19.6917 42.9161 19.65 42.4994 19.65C42.4661 19.65 42.4494 19.6 42.4494 19.5C42.4494 19.4 42.4661 19.35 42.4994 19.35C42.9494 19.35 43.2994 19.3583 43.5494 19.375L44.9744 19.4L46.5494 19.375C46.8161 19.3583 47.1911 19.35 47.6744 19.35C47.7077 19.35 47.7244 19.4 47.7244 19.5C47.7244 19.6 47.7077 19.65 47.6744 19.65C47.1744 19.65 46.7994 19.7 46.5494 19.8C46.3161 19.8833 46.1577 20.05 46.0744 20.3C45.9911 20.5333 45.9494 20.9083 45.9494 21.425V23.775L47.2744 23.725C47.4911 23.725 47.6994 23.5917 47.8994 23.325C48.0994 23.0583 48.2744 22.7583 48.4244 22.425C49.0577 21.1583 49.5994 20.2917 50.0494 19.825C50.4994 19.3417 50.9994 19.1 51.5494 19.1C51.9994 19.1 52.3327 19.2083 52.5494 19.425C52.7827 19.625 52.8994 19.8917 52.8994 20.225C52.8994 20.5583 52.7911 20.8333 52.5744 21.05C52.3744 21.2667 52.0827 21.375 51.6994 21.375C51.4827 21.375 51.2411 21.3083 50.9744 21.175C50.9411 21.1583 50.8661 21.125 50.7494 21.075C50.6327 21.025 50.4994 21 50.3494 21C50.1161 21 49.8827 21.1333 49.6494 21.4C49.4327 21.65 49.1827 22.05 48.8994 22.6C48.6327 23.1333 48.3827 23.5167 48.1494 23.75C48.5827 23.8 48.9327 23.9 49.1994 24.05C49.4827 24.2 49.7411 24.425 49.9744 24.725C50.2244 25.0083 50.5577 25.4667 50.9744 26.1C51.0077 26.15 51.1744 26.425 51.4744 26.925C51.7744 27.3917 52.0077 27.7333 52.1744 27.95C52.3411 28.1667 52.5411 28.3417 52.7744 28.475C53.0077 28.6083 53.3161 28.6833 53.6994 28.7ZM59.1025 29.325C58.1025 29.325 57.2192 29.0917 56.4525 28.625C55.6859 28.1417 55.0942 27.5 54.6775 26.7C54.2609 25.8833 54.0525 25 54.0525 24.05C54.0525 22.9667 54.3192 22.05 54.8525 21.3C55.4025 20.5333 56.0942 19.9667 56.9275 19.6C57.7775 19.2167 58.6442 19.025 59.5275 19.025C60.5442 19.025 61.4275 19.2667 62.1775 19.75C62.9442 20.2333 63.5275 20.875 63.9275 21.675C64.3275 22.4583 64.5275 23.3 64.5275 24.2C64.5275 25.2 64.2775 26.0917 63.7775 26.875C63.2942 27.6583 62.6359 28.2667 61.8025 28.7C60.9692 29.1167 60.0692 29.325 59.1025 29.325ZM59.8525 28.825C60.5859 28.825 61.1442 28.5 61.5275 27.85C61.9275 27.2 62.1275 26.25 62.1275 25C62.1275 23.8833 61.9692 22.9083 61.6525 22.075C61.3525 21.2417 60.9359 20.6083 60.4025 20.175C59.8859 19.7417 59.3192 19.525 58.7025 19.525C57.9525 19.525 57.3859 19.8333 57.0025 20.45C56.6192 21.0667 56.4275 21.975 56.4275 23.175C56.4275 24.2583 56.5692 25.2333 56.8525 26.1C57.1525 26.95 57.5609 27.6167 58.0775 28.1C58.6109 28.5833 59.2025 28.825 59.8525 28.825ZM74.8857 27.425C74.9191 27.425 74.9524 27.4583 74.9857 27.525C75.0357 27.5917 75.0441 27.6417 75.0107 27.675C74.4107 28.2417 73.8024 28.6583 73.1857 28.925C72.5691 29.175 71.8941 29.3 71.1607 29.3C70.1274 29.3 69.2357 29.0833 68.4857 28.65C67.7524 28.2 67.1857 27.6083 66.7857 26.875C66.4024 26.125 66.2107 25.325 66.2107 24.475C66.2107 23.4917 66.4524 22.5917 66.9357 21.775C67.4357 20.9583 68.1107 20.3167 68.9607 19.85C69.8274 19.3667 70.7774 19.125 71.8107 19.125C72.7941 19.125 73.5524 19.35 74.0857 19.8C74.6191 20.2333 74.8857 20.8333 74.8857 21.6C74.8857 22.05 74.7941 22.275 74.6107 22.275H73.2357L68.5357 22.325C68.4857 22.675 68.4607 23.05 68.4607 23.45C68.4607 24.9 68.7941 26.0583 69.4607 26.925C70.1441 27.775 71.0857 28.2 72.2857 28.2C72.7191 28.2 73.1607 28.1417 73.6107 28.025C74.0607 27.8917 74.4691 27.7 74.8357 27.45L74.8857 27.425ZM70.9107 19.625C70.3607 19.625 69.8857 19.825 69.4857 20.225C69.0857 20.625 68.8024 21.175 68.6357 21.875L72.5357 21.8C72.5024 21.1167 72.3524 20.5833 72.0857 20.2C71.8191 19.8167 71.4274 19.625 70.9107 19.625ZM76.5617 29C76.5117 29 76.4867 28.95 76.4867 28.85C76.4867 28.75 76.5117 28.7 76.5617 28.7C76.9617 28.7 77.2617 28.65 77.4617 28.55C77.6617 28.45 77.7951 28.2833 77.8617 28.05C77.9284 27.8 77.9617 27.425 77.9617 26.925V21.375C77.9617 20.875 77.9284 20.5083 77.8617 20.275C77.7951 20.025 77.6617 19.8583 77.4617 19.775C77.2784 19.6917 76.9784 19.65 76.5617 19.65C76.5117 19.65 76.4867 19.6 76.4867 19.5C76.4867 19.4 76.5117 19.35 76.5617 19.35C77.0117 19.35 77.3617 19.3583 77.6117 19.375L78.9617 19.4L80.2367 19.375C80.4701 19.3583 80.7867 19.35 81.1867 19.35C81.2367 19.35 81.2617 19.4 81.2617 19.5C81.2617 19.6 81.2367 19.65 81.1867 19.65C80.8367 19.65 80.5784 19.6917 80.4117 19.775C80.2617 19.8583 80.1534 20.025 80.0867 20.275C80.0367 20.5083 80.0117 20.875 80.0117 21.375V26.975C80.0117 27.5083 80.0201 27.8583 80.0367 28.025C80.0701 28.1917 80.1367 28.3 80.2367 28.35C80.3534 28.4 80.5701 28.425 80.8867 28.425H83.2367C83.5701 28.425 83.7867 28.4 83.8867 28.35C84.0034 28.3 84.0784 28.1833 84.1117 28C84.1451 27.8167 84.1617 27.4667 84.1617 26.95V21.375C84.1617 20.875 84.1284 20.5083 84.0617 20.275C83.9951 20.025 83.8617 19.8583 83.6617 19.775C83.4784 19.6917 83.1867 19.65 82.7867 19.65C82.7367 19.65 82.7117 19.6 82.7117 19.5C82.7117 19.4 82.7367 19.35 82.7867 19.35C83.2201 19.35 83.5617 19.3583 83.8117 19.375L85.1367 19.4L86.4117 19.375C86.6617 19.3583 86.9867 19.35 87.3867 19.35C87.4367 19.35 87.4617 19.4 87.4617 19.5C87.4617 19.6 87.4367 19.65 87.3867 19.65C87.0367 19.65 86.7784 19.6917 86.6117 19.775C86.4451 19.8583 86.3284 20.025 86.2617 20.275C86.2117 20.5083 86.1867 20.875 86.1867 21.375V26.975C86.1867 27.5083 86.1951 27.8583 86.2117 28.025C86.2451 28.1917 86.3117 28.3 86.4117 28.35C86.5284 28.4 86.7451 28.425 87.0617 28.425H89.4367C89.7701 28.425 89.9867 28.4 90.0867 28.35C90.2034 28.3 90.2701 28.1917 90.2867 28.025C90.3201 27.8417 90.3367 27.475 90.3367 26.925V21.375C90.3367 20.875 90.3034 20.5083 90.2367 20.275C90.1867 20.025 90.0784 19.8583 89.9117 19.775C89.7617 19.6917 89.5117 19.65 89.1617 19.65C89.1284 19.65 89.1117 19.6 89.1117 19.5C89.1117 19.4 89.1284 19.35 89.1617 19.35C89.5784 19.35 89.8951 19.3583 90.1117 19.375L91.3367 19.4L92.7117 19.375C92.9784 19.3583 93.3534 19.35 93.8367 19.35C93.8701 19.35 93.8867 19.4 93.8867 19.5C93.8867 19.6 93.8701 19.65 93.8367 19.65C93.4034 19.65 93.0867 19.6917 92.8867 19.775C92.6867 19.8583 92.5451 20.025 92.4617 20.275C92.3951 20.5083 92.3617 20.875 92.3617 21.375V26.95C92.3617 27.45 92.3951 27.825 92.4617 28.075C92.5451 28.3083 92.6867 28.475 92.8867 28.575C93.0867 28.6583 93.3951 28.7 93.8117 28.7C93.8451 28.7 93.8617 28.75 93.8617 28.85C93.8617 28.95 93.8451 29 93.8117 29H76.5617ZM106.409 28.7C106.459 28.7 106.484 28.75 106.484 28.85C106.484 28.95 106.459 29 106.409 29H103.509C103.359 29 103.226 28.9667 103.109 28.9C103.009 28.8167 102.843 28.6167 102.609 28.3C102.393 27.9667 102.051 27.4 101.584 26.6C101.151 25.9 100.809 25.3917 100.559 25.075C100.309 24.7417 100.059 24.5167 99.8094 24.4C99.5594 24.2667 99.2344 24.2 98.8344 24.2H98.6594V26.975C98.6594 27.475 98.6927 27.85 98.7594 28.1C98.8427 28.3333 98.976 28.4917 99.1594 28.575C99.3594 28.6583 99.6677 28.7 100.084 28.7C100.134 28.7 100.159 28.75 100.159 28.85C100.159 28.95 100.134 29 100.084 29C99.6344 29 99.2844 28.9917 99.0344 28.975L97.6844 28.95L96.2594 28.975C96.0094 28.9917 95.651 29 95.1844 29C95.1344 29 95.1094 28.95 95.1094 28.85C95.1094 28.75 95.1344 28.7 95.1844 28.7C95.6177 28.7 95.9344 28.6583 96.1344 28.575C96.3344 28.4917 96.4677 28.3333 96.5344 28.1C96.601 27.85 96.6344 27.475 96.6344 26.975V21.375C96.6344 20.875 96.601 20.5083 96.5344 20.275C96.4677 20.025 96.3344 19.8583 96.1344 19.775C95.9344 19.6917 95.626 19.65 95.2094 19.65C95.176 19.65 95.1594 19.6 95.1594 19.5C95.1594 19.4 95.176 19.35 95.2094 19.35C95.6594 19.35 96.0094 19.3583 96.2594 19.375L97.6844 19.4L99.2594 19.375C99.526 19.3583 99.901 19.35 100.384 19.35C100.418 19.35 100.434 19.4 100.434 19.5C100.434 19.6 100.418 19.65 100.384 19.65C99.8844 19.65 99.5094 19.7 99.2594 19.8C99.026 19.8833 98.8677 20.05 98.7844 20.3C98.701 20.5333 98.6594 20.9083 98.6594 21.425V23.775L99.9844 23.725C100.201 23.725 100.409 23.5917 100.609 23.325C100.809 23.0583 100.984 22.7583 101.134 22.425C101.768 21.1583 102.309 20.2917 102.759 19.825C103.209 19.3417 103.709 19.1 104.259 19.1C104.709 19.1 105.043 19.2083 105.259 19.425C105.493 19.625 105.609 19.8917 105.609 20.225C105.609 20.5583 105.501 20.8333 105.284 21.05C105.084 21.2667 104.793 21.375 104.409 21.375C104.193 21.375 103.951 21.3083 103.684 21.175C103.651 21.1583 103.576 21.125 103.459 21.075C103.343 21.025 103.209 21 103.059 21C102.826 21 102.593 21.1333 102.359 21.4C102.143 21.65 101.893 22.05 101.609 22.6C101.343 23.1333 101.093 23.5167 100.859 23.75C101.293 23.8 101.643 23.9 101.909 24.05C102.193 24.2 102.451 24.425 102.684 24.725C102.934 25.0083 103.268 25.4667 103.684 26.1C103.718 26.15 103.884 26.425 104.184 26.925C104.484 27.3917 104.718 27.7333 104.884 27.95C105.051 28.1667 105.251 28.3417 105.484 28.475C105.718 28.6083 106.026 28.6833 106.409 28.7ZM116.827 27.65C116.894 27.65 116.935 27.6917 116.952 27.775C116.969 27.8417 116.944 27.8917 116.877 27.925L114.302 29.15C114.235 29.1833 114.16 29.2 114.077 29.2C113.844 29.2 113.619 29.0667 113.402 28.8C113.185 28.5333 113.035 28.175 112.952 27.725L111.652 28.425C110.685 28.925 109.86 29.175 109.177 29.175C108.644 29.175 108.227 29.0417 107.927 28.775C107.644 28.4917 107.502 28.1083 107.502 27.625C107.502 27.1083 107.685 26.725 108.052 26.475C108.419 26.2083 109.119 25.9 110.152 25.55L112.877 24.625V22.625C112.877 21.6083 112.76 20.8667 112.527 20.4C112.294 19.9167 111.944 19.675 111.477 19.675C110.577 19.675 110.06 20.3333 109.927 21.65C109.844 22.4833 109.419 22.9 108.652 22.9C107.935 22.9 107.577 22.5917 107.577 21.975C107.577 21.5417 107.844 21.1083 108.377 20.675C108.927 20.225 109.585 19.8583 110.352 19.575C111.119 19.275 111.802 19.125 112.402 19.125C113.152 19.125 113.752 19.3583 114.202 19.825C114.669 20.275 114.902 20.9583 114.902 21.875V26.3C114.902 26.8167 114.985 27.2083 115.152 27.475C115.319 27.7417 115.56 27.875 115.877 27.875C116.127 27.875 116.427 27.8 116.777 27.65H116.827ZM112.902 27.325C112.885 27.2583 112.877 27.1333 112.877 26.95V25.025L111.102 25.675C110.669 25.8417 110.36 26.025 110.177 26.225C109.994 26.4083 109.902 26.6417 109.902 26.925C109.902 27.275 110.002 27.55 110.202 27.75C110.402 27.95 110.66 28.05 110.977 28.05C111.327 28.05 111.719 27.9417 112.152 27.725L112.902 27.325Z" fill="#A2B084"/>
<path d="M128.214 9.58184C129.017 9.58184 129.722 9.74984 130.328 10.0858C130.935 10.4218 131.406 10.8838 131.742 11.4718C132.078 12.0505 132.246 12.6992 132.246 13.4178C132.246 14.2205 132.046 14.9578 131.644 15.6298C131.243 16.3018 130.702 16.8338 130.02 17.2258C129.339 17.6085 128.588 17.7998 127.766 17.7998C127.066 17.7998 126.394 17.6365 125.75 17.3098C125.106 16.9832 124.584 16.5212 124.182 15.9238C123.79 15.3172 123.594 14.6172 123.594 13.8238C123.594 12.9932 123.804 12.2558 124.224 11.6118C124.654 10.9585 125.223 10.4592 125.932 10.1138C126.642 9.75917 127.402 9.58184 128.214 9.58184ZM128.256 17.4218C129.274 17.4218 130.058 17.0952 130.608 16.4418C131.159 15.7885 131.434 14.9298 131.434 13.8658C131.434 13.0725 131.276 12.3772 130.958 11.7798C130.641 11.1825 130.198 10.7252 129.628 10.4078C129.068 10.0812 128.424 9.91784 127.696 9.91784C126.959 9.91784 126.343 10.0765 125.848 10.3938C125.354 10.7018 124.985 11.1172 124.742 11.6398C124.5 12.1532 124.378 12.7272 124.378 13.3618C124.378 14.1645 124.556 14.8738 124.91 15.4898C125.265 16.1058 125.736 16.5818 126.324 16.9178C126.922 17.2538 127.566 17.4218 128.256 17.4218ZM130.524 15.7978C130.543 15.7978 130.552 15.8165 130.552 15.8538C130.552 15.8912 130.543 15.9098 130.524 15.9098H129.236C129.152 15.9098 129.003 15.7232 128.788 15.3498C128.583 14.9765 128.298 14.4118 127.934 13.6558C127.738 13.6838 127.538 13.6978 127.332 13.6978V15.1258C127.332 15.3218 127.346 15.4618 127.374 15.5458C127.402 15.6298 127.458 15.6858 127.542 15.7138C127.626 15.7418 127.766 15.7558 127.962 15.7558C127.981 15.7558 127.99 15.7838 127.99 15.8398C127.99 15.8865 127.981 15.9098 127.962 15.9098L126.94 15.8958L125.946 15.9098C125.937 15.9098 125.932 15.8865 125.932 15.8398C125.932 15.7838 125.937 15.7558 125.946 15.7558C126.114 15.7558 126.231 15.7418 126.296 15.7138C126.371 15.6858 126.418 15.6298 126.436 15.5458C126.464 15.4618 126.478 15.3218 126.478 15.1258V12.1158C126.478 11.8545 126.446 11.6865 126.38 11.6118C126.324 11.5372 126.18 11.4998 125.946 11.4998C125.937 11.4998 125.932 11.4718 125.932 11.4158C125.932 11.3598 125.937 11.3318 125.946 11.3318L126.94 11.3458C127.052 11.3458 127.258 11.3365 127.556 11.3178C127.818 11.2992 127.995 11.2898 128.088 11.2898C128.555 11.2898 128.9 11.3692 129.124 11.5278C129.348 11.6772 129.46 11.9152 129.46 12.2418C129.46 12.7738 129.199 13.1705 128.676 13.4318C129.05 14.1972 129.362 14.7478 129.614 15.0838C129.876 15.4198 130.179 15.6578 130.524 15.7978ZM127.332 13.4738C127.407 13.4832 127.51 13.4878 127.64 13.4878C127.976 13.4878 128.214 13.4178 128.354 13.2778C128.494 13.1285 128.564 12.8812 128.564 12.5358C128.564 11.8265 128.331 11.4718 127.864 11.4718C127.715 11.4718 127.603 11.4858 127.528 11.5138C127.463 11.5325 127.412 11.5885 127.374 11.6818C127.346 11.7752 127.332 11.9292 127.332 12.1438V13.4738Z" fill="#A2B084"/>
</svg>
