<svg width="17" height="17" viewBox="0 0 17 17" fill="none" xmlns="http://www.w3.org/2000/svg">
<g clip-path="url(#clip0)">
<path d="M7.03948 9.96052C5.41686 8.3379 5.05048 6.71528 4.96783 6.06517C4.94473 5.88542 5.00659 5.70515 5.13519 5.57745L6.44829 4.26493C6.64145 4.07189 6.67573 3.77105 6.53095 3.5395L4.44024 0.293087C4.28007 0.0366948 3.95118 -0.0558398 3.68081 0.079415L0.324484 1.66012C0.105846 1.76778 -0.0227537 2.00008 0.00207025 2.24252C0.177932 3.91321 0.906294 8.02017 4.94233 12.0565C8.97836 16.0928 13.0847 16.8209 14.7563 16.9968C14.9988 17.0216 15.231 16.893 15.3387 16.6743L16.9194 13.318C17.0542 13.0482 16.9622 12.7202 16.7069 12.5598L13.4605 10.4696C13.2291 10.3247 12.9283 10.3587 12.7351 10.5517L11.4226 11.8648C11.2949 11.9934 11.1146 12.0553 10.9348 12.0322C10.2847 11.9495 8.6621 11.5831 7.03948 9.96052Z" fill="white"/>
<path d="M13.483 9.08621C13.1593 9.08621 12.8968 8.82376 12.8968 8.5C12.8941 6.07299 10.9273 4.10619 8.50027 4.10345C8.17652 4.10345 7.91406 3.84099 7.91406 3.51724C7.91406 3.19348 8.17652 2.93103 8.50027 2.93103C11.5745 2.93442 14.0658 5.42575 14.0692 8.5C14.0692 8.82376 13.8068 9.08621 13.483 9.08621Z" fill="white"/>
<path d="M16.4141 9.08621C16.0903 9.08621 15.8279 8.82375 15.8279 8.5C15.8233 4.45496 12.5453 1.17694 8.50027 1.17241C8.17652 1.17241 7.91406 0.90996 7.91406 0.586207C7.91406 0.262454 8.17652 0 8.50027 0C13.1926 0.00516913 16.9951 3.80772 17.0003 8.5C17.0003 8.65547 16.9385 8.80458 16.8286 8.91451C16.7187 9.02445 16.5695 9.08621 16.4141 9.08621Z" fill="white"/>
</g>
<defs>
<clipPath id="clip0">
<rect width="17" height="17" fill="white"/>
</clipPath>
</defs>
</svg>
