<svg width="159" height="55" viewBox="0 0 159 55" fill="none" xmlns="http://www.w3.org/2000/svg">
<path d="M2.26525 44.0428C2.71617 40.7841 3.56495 36.3234 5.39515 31.2484C6.93358 27.0281 9.45342 20.2437 15.3949 13.6461C18.2861 10.4676 22.7157 5.55284 30.3283 2.82836C41.0443 -0.991255 50.434 2.1873 53.4843 3.28244C57.9935 4.88507 65.8978 7.76982 69.0277 15.0084C70.0622 17.4123 71.5741 22.5942 70.354 28.2568C70.3275 28.3637 70.3009 28.4438 70.3009 28.4972C70.2744 28.6575 70.2479 28.7376 70.2479 28.7643C70.2214 28.8979 70.3275 29.165 70.911 29.8862C71.2558 29.993 71.6006 30.0999 71.972 30.2067C73.086 30.5272 74.1205 30.7676 75.1284 30.9546C74.7305 30.6074 74.0939 30.1266 73.1921 29.7793C72.2372 29.4054 71.3619 29.2985 70.8049 29.2985C70.8049 29.2985 71.2028 31.6758 71.1762 33.3051C71.1762 33.3051 71.2028 36.7775 69.9031 40.0362C68.4177 43.749 64.4125 48.5302 58.5505 51.2279C49.6117 55.3147 40.8055 52.4566 38.6836 51.682C35.5537 50.5602 31.4423 48.3699 27.2514 46.1262C24.4398 44.6304 22.5301 43.5086 19.4002 42.6538C17.5965 42.1731 14.944 41.4786 11.6284 41.8258C7.14578 42.2799 3.8302 44.3366 2 45.7256C2.13262 45.1914 2.2122 44.6304 2.26525 44.0428Z" fill="#A2B084" stroke="white" stroke-width="1.5" stroke-miterlimit="10"/>
<rect x="56" y="13" width="23" height="30" fill="#A2B084"/>
<path d="M153.558 11.85C154.361 11.85 155.065 12.018 155.672 12.354C156.279 12.69 156.75 13.152 157.086 13.74C157.422 14.3187 157.59 14.9673 157.59 15.686C157.59 16.4887 157.389 17.226 156.988 17.898C156.587 18.57 156.045 19.102 155.364 19.494C154.683 19.8767 153.931 20.068 153.11 20.068C152.41 20.068 151.738 19.9047 151.094 19.578C150.45 19.2513 149.927 18.7893 149.526 18.192C149.134 17.5853 148.938 16.8853 148.938 16.092C148.938 15.2613 149.148 14.524 149.568 13.88C149.997 13.2267 150.567 12.7273 151.276 12.382C151.985 12.0273 152.746 11.85 153.558 11.85ZM153.6 19.69C154.617 19.69 155.401 19.3633 155.952 18.71C156.503 18.0567 156.778 17.198 156.778 16.134C156.778 15.3407 156.619 14.6453 156.302 14.048C155.985 13.4507 155.541 12.9933 154.972 12.676C154.412 12.3493 153.768 12.186 153.04 12.186C152.303 12.186 151.687 12.3447 151.192 12.662C150.697 12.97 150.329 13.3853 150.086 13.908C149.843 14.4213 149.722 14.9953 149.722 15.63C149.722 16.4327 149.899 17.142 150.254 17.758C150.609 18.374 151.08 18.85 151.668 19.186C152.265 19.522 152.909 19.69 153.6 19.69ZM155.868 18.066C155.887 18.066 155.896 18.0847 155.896 18.122C155.896 18.1593 155.887 18.178 155.868 18.178H154.58C154.496 18.178 154.347 17.9913 154.132 17.618C153.927 17.2447 153.642 16.68 153.278 15.924C153.082 15.952 152.881 15.966 152.676 15.966V17.394C152.676 17.59 152.69 17.73 152.718 17.814C152.746 17.898 152.802 17.954 152.886 17.982C152.97 18.01 153.11 18.024 153.306 18.024C153.325 18.024 153.334 18.052 153.334 18.108C153.334 18.1547 153.325 18.178 153.306 18.178L152.284 18.164L151.29 18.178C151.281 18.178 151.276 18.1547 151.276 18.108C151.276 18.052 151.281 18.024 151.29 18.024C151.458 18.024 151.575 18.01 151.64 17.982C151.715 17.954 151.761 17.898 151.78 17.814C151.808 17.73 151.822 17.59 151.822 17.394V14.384C151.822 14.1227 151.789 13.9547 151.724 13.88C151.668 13.8053 151.523 13.768 151.29 13.768C151.281 13.768 151.276 13.74 151.276 13.684C151.276 13.628 151.281 13.6 151.29 13.6L152.284 13.614C152.396 13.614 152.601 13.6047 152.9 13.586C153.161 13.5673 153.339 13.558 153.432 13.558C153.899 13.558 154.244 13.6373 154.468 13.796C154.692 13.9453 154.804 14.1833 154.804 14.51C154.804 15.042 154.543 15.4387 154.02 15.7C154.393 16.4653 154.706 17.016 154.958 17.352C155.219 17.688 155.523 17.926 155.868 18.066ZM152.676 15.742C152.751 15.7513 152.853 15.756 152.984 15.756C153.32 15.756 153.558 15.686 153.698 15.546C153.838 15.3967 153.908 15.1493 153.908 14.804C153.908 14.0947 153.675 13.74 153.208 13.74C153.059 13.74 152.947 13.754 152.872 13.782C152.807 13.8007 152.755 13.8567 152.718 13.95C152.69 14.0433 152.676 14.1973 152.676 14.412V15.742Z" fill="white"/>
<path d="M39.108 15.648C41.4973 15.648 43.46 16.1067 44.996 17.024C46.5533 17.92 47.684 19.1147 48.388 20.608C49.1133 22.08 49.476 23.6907 49.476 25.44C49.476 27.616 48.964 29.536 47.94 31.2C46.916 32.8427 45.5507 34.1227 43.844 35.04C42.1587 35.936 40.3347 36.384 38.372 36.384C37.476 36.384 36.4627 36.288 35.332 36.096C34.2227 35.9253 33.3587 35.7013 32.74 35.424C32.5693 35.3387 32.452 35.2533 32.388 35.168C32.3453 35.0613 32.3133 34.8907 32.292 34.656L31.876 30.496C31.876 30.432 31.9293 30.4 32.036 30.4C32.164 30.3787 32.2387 30.4 32.26 30.464C32.8573 32.064 33.8173 33.312 35.14 34.208C36.4627 35.104 37.9027 35.552 39.46 35.552C41.6147 35.552 43.236 34.7413 44.324 33.12C45.4333 31.4773 45.988 29.248 45.988 26.432V26.048H41.924C40.7293 26.048 39.78 26.3253 39.076 26.88C38.372 27.4347 38.02 28.2027 38.02 29.184C38.02 29.2267 37.956 29.248 37.828 29.248C37.7213 29.248 37.668 29.2267 37.668 29.184L37.7 25.92L37.668 24.288C37.6253 23.52 37.604 22.912 37.604 22.464C37.604 22.4213 37.668 22.4 37.796 22.4C37.924 22.4 37.988 22.4213 37.988 22.464C38.0093 23.296 38.372 23.968 39.076 24.48C39.8013 24.9707 40.772 25.216 41.988 25.216H45.956C45.8493 23.4027 45.4867 21.824 44.868 20.48C44.2707 19.1147 43.4707 18.0693 42.468 17.344C41.4867 16.5973 40.3667 16.224 39.108 16.224C37.7213 16.224 36.4413 16.672 35.268 17.568C34.116 18.4427 33.1347 19.776 32.324 21.568C32.3027 21.632 32.2387 21.6533 32.132 21.632C32.0253 21.6107 31.972 21.5787 31.972 21.536L32.452 17.44C32.4947 17.184 32.5373 17.0133 32.58 16.928C32.6227 16.8427 32.74 16.7573 32.932 16.672C34.916 15.9893 36.9747 15.648 39.108 15.648ZM66.1353 35.616C66.1993 35.616 66.2313 35.68 66.2313 35.808C66.2313 35.936 66.1993 36 66.1353 36H62.4233C62.2313 36 62.0606 35.9573 61.9113 35.872C61.7833 35.7653 61.5699 35.5093 61.2713 35.104C60.9939 34.6773 60.5566 33.952 59.9593 32.928C59.4046 32.032 58.9673 31.3813 58.6473 30.976C58.3273 30.5493 58.0073 30.2613 57.6873 30.112C57.3673 29.9413 56.9513 29.856 56.4393 29.856H56.2153V33.408C56.2153 34.048 56.2579 34.528 56.3433 34.848C56.4499 35.1467 56.6206 35.3493 56.8553 35.456C57.1113 35.5627 57.5059 35.616 58.0393 35.616C58.1033 35.616 58.1353 35.68 58.1353 35.808C58.1353 35.936 58.1033 36 58.0393 36C57.4633 36 57.0153 35.9893 56.6953 35.968L54.9673 35.936L53.1432 35.968C52.8233 35.9893 52.3646 36 51.7673 36C51.7033 36 51.6713 35.936 51.6713 35.808C51.6713 35.68 51.7033 35.616 51.7673 35.616C52.3219 35.616 52.7273 35.5627 52.9833 35.456C53.2393 35.3493 53.4099 35.1467 53.4953 34.848C53.5806 34.528 53.6233 34.048 53.6233 33.408V26.24C53.6233 25.6 53.5806 25.1307 53.4953 24.832C53.4099 24.512 53.2393 24.2987 52.9833 24.192C52.7273 24.0853 52.3326 24.032 51.7993 24.032C51.7566 24.032 51.7353 23.968 51.7353 23.84C51.7353 23.712 51.7566 23.648 51.7993 23.648C52.3753 23.648 52.8233 23.6587 53.1432 23.68L54.9673 23.712L56.9833 23.68C57.3246 23.6587 57.8046 23.648 58.4233 23.648C58.4659 23.648 58.4873 23.712 58.4873 23.84C58.4873 23.968 58.4659 24.032 58.4233 24.032C57.7833 24.032 57.3033 24.096 56.9833 24.224C56.6846 24.3307 56.4819 24.544 56.3753 24.864C56.2686 25.1627 56.2153 25.6427 56.2153 26.304V29.312L57.9113 29.248C58.1886 29.248 58.4553 29.0773 58.7113 28.736C58.9673 28.3947 59.1913 28.0107 59.3833 27.584C60.1939 25.9627 60.8873 24.8533 61.4633 24.256C62.0393 23.6373 62.6793 23.328 63.3833 23.328C63.9593 23.328 64.3859 23.4667 64.6633 23.744C64.9619 24 65.1113 24.3413 65.1113 24.768C65.1113 25.1947 64.9726 25.5467 64.6953 25.824C64.4393 26.1013 64.0659 26.24 63.5753 26.24C63.2979 26.24 62.9886 26.1547 62.6473 25.984C62.6046 25.9627 62.5086 25.92 62.3593 25.856C62.2099 25.792 62.0393 25.76 61.8473 25.76C61.5486 25.76 61.2499 25.9307 60.9513 26.272C60.6739 26.592 60.3539 27.104 59.9913 27.808C59.6499 28.4907 59.3299 28.9813 59.0312 29.28C59.5859 29.344 60.0339 29.472 60.3753 29.664C60.7379 29.856 61.0686 30.144 61.3673 30.528C61.6873 30.8907 62.1139 31.4773 62.6473 32.288C62.6899 32.352 62.9033 32.704 63.2873 33.344C63.6713 33.9413 63.9699 34.3787 64.1833 34.656C64.3966 34.9333 64.6526 35.1573 64.9513 35.328C65.2499 35.4987 65.6446 35.5947 66.1353 35.616ZM73.0513 36.416C71.7713 36.416 70.6406 36.1173 69.6593 35.52C68.6779 34.9013 67.9206 34.08 67.3873 33.056C66.8539 32.0107 66.5872 30.88 66.5872 29.664C66.5872 28.2773 66.9286 27.104 67.6113 26.144C68.3153 25.1627 69.2006 24.4373 70.2673 23.968C71.3553 23.4773 72.4646 23.232 73.5953 23.232C74.8966 23.232 76.0273 23.5413 76.9873 24.16C77.9686 24.7787 78.7153 25.6 79.2273 26.624C79.7393 27.6267 79.9953 28.704 79.9953 29.856C79.9953 31.136 79.6753 32.2773 79.0353 33.28C78.4166 34.2827 77.5739 35.0613 76.5073 35.616C75.4406 36.1493 74.2886 36.416 73.0513 36.416ZM74.0113 35.776C74.9499 35.776 75.6646 35.36 76.1553 34.528C76.6673 33.696 76.9233 32.48 76.9233 30.88C76.9233 29.4507 76.7206 28.2027 76.3153 27.136C75.9313 26.0693 75.3979 25.2587 74.7153 24.704C74.0539 24.1493 73.3286 23.872 72.5393 23.872C71.5793 23.872 70.8539 24.2667 70.3633 25.056C69.8726 25.8453 69.6273 27.008 69.6273 28.544C69.6273 29.9307 69.8086 31.1787 70.1713 32.288C70.5553 33.376 71.0779 34.2293 71.7393 34.848C72.4219 35.4667 73.1793 35.776 74.0113 35.776ZM93.2538 33.984C93.2964 33.984 93.3391 34.0267 93.3818 34.112C93.4458 34.1973 93.4564 34.2613 93.4138 34.304C92.6458 35.0293 91.8671 35.5627 91.0778 35.904C90.2884 36.224 89.4244 36.384 88.4858 36.384C87.1631 36.384 86.0218 36.1067 85.0618 35.552C84.1231 34.976 83.3978 34.2187 82.8858 33.28C82.3951 32.32 82.1497 31.296 82.1497 30.208C82.1497 28.9493 82.4591 27.7973 83.0778 26.752C83.7178 25.7067 84.5818 24.8853 85.6698 24.288C86.7791 23.6693 87.9951 23.36 89.3177 23.36C90.5764 23.36 91.5471 23.648 92.2298 24.224C92.9124 24.7787 93.2538 25.5467 93.2538 26.528C93.2538 27.104 93.1364 27.392 92.9018 27.392H91.1418L85.1258 27.456C85.0618 27.904 85.0298 28.384 85.0298 28.896C85.0298 30.752 85.4564 32.2347 86.3098 33.344C87.1844 34.432 88.3898 34.976 89.9258 34.976C90.4804 34.976 91.0458 34.9013 91.6218 34.752C92.1978 34.5813 92.7204 34.336 93.1898 34.016L93.2538 33.984ZM88.1658 24C87.4618 24 86.8538 24.256 86.3418 24.768C85.8298 25.28 85.4671 25.984 85.2538 26.88L90.2458 26.784C90.2031 25.9093 90.0111 25.2267 89.6698 24.736C89.3284 24.2453 88.8271 24 88.1658 24ZM95.399 36C95.335 36 95.303 35.936 95.303 35.808C95.303 35.68 95.335 35.616 95.399 35.616C95.911 35.616 96.295 35.552 96.551 35.424C96.807 35.296 96.9777 35.0827 97.063 34.784C97.1483 34.464 97.191 33.984 97.191 33.344V26.24C97.191 25.6 97.1483 25.1307 97.063 24.832C96.9777 24.512 96.807 24.2987 96.551 24.192C96.3163 24.0853 95.9323 24.032 95.399 24.032C95.335 24.032 95.303 23.968 95.303 23.84C95.303 23.712 95.335 23.648 95.399 23.648C95.975 23.648 96.423 23.6587 96.743 23.68L98.471 23.712L100.103 23.68C100.402 23.6587 100.807 23.648 101.319 23.648C101.383 23.648 101.415 23.712 101.415 23.84C101.415 23.968 101.383 24.032 101.319 24.032C100.871 24.032 100.54 24.0853 100.327 24.192C100.135 24.2987 99.9963 24.512 99.911 24.832C99.847 25.1307 99.815 25.6 99.815 26.24V33.408C99.815 34.0907 99.8257 34.5387 99.847 34.752C99.8897 34.9653 99.975 35.104 100.103 35.168C100.252 35.232 100.53 35.264 100.935 35.264H103.943C104.37 35.264 104.647 35.232 104.775 35.168C104.924 35.104 105.02 34.9547 105.063 34.72C105.106 34.4853 105.127 34.0373 105.127 33.376V26.24C105.127 25.6 105.084 25.1307 104.999 24.832C104.914 24.512 104.743 24.2987 104.487 24.192C104.252 24.0853 103.879 24.032 103.367 24.032C103.303 24.032 103.271 23.968 103.271 23.84C103.271 23.712 103.303 23.648 103.367 23.648C103.922 23.648 104.359 23.6587 104.679 23.68L106.375 23.712L108.007 23.68C108.327 23.6587 108.743 23.648 109.255 23.648C109.319 23.648 109.351 23.712 109.351 23.84C109.351 23.968 109.319 24.032 109.255 24.032C108.807 24.032 108.476 24.0853 108.263 24.192C108.05 24.2987 107.9 24.512 107.815 24.832C107.751 25.1307 107.719 25.6 107.719 26.24V33.408C107.719 34.0907 107.73 34.5387 107.751 34.752C107.794 34.9653 107.879 35.104 108.007 35.168C108.156 35.232 108.434 35.264 108.839 35.264H111.879C112.306 35.264 112.583 35.232 112.711 35.168C112.86 35.104 112.946 34.9653 112.967 34.752C113.01 34.5173 113.031 34.048 113.031 33.344V26.24C113.031 25.6 112.988 25.1307 112.903 24.832C112.839 24.512 112.7 24.2987 112.487 24.192C112.295 24.0853 111.975 24.032 111.527 24.032C111.484 24.032 111.463 23.968 111.463 23.84C111.463 23.712 111.484 23.648 111.527 23.648C112.06 23.648 112.466 23.6587 112.743 23.68L114.311 23.712L116.071 23.68C116.412 23.6587 116.892 23.648 117.511 23.648C117.554 23.648 117.575 23.712 117.575 23.84C117.575 23.968 117.554 24.032 117.511 24.032C116.956 24.032 116.551 24.0853 116.295 24.192C116.039 24.2987 115.858 24.512 115.751 24.832C115.666 25.1307 115.623 25.6 115.623 26.24V33.376C115.623 34.016 115.666 34.496 115.751 34.816C115.858 35.1147 116.039 35.328 116.295 35.456C116.551 35.5627 116.946 35.616 117.479 35.616C117.522 35.616 117.543 35.68 117.543 35.808C117.543 35.936 117.522 36 117.479 36H95.399ZM133.604 35.616C133.668 35.616 133.7 35.68 133.7 35.808C133.7 35.936 133.668 36 133.604 36H129.892C129.7 36 129.529 35.9573 129.38 35.872C129.252 35.7653 129.039 35.5093 128.74 35.104C128.463 34.6773 128.025 33.952 127.428 32.928C126.873 32.032 126.436 31.3813 126.116 30.976C125.796 30.5493 125.476 30.2613 125.156 30.112C124.836 29.9413 124.42 29.856 123.908 29.856H123.684V33.408C123.684 34.048 123.727 34.528 123.812 34.848C123.919 35.1467 124.089 35.3493 124.324 35.456C124.58 35.5627 124.975 35.616 125.508 35.616C125.572 35.616 125.604 35.68 125.604 35.808C125.604 35.936 125.572 36 125.508 36C124.932 36 124.484 35.9893 124.164 35.968L122.436 35.936L120.612 35.968C120.292 35.9893 119.833 36 119.236 36C119.172 36 119.14 35.936 119.14 35.808C119.14 35.68 119.172 35.616 119.236 35.616C119.791 35.616 120.196 35.5627 120.452 35.456C120.708 35.3493 120.879 35.1467 120.964 34.848C121.049 34.528 121.092 34.048 121.092 33.408V26.24C121.092 25.6 121.049 25.1307 120.964 24.832C120.879 24.512 120.708 24.2987 120.452 24.192C120.196 24.0853 119.801 24.032 119.268 24.032C119.225 24.032 119.204 23.968 119.204 23.84C119.204 23.712 119.225 23.648 119.268 23.648C119.844 23.648 120.292 23.6587 120.612 23.68L122.436 23.712L124.452 23.68C124.793 23.6587 125.273 23.648 125.892 23.648C125.935 23.648 125.956 23.712 125.956 23.84C125.956 23.968 125.935 24.032 125.892 24.032C125.252 24.032 124.772 24.096 124.452 24.224C124.153 24.3307 123.951 24.544 123.844 24.864C123.737 25.1627 123.684 25.6427 123.684 26.304V29.312L125.38 29.248C125.657 29.248 125.924 29.0773 126.18 28.736C126.436 28.3947 126.66 28.0107 126.852 27.584C127.663 25.9627 128.356 24.8533 128.932 24.256C129.508 23.6373 130.148 23.328 130.852 23.328C131.428 23.328 131.855 23.4667 132.132 23.744C132.431 24 132.58 24.3413 132.58 24.768C132.58 25.1947 132.441 25.5467 132.164 25.824C131.908 26.1013 131.535 26.24 131.044 26.24C130.767 26.24 130.457 26.1547 130.116 25.984C130.073 25.9627 129.977 25.92 129.828 25.856C129.679 25.792 129.508 25.76 129.316 25.76C129.017 25.76 128.719 25.9307 128.42 26.272C128.143 26.592 127.823 27.104 127.46 27.808C127.119 28.4907 126.799 28.9813 126.5 29.28C127.055 29.344 127.503 29.472 127.844 29.664C128.207 29.856 128.537 30.144 128.836 30.528C129.156 30.8907 129.583 31.4773 130.116 32.288C130.159 32.352 130.372 32.704 130.756 33.344C131.14 33.9413 131.439 34.3787 131.652 34.656C131.865 34.9333 132.121 35.1573 132.42 35.328C132.719 35.4987 133.113 35.5947 133.604 35.616ZM146.939 34.272C147.024 34.272 147.077 34.3253 147.099 34.432C147.12 34.5173 147.088 34.5813 147.003 34.624L143.707 36.192C143.621 36.2347 143.525 36.256 143.419 36.256C143.12 36.256 142.832 36.0853 142.555 35.744C142.277 35.4027 142.085 34.944 141.979 34.368L140.315 35.264C139.077 35.904 138.021 36.224 137.147 36.224C136.464 36.224 135.931 36.0533 135.547 35.712C135.184 35.3493 135.003 34.8587 135.003 34.24C135.003 33.5787 135.237 33.088 135.707 32.768C136.176 32.4267 137.072 32.032 138.395 31.584L141.883 30.4V27.84C141.883 26.5387 141.733 25.5893 141.435 24.992C141.136 24.3733 140.688 24.064 140.091 24.064C138.939 24.064 138.277 24.9067 138.107 26.592C138 27.6587 137.456 28.192 136.475 28.192C135.557 28.192 135.099 27.7973 135.099 27.008C135.099 26.4533 135.44 25.8987 136.123 25.344C136.827 24.768 137.669 24.2987 138.651 23.936C139.632 23.552 140.507 23.36 141.275 23.36C142.235 23.36 143.003 23.6587 143.579 24.256C144.176 24.832 144.475 25.7067 144.475 26.88V32.544C144.475 33.2053 144.581 33.7067 144.795 34.048C145.008 34.3893 145.317 34.56 145.723 34.56C146.043 34.56 146.427 34.464 146.875 34.272H146.939ZM141.915 33.856C141.893 33.7707 141.883 33.6107 141.883 33.376V30.912L139.611 31.744C139.056 31.9573 138.661 32.192 138.427 32.448C138.192 32.6827 138.075 32.9813 138.075 33.344C138.075 33.792 138.203 34.144 138.459 34.4C138.715 34.656 139.045 34.784 139.451 34.784C139.899 34.784 140.4 34.6453 140.955 34.368L141.915 33.856Z" fill="white"/>
</svg>
