<svg width="194" height="55" viewBox="0 0 194 55" fill="none" xmlns="http://www.w3.org/2000/svg">
<g opacity="0.3">
<path d="M2.26525 44.0428C2.71617 40.7841 3.56495 36.3234 5.39515 31.2484C6.93358 27.0281 9.45342 20.2437 15.3949 13.6461C18.2861 10.4676 22.7157 5.55284 30.3283 2.82836C41.0443 -0.991255 50.434 2.1873 53.4843 3.28244C57.9935 4.88507 65.8978 7.76982 69.0277 15.0084C70.0622 17.4123 71.5741 22.5942 70.354 28.2568C70.3275 28.3637 70.3009 28.4438 70.3009 28.4972C70.2744 28.6575 70.2479 28.7376 70.2479 28.7643C70.2214 28.8979 70.3275 29.165 70.911 29.8862C71.2558 29.993 71.6006 30.0999 71.972 30.2067C73.086 30.5272 74.1205 30.7676 75.1284 30.9546C74.7305 30.6074 74.0939 30.1266 73.1921 29.7793C72.2372 29.4054 71.3619 29.2985 70.8049 29.2985C70.8049 29.2985 71.2028 31.6758 71.1762 33.3051C71.1762 33.3051 71.2028 36.7775 69.9031 40.0362C68.4177 43.749 64.4125 48.5302 58.5505 51.2279C49.6117 55.3147 40.8055 52.4566 38.6836 51.682C35.5537 50.5602 31.4423 48.3699 27.2514 46.1262C24.4398 44.6304 22.5301 43.5086 19.4002 42.6538C17.5965 42.1731 14.944 41.4786 11.6284 41.8258C7.14578 42.2799 3.8302 44.3366 2 45.7256C2.13262 45.1914 2.2122 44.6304 2.26525 44.0428Z" fill="white" stroke="#5E5E5E" stroke-width="1.5" stroke-miterlimit="10"/>
<rect x="56" y="10.6084" width="23" height="30" fill="white"/>
<path d="M39.108 13.2564C41.4973 13.2564 43.46 13.7151 44.996 14.6324C46.5533 15.5284 47.684 16.7231 48.388 18.2164C49.1133 19.6884 49.476 21.2991 49.476 23.0484C49.476 25.2244 48.964 27.1444 47.94 28.8084C46.916 30.4511 45.5507 31.7311 43.844 32.6484C42.1587 33.5444 40.3347 33.9924 38.372 33.9924C37.476 33.9924 36.4627 33.8964 35.332 33.7044C34.2227 33.5337 33.3587 33.3097 32.74 33.0324C32.5693 32.9471 32.452 32.8617 32.388 32.7764C32.3453 32.6697 32.3133 32.4991 32.292 32.2644L31.876 28.1044C31.876 28.0404 31.9293 28.0084 32.036 28.0084C32.164 27.9871 32.2387 28.0084 32.26 28.0724C32.8573 29.6724 33.8173 30.9204 35.14 31.8164C36.4627 32.7124 37.9027 33.1604 39.46 33.1604C41.6147 33.1604 43.236 32.3497 44.324 30.7284C45.4333 29.0857 45.988 26.8564 45.988 24.0404V23.6564H41.924C40.7293 23.6564 39.78 23.9337 39.076 24.4884C38.372 25.0431 38.02 25.8111 38.02 26.7924C38.02 26.8351 37.956 26.8564 37.828 26.8564C37.7213 26.8564 37.668 26.8351 37.668 26.7924L37.7 23.5284L37.668 21.8964C37.6253 21.1284 37.604 20.5204 37.604 20.0724C37.604 20.0297 37.668 20.0084 37.796 20.0084C37.924 20.0084 37.988 20.0297 37.988 20.0724C38.0093 20.9044 38.372 21.5764 39.076 22.0884C39.8013 22.5791 40.772 22.8244 41.988 22.8244H45.956C45.8493 21.0111 45.4867 19.4324 44.868 18.0884C44.2707 16.7231 43.4707 15.6777 42.468 14.9524C41.4867 14.2057 40.3667 13.8324 39.108 13.8324C37.7213 13.8324 36.4413 14.2804 35.268 15.1764C34.116 16.0511 33.1347 17.3844 32.324 19.1764C32.3027 19.2404 32.2387 19.2617 32.132 19.2404C32.0253 19.2191 31.972 19.1871 31.972 19.1444L32.452 15.0484C32.4947 14.7924 32.5373 14.6217 32.58 14.5364C32.6227 14.4511 32.74 14.3657 32.932 14.2804C34.916 13.5977 36.9747 13.2564 39.108 13.2564ZM66.1353 33.2244C66.1993 33.2244 66.2313 33.2884 66.2313 33.4164C66.2313 33.5444 66.1993 33.6084 66.1353 33.6084H62.4233C62.2313 33.6084 62.0606 33.5657 61.9113 33.4804C61.7833 33.3737 61.5699 33.1177 61.2713 32.7124C60.9939 32.2857 60.5566 31.5604 59.9593 30.5364C59.4046 29.6404 58.9673 28.9897 58.6473 28.5844C58.3273 28.1577 58.0073 27.8697 57.6873 27.7204C57.3673 27.5497 56.9513 27.4644 56.4393 27.4644H56.2153V31.0164C56.2153 31.6564 56.2579 32.1364 56.3433 32.4564C56.4499 32.7551 56.6206 32.9577 56.8553 33.0644C57.1113 33.1711 57.5059 33.2244 58.0393 33.2244C58.1033 33.2244 58.1353 33.2884 58.1353 33.4164C58.1353 33.5444 58.1033 33.6084 58.0393 33.6084C57.4633 33.6084 57.0153 33.5977 56.6953 33.5764L54.9673 33.5444L53.1432 33.5764C52.8233 33.5977 52.3646 33.6084 51.7673 33.6084C51.7033 33.6084 51.6713 33.5444 51.6713 33.4164C51.6713 33.2884 51.7033 33.2244 51.7673 33.2244C52.3219 33.2244 52.7273 33.1711 52.9833 33.0644C53.2393 32.9577 53.4099 32.7551 53.4953 32.4564C53.5806 32.1364 53.6233 31.6564 53.6233 31.0164V23.8484C53.6233 23.2084 53.5806 22.7391 53.4953 22.4404C53.4099 22.1204 53.2393 21.9071 52.9833 21.8004C52.7273 21.6937 52.3326 21.6404 51.7993 21.6404C51.7566 21.6404 51.7353 21.5764 51.7353 21.4484C51.7353 21.3204 51.7566 21.2564 51.7993 21.2564C52.3753 21.2564 52.8233 21.2671 53.1432 21.2884L54.9673 21.3204L56.9833 21.2884C57.3246 21.2671 57.8046 21.2564 58.4233 21.2564C58.4659 21.2564 58.4873 21.3204 58.4873 21.4484C58.4873 21.5764 58.4659 21.6404 58.4233 21.6404C57.7833 21.6404 57.3033 21.7044 56.9833 21.8324C56.6846 21.9391 56.4819 22.1524 56.3753 22.4724C56.2686 22.7711 56.2153 23.2511 56.2153 23.9124V26.9204L57.9113 26.8564C58.1886 26.8564 58.4553 26.6857 58.7113 26.3444C58.9673 26.0031 59.1913 25.6191 59.3833 25.1924C60.1939 23.5711 60.8873 22.4617 61.4633 21.8644C62.0393 21.2457 62.6793 20.9364 63.3833 20.9364C63.9593 20.9364 64.3859 21.0751 64.6633 21.3524C64.9619 21.6084 65.1113 21.9497 65.1113 22.3764C65.1113 22.8031 64.9726 23.1551 64.6953 23.4324C64.4393 23.7097 64.0659 23.8484 63.5753 23.8484C63.2979 23.8484 62.9886 23.7631 62.6473 23.5924C62.6046 23.5711 62.5086 23.5284 62.3593 23.4644C62.2099 23.4004 62.0393 23.3684 61.8473 23.3684C61.5486 23.3684 61.2499 23.5391 60.9513 23.8804C60.6739 24.2004 60.3539 24.7124 59.9913 25.4164C59.6499 26.0991 59.3299 26.5897 59.0312 26.8884C59.5859 26.9524 60.0339 27.0804 60.3753 27.2724C60.7379 27.4644 61.0686 27.7524 61.3673 28.1364C61.6873 28.4991 62.1139 29.0857 62.6473 29.8964C62.6899 29.9604 62.9033 30.3124 63.2873 30.9524C63.6713 31.5497 63.9699 31.9871 64.1833 32.2644C64.3966 32.5417 64.6526 32.7657 64.9513 32.9364C65.2499 33.1071 65.6446 33.2031 66.1353 33.2244ZM73.0513 34.0244C71.7713 34.0244 70.6406 33.7257 69.6593 33.1284C68.6779 32.5097 67.9206 31.6884 67.3873 30.6644C66.8539 29.6191 66.5872 28.4884 66.5872 27.2724C66.5872 25.8857 66.9286 24.7124 67.6113 23.7524C68.3153 22.7711 69.2006 22.0457 70.2673 21.5764C71.3553 21.0857 72.4646 20.8404 73.5953 20.8404C74.8966 20.8404 76.0273 21.1497 76.9873 21.7684C77.9686 22.3871 78.7153 23.2084 79.2273 24.2324C79.7393 25.2351 79.9953 26.3124 79.9953 27.4644C79.9953 28.7444 79.6753 29.8857 79.0353 30.8884C78.4166 31.8911 77.5739 32.6697 76.5073 33.2244C75.4406 33.7577 74.2886 34.0244 73.0513 34.0244ZM74.0113 33.3844C74.9499 33.3844 75.6646 32.9684 76.1553 32.1364C76.6673 31.3044 76.9233 30.0884 76.9233 28.4884C76.9233 27.0591 76.7206 25.8111 76.3153 24.7444C75.9313 23.6777 75.3979 22.8671 74.7153 22.3124C74.0539 21.7577 73.3286 21.4804 72.5393 21.4804C71.5793 21.4804 70.8539 21.8751 70.3633 22.6644C69.8726 23.4537 69.6273 24.6164 69.6273 26.1524C69.6273 27.5391 69.8086 28.7871 70.1713 29.8964C70.5553 30.9844 71.0779 31.8377 71.7393 32.4564C72.4219 33.0751 73.1793 33.3844 74.0113 33.3844ZM93.2538 31.5924C93.2964 31.5924 93.3391 31.6351 93.3818 31.7204C93.4458 31.8057 93.4564 31.8697 93.4138 31.9124C92.6458 32.6377 91.8671 33.1711 91.0778 33.5124C90.2884 33.8324 89.4244 33.9924 88.4858 33.9924C87.1631 33.9924 86.0218 33.7151 85.0618 33.1604C84.1231 32.5844 83.3978 31.8271 82.8858 30.8884C82.3951 29.9284 82.1497 28.9044 82.1497 27.8164C82.1497 26.5577 82.4591 25.4057 83.0778 24.3604C83.7178 23.3151 84.5818 22.4937 85.6698 21.8964C86.7791 21.2777 87.9951 20.9684 89.3177 20.9684C90.5764 20.9684 91.5471 21.2564 92.2298 21.8324C92.9124 22.3871 93.2538 23.1551 93.2538 24.1364C93.2538 24.7124 93.1364 25.0004 92.9018 25.0004H91.1418L85.1258 25.0644C85.0618 25.5124 85.0298 25.9924 85.0298 26.5044C85.0298 28.3604 85.4564 29.8431 86.3098 30.9524C87.1844 32.0404 88.3898 32.5844 89.9258 32.5844C90.4804 32.5844 91.0458 32.5097 91.6218 32.3604C92.1978 32.1897 92.7204 31.9444 93.1898 31.6244L93.2538 31.5924ZM88.1658 21.6084C87.4618 21.6084 86.8538 21.8644 86.3418 22.3764C85.8298 22.8884 85.4671 23.5924 85.2538 24.4884L90.2458 24.3924C90.2031 23.5177 90.0111 22.8351 89.6698 22.3444C89.3284 21.8537 88.8271 21.6084 88.1658 21.6084ZM95.399 33.6084C95.335 33.6084 95.303 33.5444 95.303 33.4164C95.303 33.2884 95.335 33.2244 95.399 33.2244C95.911 33.2244 96.295 33.1604 96.551 33.0324C96.807 32.9044 96.9777 32.6911 97.063 32.3924C97.1483 32.0724 97.191 31.5924 97.191 30.9524V23.8484C97.191 23.2084 97.1483 22.7391 97.063 22.4404C96.9777 22.1204 96.807 21.9071 96.551 21.8004C96.3163 21.6937 95.9323 21.6404 95.399 21.6404C95.335 21.6404 95.303 21.5764 95.303 21.4484C95.303 21.3204 95.335 21.2564 95.399 21.2564C95.975 21.2564 96.423 21.2671 96.743 21.2884L98.471 21.3204L100.103 21.2884C100.402 21.2671 100.807 21.2564 101.319 21.2564C101.383 21.2564 101.415 21.3204 101.415 21.4484C101.415 21.5764 101.383 21.6404 101.319 21.6404C100.871 21.6404 100.54 21.6937 100.327 21.8004C100.135 21.9071 99.9963 22.1204 99.911 22.4404C99.847 22.7391 99.815 23.2084 99.815 23.8484V31.0164C99.815 31.6991 99.8257 32.1471 99.847 32.3604C99.8897 32.5737 99.975 32.7124 100.103 32.7764C100.252 32.8404 100.53 32.8724 100.935 32.8724H103.943C104.37 32.8724 104.647 32.8404 104.775 32.7764C104.924 32.7124 105.02 32.5631 105.063 32.3284C105.106 32.0937 105.127 31.6457 105.127 30.9844V23.8484C105.127 23.2084 105.084 22.7391 104.999 22.4404C104.914 22.1204 104.743 21.9071 104.487 21.8004C104.252 21.6937 103.879 21.6404 103.367 21.6404C103.303 21.6404 103.271 21.5764 103.271 21.4484C103.271 21.3204 103.303 21.2564 103.367 21.2564C103.922 21.2564 104.359 21.2671 104.679 21.2884L106.375 21.3204L108.007 21.2884C108.327 21.2671 108.743 21.2564 109.255 21.2564C109.319 21.2564 109.351 21.3204 109.351 21.4484C109.351 21.5764 109.319 21.6404 109.255 21.6404C108.807 21.6404 108.476 21.6937 108.263 21.8004C108.05 21.9071 107.9 22.1204 107.815 22.4404C107.751 22.7391 107.719 23.2084 107.719 23.8484V31.0164C107.719 31.6991 107.73 32.1471 107.751 32.3604C107.794 32.5737 107.879 32.7124 108.007 32.7764C108.156 32.8404 108.434 32.8724 108.839 32.8724H111.879C112.306 32.8724 112.583 32.8404 112.711 32.7764C112.86 32.7124 112.946 32.5737 112.967 32.3604C113.01 32.1257 113.031 31.6564 113.031 30.9524V23.8484C113.031 23.2084 112.988 22.7391 112.903 22.4404C112.839 22.1204 112.7 21.9071 112.487 21.8004C112.295 21.6937 111.975 21.6404 111.527 21.6404C111.484 21.6404 111.463 21.5764 111.463 21.4484C111.463 21.3204 111.484 21.2564 111.527 21.2564C112.06 21.2564 112.466 21.2671 112.743 21.2884L114.311 21.3204L116.071 21.2884C116.412 21.2671 116.892 21.2564 117.511 21.2564C117.554 21.2564 117.575 21.3204 117.575 21.4484C117.575 21.5764 117.554 21.6404 117.511 21.6404C116.956 21.6404 116.551 21.6937 116.295 21.8004C116.039 21.9071 115.858 22.1204 115.751 22.4404C115.666 22.7391 115.623 23.2084 115.623 23.8484V30.9844C115.623 31.6244 115.666 32.1044 115.751 32.4244C115.858 32.7231 116.039 32.9364 116.295 33.0644C116.551 33.1711 116.946 33.2244 117.479 33.2244C117.522 33.2244 117.543 33.2884 117.543 33.4164C117.543 33.5444 117.522 33.6084 117.479 33.6084H95.399ZM133.604 33.2244C133.668 33.2244 133.7 33.2884 133.7 33.4164C133.7 33.5444 133.668 33.6084 133.604 33.6084H129.892C129.7 33.6084 129.529 33.5657 129.38 33.4804C129.252 33.3737 129.039 33.1177 128.74 32.7124C128.463 32.2857 128.025 31.5604 127.428 30.5364C126.873 29.6404 126.436 28.9897 126.116 28.5844C125.796 28.1577 125.476 27.8697 125.156 27.7204C124.836 27.5497 124.42 27.4644 123.908 27.4644H123.684V31.0164C123.684 31.6564 123.727 32.1364 123.812 32.4564C123.919 32.7551 124.089 32.9577 124.324 33.0644C124.58 33.1711 124.975 33.2244 125.508 33.2244C125.572 33.2244 125.604 33.2884 125.604 33.4164C125.604 33.5444 125.572 33.6084 125.508 33.6084C124.932 33.6084 124.484 33.5977 124.164 33.5764L122.436 33.5444L120.612 33.5764C120.292 33.5977 119.833 33.6084 119.236 33.6084C119.172 33.6084 119.14 33.5444 119.14 33.4164C119.14 33.2884 119.172 33.2244 119.236 33.2244C119.791 33.2244 120.196 33.1711 120.452 33.0644C120.708 32.9577 120.879 32.7551 120.964 32.4564C121.049 32.1364 121.092 31.6564 121.092 31.0164V23.8484C121.092 23.2084 121.049 22.7391 120.964 22.4404C120.879 22.1204 120.708 21.9071 120.452 21.8004C120.196 21.6937 119.801 21.6404 119.268 21.6404C119.225 21.6404 119.204 21.5764 119.204 21.4484C119.204 21.3204 119.225 21.2564 119.268 21.2564C119.844 21.2564 120.292 21.2671 120.612 21.2884L122.436 21.3204L124.452 21.2884C124.793 21.2671 125.273 21.2564 125.892 21.2564C125.935 21.2564 125.956 21.3204 125.956 21.4484C125.956 21.5764 125.935 21.6404 125.892 21.6404C125.252 21.6404 124.772 21.7044 124.452 21.8324C124.153 21.9391 123.951 22.1524 123.844 22.4724C123.737 22.7711 123.684 23.2511 123.684 23.9124V26.9204L125.38 26.8564C125.657 26.8564 125.924 26.6857 126.18 26.3444C126.436 26.0031 126.66 25.6191 126.852 25.1924C127.663 23.5711 128.356 22.4617 128.932 21.8644C129.508 21.2457 130.148 20.9364 130.852 20.9364C131.428 20.9364 131.855 21.0751 132.132 21.3524C132.431 21.6084 132.58 21.9497 132.58 22.3764C132.58 22.8031 132.441 23.1551 132.164 23.4324C131.908 23.7097 131.535 23.8484 131.044 23.8484C130.767 23.8484 130.457 23.7631 130.116 23.5924C130.073 23.5711 129.977 23.5284 129.828 23.4644C129.679 23.4004 129.508 23.3684 129.316 23.3684C129.017 23.3684 128.719 23.5391 128.42 23.8804C128.143 24.2004 127.823 24.7124 127.46 25.4164C127.119 26.0991 126.799 26.5897 126.5 26.8884C127.055 26.9524 127.503 27.0804 127.844 27.2724C128.207 27.4644 128.537 27.7524 128.836 28.1364C129.156 28.4991 129.583 29.0857 130.116 29.8964C130.159 29.9604 130.372 30.3124 130.756 30.9524C131.14 31.5497 131.439 31.9871 131.652 32.2644C131.865 32.5417 132.121 32.7657 132.42 32.9364C132.719 33.1071 133.113 33.2031 133.604 33.2244ZM146.939 31.8804C147.024 31.8804 147.077 31.9337 147.099 32.0404C147.12 32.1257 147.088 32.1897 147.003 32.2324L143.707 33.8004C143.621 33.8431 143.525 33.8644 143.419 33.8644C143.12 33.8644 142.832 33.6937 142.555 33.3524C142.277 33.0111 142.085 32.5524 141.979 31.9764L140.315 32.8724C139.077 33.5124 138.021 33.8324 137.147 33.8324C136.464 33.8324 135.931 33.6617 135.547 33.3204C135.184 32.9577 135.003 32.4671 135.003 31.8484C135.003 31.1871 135.237 30.6964 135.707 30.3764C136.176 30.0351 137.072 29.6404 138.395 29.1924L141.883 28.0084V25.4484C141.883 24.1471 141.733 23.1977 141.435 22.6004C141.136 21.9817 140.688 21.6724 140.091 21.6724C138.939 21.6724 138.277 22.5151 138.107 24.2004C138 25.2671 137.456 25.8004 136.475 25.8004C135.557 25.8004 135.099 25.4057 135.099 24.6164C135.099 24.0617 135.44 23.5071 136.123 22.9524C136.827 22.3764 137.669 21.9071 138.651 21.5444C139.632 21.1604 140.507 20.9684 141.275 20.9684C142.235 20.9684 143.003 21.2671 143.579 21.8644C144.176 22.4404 144.475 23.3151 144.475 24.4884V30.1524C144.475 30.8137 144.581 31.3151 144.795 31.6564C145.008 31.9977 145.317 32.1684 145.723 32.1684C146.043 32.1684 146.427 32.0724 146.875 31.8804H146.939ZM141.915 31.4644C141.893 31.3791 141.883 31.2191 141.883 30.9844V28.5204L139.611 29.3524C139.056 29.5657 138.661 29.8004 138.427 30.0564C138.192 30.2911 138.075 30.5897 138.075 30.9524C138.075 31.4004 138.203 31.7524 138.459 32.0084C138.715 32.2644 139.045 32.3924 139.451 32.3924C139.899 32.3924 140.4 32.2537 140.955 31.9764L141.915 31.4644Z" fill="#5E5E5E"/>
<path d="M150.558 10.4584C151.361 10.4584 152.065 10.6264 152.672 10.9624C153.279 11.2984 153.75 11.7604 154.086 12.3484C154.422 12.9271 154.59 13.5757 154.59 14.2944C154.59 15.0971 154.389 15.8344 153.988 16.5064C153.587 17.1784 153.045 17.7104 152.364 18.1024C151.683 18.4851 150.931 18.6764 150.11 18.6764C149.41 18.6764 148.738 18.5131 148.094 18.1864C147.45 17.8597 146.927 17.3977 146.526 16.8004C146.134 16.1937 145.938 15.4937 145.938 14.7004C145.938 13.8697 146.148 13.1324 146.568 12.4884C146.997 11.8351 147.567 11.3357 148.276 10.9904C148.985 10.6357 149.746 10.4584 150.558 10.4584ZM150.6 18.2984C151.617 18.2984 152.401 17.9717 152.952 17.3184C153.503 16.6651 153.778 15.8064 153.778 14.7424C153.778 13.9491 153.619 13.2537 153.302 12.6564C152.985 12.0591 152.541 11.6017 151.972 11.2844C151.412 10.9577 150.768 10.7944 150.04 10.7944C149.303 10.7944 148.687 10.9531 148.192 11.2704C147.697 11.5784 147.329 11.9937 147.086 12.5164C146.843 13.0297 146.722 13.6037 146.722 14.2384C146.722 15.0411 146.899 15.7504 147.254 16.3664C147.609 16.9824 148.08 17.4584 148.668 17.7944C149.265 18.1304 149.909 18.2984 150.6 18.2984ZM152.868 16.6744C152.887 16.6744 152.896 16.6931 152.896 16.7304C152.896 16.7677 152.887 16.7864 152.868 16.7864H151.58C151.496 16.7864 151.347 16.5997 151.132 16.2264C150.927 15.8531 150.642 15.2884 150.278 14.5324C150.082 14.5604 149.881 14.5744 149.676 14.5744V16.0024C149.676 16.1984 149.69 16.3384 149.718 16.4224C149.746 16.5064 149.802 16.5624 149.886 16.5904C149.97 16.6184 150.11 16.6324 150.306 16.6324C150.325 16.6324 150.334 16.6604 150.334 16.7164C150.334 16.7631 150.325 16.7864 150.306 16.7864L149.284 16.7724L148.29 16.7864C148.281 16.7864 148.276 16.7631 148.276 16.7164C148.276 16.6604 148.281 16.6324 148.29 16.6324C148.458 16.6324 148.575 16.6184 148.64 16.5904C148.715 16.5624 148.761 16.5064 148.78 16.4224C148.808 16.3384 148.822 16.1984 148.822 16.0024V12.9924C148.822 12.7311 148.789 12.5631 148.724 12.4884C148.668 12.4137 148.523 12.3764 148.29 12.3764C148.281 12.3764 148.276 12.3484 148.276 12.2924C148.276 12.2364 148.281 12.2084 148.29 12.2084L149.284 12.2224C149.396 12.2224 149.601 12.2131 149.9 12.1944C150.161 12.1757 150.339 12.1664 150.432 12.1664C150.899 12.1664 151.244 12.2457 151.468 12.4044C151.692 12.5537 151.804 12.7917 151.804 13.1184C151.804 13.6504 151.543 14.0471 151.02 14.3084C151.393 15.0737 151.706 15.6244 151.958 15.9604C152.219 16.2964 152.523 16.5344 152.868 16.6744ZM149.676 14.3504C149.751 14.3597 149.853 14.3644 149.984 14.3644C150.32 14.3644 150.558 14.2944 150.698 14.1544C150.838 14.0051 150.908 13.7577 150.908 13.4124C150.908 12.7031 150.675 12.3484 150.208 12.3484C150.059 12.3484 149.947 12.3624 149.872 12.3904C149.807 12.4091 149.755 12.4651 149.718 12.5584C149.69 12.6517 149.676 12.8057 149.676 13.0204V14.3504Z" fill="#5E5E5E"/>
</g>
</svg>
