<svg width="194" height="55" viewBox="0 0 194 55" fill="none" xmlns="http://www.w3.org/2000/svg">
<g opacity="0.6">
<path d="M2.26525 44.0427C2.71616 40.784 3.56495 36.3233 5.39515 31.2483C6.93358 27.0281 9.45342 20.2436 15.3949 13.6461C18.2861 10.4676 22.7157 5.55283 30.3283 2.82835C41.0442 -0.991249 50.4339 2.1873 53.4843 3.28243C57.9935 4.88506 65.8978 7.7698 69.0277 15.0083C70.0622 17.4123 71.5741 22.5941 70.3539 28.2568C70.3274 28.3636 70.3009 28.4437 70.3009 28.4972C70.2744 28.6574 70.2478 28.7375 70.2478 28.7643C70.2213 28.8978 70.3274 29.1649 70.9109 29.8861C71.2558 29.9929 71.6006 30.0998 71.9719 30.2066C73.086 30.5271 74.1204 30.7675 75.1284 30.9545C74.7305 30.6073 74.0939 30.1265 73.1921 29.7793C72.2372 29.4053 71.3619 29.2985 70.8048 29.2985C70.8048 29.2985 71.2027 31.6757 71.1762 33.305C71.1762 33.305 71.2027 36.7774 69.903 40.0361C68.4176 43.7489 64.4124 48.53 58.5505 51.2278C49.6117 55.3145 40.8055 52.4565 38.6835 51.6819C35.5536 50.56 31.4423 48.3698 27.2514 46.1261C24.4398 44.6303 22.5301 43.5085 19.4001 42.6537C17.5965 42.1729 14.944 41.4785 11.6284 41.8257C7.14578 42.2798 3.8302 44.3365 2 45.7254C2.13262 45.1912 2.2122 44.6303 2.26525 44.0427Z" fill="#A2B084" stroke="white" stroke-width="1.5" stroke-miterlimit="10"/>
<rect x="56" y="10.6082" width="23" height="30" fill="#A2B084"/>
<path d="M39.108 13.2562C41.4973 13.2562 43.46 13.7148 44.996 14.6322C46.5533 15.5282 47.684 16.7228 48.388 18.2162C49.1133 19.6882 49.476 21.2988 49.476 23.0482C49.476 25.2242 48.964 27.1442 47.94 28.8082C46.916 30.4508 45.5507 31.7308 43.844 32.6482C42.1587 33.5442 40.3347 33.9922 38.372 33.9922C37.476 33.9922 36.4627 33.8962 35.332 33.7042C34.2227 33.5335 33.3587 33.3095 32.74 33.0322C32.5693 32.9468 32.452 32.8615 32.388 32.7762C32.3453 32.6695 32.3133 32.4988 32.292 32.2642L31.876 28.1042C31.876 28.0402 31.9293 28.0082 32.036 28.0082C32.164 27.9868 32.2387 28.0082 32.26 28.0722C32.8573 29.6722 33.8173 30.9202 35.14 31.8162C36.4627 32.7122 37.9027 33.1602 39.46 33.1602C41.6147 33.1602 43.236 32.3495 44.324 30.7282C45.4333 29.0855 45.988 26.8562 45.988 24.0402V23.6562H41.924C40.7293 23.6562 39.78 23.9335 39.076 24.4882C38.372 25.0428 38.02 25.8108 38.02 26.7922C38.02 26.8348 37.956 26.8562 37.828 26.8562C37.7213 26.8562 37.668 26.8348 37.668 26.7922L37.7 23.5282L37.668 21.8962C37.6253 21.1282 37.604 20.5202 37.604 20.0722C37.604 20.0295 37.668 20.0082 37.796 20.0082C37.924 20.0082 37.988 20.0295 37.988 20.0722C38.0093 20.9042 38.372 21.5762 39.076 22.0882C39.8013 22.5788 40.772 22.8242 41.988 22.8242H45.956C45.8493 21.0108 45.4867 19.4322 44.868 18.0882C44.2707 16.7228 43.4707 15.6775 42.468 14.9522C41.4867 14.2055 40.3667 13.8322 39.108 13.8322C37.7213 13.8322 36.4413 14.2802 35.268 15.1762C34.116 16.0508 33.1347 17.3842 32.324 19.1762C32.3027 19.2402 32.2387 19.2615 32.132 19.2402C32.0253 19.2188 31.972 19.1868 31.972 19.1442L32.452 15.0482C32.4947 14.7922 32.5373 14.6215 32.58 14.5362C32.6227 14.4508 32.74 14.3655 32.932 14.2802C34.916 13.5975 36.9747 13.2562 39.108 13.2562ZM66.1353 33.2242C66.1993 33.2242 66.2313 33.2882 66.2313 33.4162C66.2313 33.5442 66.1993 33.6082 66.1353 33.6082H62.4233C62.2313 33.6082 62.0606 33.5655 61.9113 33.4802C61.7833 33.3735 61.5699 33.1175 61.2713 32.7122C60.9939 32.2855 60.5566 31.5602 59.9593 30.5362C59.4046 29.6402 58.9673 28.9895 58.6473 28.5842C58.3273 28.1575 58.0073 27.8695 57.6873 27.7202C57.3673 27.5495 56.9513 27.4642 56.4393 27.4642H56.2153V31.0162C56.2153 31.6562 56.2579 32.1362 56.3433 32.4562C56.4499 32.7548 56.6206 32.9575 56.8553 33.0642C57.1113 33.1708 57.5059 33.2242 58.0393 33.2242C58.1033 33.2242 58.1353 33.2882 58.1353 33.4162C58.1353 33.5442 58.1033 33.6082 58.0393 33.6082C57.4633 33.6082 57.0153 33.5975 56.6953 33.5762L54.9673 33.5442L53.1432 33.5762C52.8233 33.5975 52.3646 33.6082 51.7673 33.6082C51.7033 33.6082 51.6713 33.5442 51.6713 33.4162C51.6713 33.2882 51.7033 33.2242 51.7673 33.2242C52.3219 33.2242 52.7273 33.1708 52.9833 33.0642C53.2393 32.9575 53.4099 32.7548 53.4953 32.4562C53.5806 32.1362 53.6233 31.6562 53.6233 31.0162V23.8482C53.6233 23.2082 53.5806 22.7388 53.4953 22.4402C53.4099 22.1202 53.2393 21.9068 52.9833 21.8002C52.7273 21.6935 52.3326 21.6402 51.7993 21.6402C51.7566 21.6402 51.7353 21.5762 51.7353 21.4482C51.7353 21.3202 51.7566 21.2562 51.7993 21.2562C52.3753 21.2562 52.8233 21.2668 53.1432 21.2882L54.9673 21.3202L56.9833 21.2882C57.3246 21.2668 57.8046 21.2562 58.4233 21.2562C58.4659 21.2562 58.4873 21.3202 58.4873 21.4482C58.4873 21.5762 58.4659 21.6402 58.4233 21.6402C57.7833 21.6402 57.3033 21.7042 56.9833 21.8322C56.6846 21.9388 56.4819 22.1522 56.3753 22.4722C56.2686 22.7708 56.2153 23.2508 56.2153 23.9122V26.9202L57.9113 26.8562C58.1886 26.8562 58.4553 26.6855 58.7113 26.3442C58.9673 26.0028 59.1913 25.6188 59.3833 25.1922C60.1939 23.5708 60.8873 22.4615 61.4633 21.8642C62.0393 21.2455 62.6793 20.9362 63.3833 20.9362C63.9593 20.9362 64.3859 21.0748 64.6633 21.3522C64.9619 21.6082 65.1113 21.9495 65.1113 22.3762C65.1113 22.8028 64.9726 23.1548 64.6953 23.4322C64.4393 23.7095 64.0659 23.8482 63.5753 23.8482C63.2979 23.8482 62.9886 23.7628 62.6473 23.5922C62.6046 23.5708 62.5086 23.5282 62.3593 23.4642C62.2099 23.4002 62.0393 23.3682 61.8473 23.3682C61.5486 23.3682 61.2499 23.5388 60.9513 23.8802C60.6739 24.2002 60.3539 24.7122 59.9913 25.4162C59.6499 26.0988 59.3299 26.5895 59.0312 26.8882C59.5859 26.9522 60.0339 27.0802 60.3753 27.2722C60.7379 27.4642 61.0686 27.7522 61.3673 28.1362C61.6873 28.4988 62.1139 29.0855 62.6473 29.8962C62.6899 29.9602 62.9033 30.3122 63.2873 30.9522C63.6713 31.5495 63.9699 31.9868 64.1833 32.2642C64.3966 32.5415 64.6526 32.7655 64.9513 32.9362C65.2499 33.1068 65.6446 33.2028 66.1353 33.2242ZM73.0513 34.0242C71.7713 34.0242 70.6406 33.7255 69.6593 33.1282C68.6779 32.5095 67.9206 31.6882 67.3873 30.6642C66.8539 29.6188 66.5872 28.4882 66.5872 27.2722C66.5872 25.8855 66.9286 24.7122 67.6113 23.7522C68.3153 22.7708 69.2006 22.0455 70.2673 21.5762C71.3553 21.0855 72.4646 20.8402 73.5953 20.8402C74.8966 20.8402 76.0273 21.1495 76.9873 21.7682C77.9686 22.3868 78.7153 23.2082 79.2273 24.2322C79.7393 25.2348 79.9953 26.3122 79.9953 27.4642C79.9953 28.7442 79.6753 29.8855 79.0353 30.8882C78.4166 31.8908 77.5739 32.6695 76.5073 33.2242C75.4406 33.7575 74.2886 34.0242 73.0513 34.0242ZM74.0113 33.3842C74.9499 33.3842 75.6646 32.9682 76.1553 32.1362C76.6673 31.3042 76.9233 30.0882 76.9233 28.4882C76.9233 27.0588 76.7206 25.8108 76.3153 24.7442C75.9313 23.6775 75.3979 22.8668 74.7153 22.3122C74.0539 21.7575 73.3286 21.4802 72.5393 21.4802C71.5793 21.4802 70.8539 21.8748 70.3633 22.6642C69.8726 23.4535 69.6273 24.6162 69.6273 26.1522C69.6273 27.5388 69.8086 28.7868 70.1713 29.8962C70.5553 30.9842 71.0779 31.8375 71.7393 32.4562C72.4219 33.0748 73.1793 33.3842 74.0113 33.3842ZM93.2538 31.5922C93.2964 31.5922 93.3391 31.6348 93.3818 31.7202C93.4458 31.8055 93.4564 31.8695 93.4138 31.9122C92.6458 32.6375 91.8671 33.1708 91.0778 33.5122C90.2884 33.8322 89.4244 33.9922 88.4858 33.9922C87.1631 33.9922 86.0218 33.7148 85.0618 33.1602C84.1231 32.5842 83.3978 31.8268 82.8858 30.8882C82.3951 29.9282 82.1497 28.9042 82.1497 27.8162C82.1497 26.5575 82.4591 25.4055 83.0778 24.3602C83.7178 23.3148 84.5818 22.4935 85.6698 21.8962C86.7791 21.2775 87.9951 20.9682 89.3177 20.9682C90.5764 20.9682 91.5471 21.2562 92.2298 21.8322C92.9124 22.3868 93.2538 23.1548 93.2538 24.1362C93.2538 24.7122 93.1364 25.0002 92.9018 25.0002H91.1418L85.1258 25.0642C85.0618 25.5122 85.0298 25.9922 85.0298 26.5042C85.0298 28.3602 85.4564 29.8428 86.3098 30.9522C87.1844 32.0402 88.3898 32.5842 89.9258 32.5842C90.4804 32.5842 91.0458 32.5095 91.6218 32.3602C92.1978 32.1895 92.7204 31.9442 93.1898 31.6242L93.2538 31.5922ZM88.1658 21.6082C87.4618 21.6082 86.8538 21.8642 86.3418 22.3762C85.8298 22.8882 85.4671 23.5922 85.2538 24.4882L90.2458 24.3922C90.2031 23.5175 90.0111 22.8348 89.6698 22.3442C89.3284 21.8535 88.8271 21.6082 88.1658 21.6082ZM95.399 33.6082C95.335 33.6082 95.303 33.5442 95.303 33.4162C95.303 33.2882 95.335 33.2242 95.399 33.2242C95.911 33.2242 96.295 33.1602 96.551 33.0322C96.807 32.9042 96.9777 32.6908 97.063 32.3922C97.1483 32.0722 97.191 31.5922 97.191 30.9522V23.8482C97.191 23.2082 97.1483 22.7388 97.063 22.4402C96.9777 22.1202 96.807 21.9068 96.551 21.8002C96.3163 21.6935 95.9323 21.6402 95.399 21.6402C95.335 21.6402 95.303 21.5762 95.303 21.4482C95.303 21.3202 95.335 21.2562 95.399 21.2562C95.975 21.2562 96.423 21.2668 96.743 21.2882L98.471 21.3202L100.103 21.2882C100.402 21.2668 100.807 21.2562 101.319 21.2562C101.383 21.2562 101.415 21.3202 101.415 21.4482C101.415 21.5762 101.383 21.6402 101.319 21.6402C100.871 21.6402 100.54 21.6935 100.327 21.8002C100.135 21.9068 99.9963 22.1202 99.911 22.4402C99.847 22.7388 99.815 23.2082 99.815 23.8482V31.0162C99.815 31.6988 99.8257 32.1468 99.847 32.3602C99.8897 32.5735 99.975 32.7122 100.103 32.7762C100.252 32.8402 100.53 32.8722 100.935 32.8722H103.943C104.37 32.8722 104.647 32.8402 104.775 32.7762C104.924 32.7122 105.02 32.5628 105.063 32.3282C105.106 32.0935 105.127 31.6455 105.127 30.9842V23.8482C105.127 23.2082 105.084 22.7388 104.999 22.4402C104.914 22.1202 104.743 21.9068 104.487 21.8002C104.252 21.6935 103.879 21.6402 103.367 21.6402C103.303 21.6402 103.271 21.5762 103.271 21.4482C103.271 21.3202 103.303 21.2562 103.367 21.2562C103.922 21.2562 104.359 21.2668 104.679 21.2882L106.375 21.3202L108.007 21.2882C108.327 21.2668 108.743 21.2562 109.255 21.2562C109.319 21.2562 109.351 21.3202 109.351 21.4482C109.351 21.5762 109.319 21.6402 109.255 21.6402C108.807 21.6402 108.476 21.6935 108.263 21.8002C108.05 21.9068 107.9 22.1202 107.815 22.4402C107.751 22.7388 107.719 23.2082 107.719 23.8482V31.0162C107.719 31.6988 107.73 32.1468 107.751 32.3602C107.794 32.5735 107.879 32.7122 108.007 32.7762C108.156 32.8402 108.434 32.8722 108.839 32.8722H111.879C112.306 32.8722 112.583 32.8402 112.711 32.7762C112.86 32.7122 112.946 32.5735 112.967 32.3602C113.01 32.1255 113.031 31.6562 113.031 30.9522V23.8482C113.031 23.2082 112.988 22.7388 112.903 22.4402C112.839 22.1202 112.7 21.9068 112.487 21.8002C112.295 21.6935 111.975 21.6402 111.527 21.6402C111.484 21.6402 111.463 21.5762 111.463 21.4482C111.463 21.3202 111.484 21.2562 111.527 21.2562C112.06 21.2562 112.466 21.2668 112.743 21.2882L114.311 21.3202L116.071 21.2882C116.412 21.2668 116.892 21.2562 117.511 21.2562C117.554 21.2562 117.575 21.3202 117.575 21.4482C117.575 21.5762 117.554 21.6402 117.511 21.6402C116.956 21.6402 116.551 21.6935 116.295 21.8002C116.039 21.9068 115.858 22.1202 115.751 22.4402C115.666 22.7388 115.623 23.2082 115.623 23.8482V30.9842C115.623 31.6242 115.666 32.1042 115.751 32.4242C115.858 32.7228 116.039 32.9362 116.295 33.0642C116.551 33.1708 116.946 33.2242 117.479 33.2242C117.522 33.2242 117.543 33.2882 117.543 33.4162C117.543 33.5442 117.522 33.6082 117.479 33.6082H95.399ZM133.604 33.2242C133.668 33.2242 133.7 33.2882 133.7 33.4162C133.7 33.5442 133.668 33.6082 133.604 33.6082H129.892C129.7 33.6082 129.529 33.5655 129.38 33.4802C129.252 33.3735 129.039 33.1175 128.74 32.7122C128.463 32.2855 128.025 31.5602 127.428 30.5362C126.873 29.6402 126.436 28.9895 126.116 28.5842C125.796 28.1575 125.476 27.8695 125.156 27.7202C124.836 27.5495 124.42 27.4642 123.908 27.4642H123.684V31.0162C123.684 31.6562 123.727 32.1362 123.812 32.4562C123.919 32.7548 124.089 32.9575 124.324 33.0642C124.58 33.1708 124.975 33.2242 125.508 33.2242C125.572 33.2242 125.604 33.2882 125.604 33.4162C125.604 33.5442 125.572 33.6082 125.508 33.6082C124.932 33.6082 124.484 33.5975 124.164 33.5762L122.436 33.5442L120.612 33.5762C120.292 33.5975 119.833 33.6082 119.236 33.6082C119.172 33.6082 119.14 33.5442 119.14 33.4162C119.14 33.2882 119.172 33.2242 119.236 33.2242C119.791 33.2242 120.196 33.1708 120.452 33.0642C120.708 32.9575 120.879 32.7548 120.964 32.4562C121.049 32.1362 121.092 31.6562 121.092 31.0162V23.8482C121.092 23.2082 121.049 22.7388 120.964 22.4402C120.879 22.1202 120.708 21.9068 120.452 21.8002C120.196 21.6935 119.801 21.6402 119.268 21.6402C119.225 21.6402 119.204 21.5762 119.204 21.4482C119.204 21.3202 119.225 21.2562 119.268 21.2562C119.844 21.2562 120.292 21.2668 120.612 21.2882L122.436 21.3202L124.452 21.2882C124.793 21.2668 125.273 21.2562 125.892 21.2562C125.935 21.2562 125.956 21.3202 125.956 21.4482C125.956 21.5762 125.935 21.6402 125.892 21.6402C125.252 21.6402 124.772 21.7042 124.452 21.8322C124.153 21.9388 123.951 22.1522 123.844 22.4722C123.737 22.7708 123.684 23.2508 123.684 23.9122V26.9202L125.38 26.8562C125.657 26.8562 125.924 26.6855 126.18 26.3442C126.436 26.0028 126.66 25.6188 126.852 25.1922C127.663 23.5708 128.356 22.4615 128.932 21.8642C129.508 21.2455 130.148 20.9362 130.852 20.9362C131.428 20.9362 131.855 21.0748 132.132 21.3522C132.431 21.6082 132.58 21.9495 132.58 22.3762C132.58 22.8028 132.441 23.1548 132.164 23.4322C131.908 23.7095 131.535 23.8482 131.044 23.8482C130.767 23.8482 130.457 23.7628 130.116 23.5922C130.073 23.5708 129.977 23.5282 129.828 23.4642C129.679 23.4002 129.508 23.3682 129.316 23.3682C129.017 23.3682 128.719 23.5388 128.42 23.8802C128.143 24.2002 127.823 24.7122 127.46 25.4162C127.119 26.0988 126.799 26.5895 126.5 26.8882C127.055 26.9522 127.503 27.0802 127.844 27.2722C128.207 27.4642 128.537 27.7522 128.836 28.1362C129.156 28.4988 129.583 29.0855 130.116 29.8962C130.159 29.9602 130.372 30.3122 130.756 30.9522C131.14 31.5495 131.439 31.9868 131.652 32.2642C131.865 32.5415 132.121 32.7655 132.42 32.9362C132.719 33.1068 133.113 33.2028 133.604 33.2242ZM146.939 31.8802C147.024 31.8802 147.077 31.9335 147.099 32.0402C147.12 32.1255 147.088 32.1895 147.003 32.2322L143.707 33.8002C143.621 33.8428 143.525 33.8642 143.419 33.8642C143.12 33.8642 142.832 33.6935 142.555 33.3522C142.277 33.0108 142.085 32.5522 141.979 31.9762L140.315 32.8722C139.077 33.5122 138.021 33.8322 137.147 33.8322C136.464 33.8322 135.931 33.6615 135.547 33.3202C135.184 32.9575 135.003 32.4668 135.003 31.8482C135.003 31.1868 135.237 30.6962 135.707 30.3762C136.176 30.0348 137.072 29.6402 138.395 29.1922L141.883 28.0082V25.4482C141.883 24.1468 141.733 23.1975 141.435 22.6002C141.136 21.9815 140.688 21.6722 140.091 21.6722C138.939 21.6722 138.277 22.5148 138.107 24.2002C138 25.2668 137.456 25.8002 136.475 25.8002C135.557 25.8002 135.099 25.4055 135.099 24.6162C135.099 24.0615 135.44 23.5068 136.123 22.9522C136.827 22.3762 137.669 21.9068 138.651 21.5442C139.632 21.1602 140.507 20.9682 141.275 20.9682C142.235 20.9682 143.003 21.2668 143.579 21.8642C144.176 22.4402 144.475 23.3148 144.475 24.4882V30.1522C144.475 30.8135 144.581 31.3148 144.795 31.6562C145.008 31.9975 145.317 32.1682 145.723 32.1682C146.043 32.1682 146.427 32.0722 146.875 31.8802H146.939ZM141.915 31.4642C141.893 31.3788 141.883 31.2188 141.883 30.9842V28.5202L139.611 29.3522C139.056 29.5655 138.661 29.8002 138.427 30.0562C138.192 30.2908 138.075 30.5895 138.075 30.9522C138.075 31.4002 138.203 31.7522 138.459 32.0082C138.715 32.2642 139.045 32.3922 139.451 32.3922C139.899 32.3922 140.4 32.2535 140.955 31.9762L141.915 31.4642Z" fill="white"/>
<path d="M150.558 10.4582C151.361 10.4582 152.065 10.6262 152.672 10.9622C153.279 11.2982 153.75 11.7602 154.086 12.3482C154.422 12.9268 154.59 13.5755 154.59 14.2942C154.59 15.0968 154.389 15.8342 153.988 16.5062C153.587 17.1782 153.045 17.7102 152.364 18.1022C151.683 18.4848 150.931 18.6762 150.11 18.6762C149.41 18.6762 148.738 18.5128 148.094 18.1862C147.45 17.8595 146.927 17.3975 146.526 16.8002C146.134 16.1935 145.938 15.4935 145.938 14.7002C145.938 13.8695 146.148 13.1322 146.568 12.4882C146.997 11.8348 147.567 11.3355 148.276 10.9902C148.985 10.6355 149.746 10.4582 150.558 10.4582ZM150.6 18.2982C151.617 18.2982 152.401 17.9715 152.952 17.3182C153.503 16.6648 153.778 15.8062 153.778 14.7422C153.778 13.9488 153.619 13.2535 153.302 12.6562C152.985 12.0588 152.541 11.6015 151.972 11.2842C151.412 10.9575 150.768 10.7942 150.04 10.7942C149.303 10.7942 148.687 10.9528 148.192 11.2702C147.697 11.5782 147.329 11.9935 147.086 12.5162C146.843 13.0295 146.722 13.6035 146.722 14.2382C146.722 15.0408 146.899 15.7502 147.254 16.3662C147.609 16.9822 148.08 17.4582 148.668 17.7942C149.265 18.1302 149.909 18.2982 150.6 18.2982ZM152.868 16.6742C152.887 16.6742 152.896 16.6928 152.896 16.7302C152.896 16.7675 152.887 16.7862 152.868 16.7862H151.58C151.496 16.7862 151.347 16.5995 151.132 16.2262C150.927 15.8528 150.642 15.2882 150.278 14.5322C150.082 14.5602 149.881 14.5742 149.676 14.5742V16.0022C149.676 16.1982 149.69 16.3382 149.718 16.4222C149.746 16.5062 149.802 16.5622 149.886 16.5902C149.97 16.6182 150.11 16.6322 150.306 16.6322C150.325 16.6322 150.334 16.6602 150.334 16.7162C150.334 16.7628 150.325 16.7862 150.306 16.7862L149.284 16.7722L148.29 16.7862C148.281 16.7862 148.276 16.7628 148.276 16.7162C148.276 16.6602 148.281 16.6322 148.29 16.6322C148.458 16.6322 148.575 16.6182 148.64 16.5902C148.715 16.5622 148.761 16.5062 148.78 16.4222C148.808 16.3382 148.822 16.1982 148.822 16.0022V12.9922C148.822 12.7308 148.789 12.5628 148.724 12.4882C148.668 12.4135 148.523 12.3762 148.29 12.3762C148.281 12.3762 148.276 12.3482 148.276 12.2922C148.276 12.2362 148.281 12.2082 148.29 12.2082L149.284 12.2222C149.396 12.2222 149.601 12.2128 149.9 12.1942C150.161 12.1755 150.339 12.1662 150.432 12.1662C150.899 12.1662 151.244 12.2455 151.468 12.4042C151.692 12.5535 151.804 12.7915 151.804 13.1182C151.804 13.6502 151.543 14.0468 151.02 14.3082C151.393 15.0735 151.706 15.6242 151.958 15.9602C152.219 16.2962 152.523 16.5342 152.868 16.6742ZM149.676 14.3502C149.751 14.3595 149.853 14.3642 149.984 14.3642C150.32 14.3642 150.558 14.2942 150.698 14.1542C150.838 14.0048 150.908 13.7575 150.908 13.4122C150.908 12.7028 150.675 12.3482 150.208 12.3482C150.059 12.3482 149.947 12.3622 149.872 12.3902C149.807 12.4088 149.755 12.4648 149.718 12.5582C149.69 12.6515 149.676 12.8055 149.676 13.0202V14.3502Z" fill="#A2B084"/>
</g>
</svg>
